<svg xmlns="http://www.w3.org/2000/svg" fill="none" stroke="none"><defs></defs><g fill="#FFFFFF" fill-rule="evenodd" stroke="#FFFFFF" stroke-width="0" stroke-linecap="round" stroke-linejoin="round"><path d="M 0,0 L 900,0 L 900,200 L 0,200 Z"></path></g><g fill="#FFFFFF" fill-rule="evenodd" stroke="#E0E0E0" stroke-width="0.5" stroke-linecap="round" stroke-linejoin="round"><path d="M 42.739,180 L 42.739,0 Z"></path></g><g fill="#FFFFFF" fill-rule="evenodd" stroke="#E0E0E0" stroke-width="0.5" stroke-linecap="round" stroke-linejoin="round"><path d="M 152.936,180 L 152.936,0 Z"></path></g><g fill="#FFFFFF" fill-rule="evenodd" stroke="#E0E0E0" stroke-width="0.5" stroke-linecap="round" stroke-linejoin="round"><path d="M 263.134,180 L 263.134,0 Z"></path></g><g fill="#FFFFFF" fill-rule="evenodd" stroke="#E0E0E0" stroke-width="0.5" stroke-linecap="round" stroke-linejoin="round"><path d="M 373.331,180 L 373.331,0 Z"></path></g><g fill="#FFFFFF" fill-rule="evenodd" stroke="#E0E0E0" stroke-width="0.5" stroke-linecap="round" stroke-linejoin="round"><path d="M 483.529,180 L 483.529,0 Z"></path></g><g fill="#FFFFFF" fill-rule="evenodd" stroke="#E0E0E0" stroke-width="0.5" stroke-linecap="round" stroke-linejoin="round"><path d="M 593.726,180 L 593.726,0 Z"></path></g><g fill="#FFFFFF" fill-rule="evenodd" stroke="#E0E0E0" stroke-width="0.5" stroke-linecap="round" stroke-linejoin="round"><path d="M 703.924,180 L 703.924,0 Z"></path></g><g fill="#FFFFFF" fill-rule="evenodd" stroke="#E0E0E0" stroke-width="0.5" stroke-linecap="round" stroke-linejoin="round"><path d="M 814.121,180 L 814.121,0 Z"></path></g><g fill="#FFFFFF" fill-rule="evenodd" stroke="#E0E0E0" stroke-width="0.5" stroke-linecap="round" stroke-linejoin="round"><path d="M 40,151.303 L 900,151.303 Z"></path></g><g fill="#FFFFFF" fill-rule="evenodd" stroke="#E0E0E0" stroke-width="0.5" stroke-linecap="round" stroke-linejoin="round"><path d="M 40,111.974 L 900,111.974 Z"></path></g><g fill="#FFFFFF" fill-rule="evenodd" stroke="#E0E0E0" stroke-width="0.5" stroke-linecap="round" stroke-linejoin="round"><path d="M 40,72.645 L 900,72.645 Z"></path></g><g fill="#FFFFFF" fill-rule="evenodd" stroke="#E0E0E0" stroke-width="0.5" stroke-linecap="round" stroke-linejoin="round"><path d="M 40,33.316 L 900,33.316 Z"></path></g><g fill="rgba(16,16,16,0.251)" fill-rule="evenodd" stroke="rgba(0,0,0,0.686)" stroke-width="0.5" stroke-linecap="round" stroke-linejoin="round"><path d="M 42.739,180 L 42.739,176.774 L 45.267,167.097 L 46.787,167.742 L 51.378,169.032 L 52.82,169.032 L 54.268,169.032 L 55.802,168.387 L 57.212,169.677 L 58.697,168.387 L 60.257,169.032 L 61.752,168.387 L 63.257,167.742 L 64.586,168.387 L 66.042,168.387 L 69.093,167.097 L 73.846,164.516 L 75.722,163.871 L 77.069,161.935 L 78.511,160.645 L 79.911,159.355 L 81.214,157.419 L 82.679,157.419 L 84.99,150.968 L 86.426,147.742 L 87.983,145.161 L 89.683,144.516 L 90.974,143.871 L 92.395,143.226 L 93.902,142.581 L 95.449,142.581 L 96.883,142.581 L 98.356,144.516 L 99.778,145.806 L 101.226,145.161 L 102.568,145.806 L 103.964,145.806 L 105.383,145.161 L 106.786,143.871 L 108.382,144.516 L 109.985,143.871 L 111.382,143.871 L 114.285,142.581 L 115.676,141.935 L 117.325,141.29 L 118.675,140.645 L 119.879,140.645 L 121.349,138.710 L 123.235,136.129 L 124.663,138.710 L 126.136,139.355 L 127.753,138.065 L 129.397,137.419 L 131.928,134.839 L 133.539,134.194 L 135.142,133.548 L 137.147,132.258 L 138.941,132.903 L 143.061,126.452 L 145.999,125.161 L 147.441,126.452 L 148.689,125.806 L 151.697,125.161 L 154.706,123.871 L 159.490,123.871 L 161.397,123.871 L 163.657,123.226 L 166.002,123.226 L 167.991,123.226 L 169.730,123.226 L 171.397,123.226 L 172.947,123.226 L 174.606,123.226 L 176.244,123.226 L 177.840,123.226 L 179.389,123.226 L 180.891,123.226 L 182.354,122.581 L 183.805,122.581 L 185.586,121.29 L 187.079,120.645 L 191.903,120.645 L 193.541,120.645 L 195.064,120.645 L 196.798,120.645 L 198.416,120.645 L 200.013,120.645 L 201.587,120 L 203.043,120 L 204.381,121.935 L 205.749,122.581 L 207.150,123.226 L 208.633,123.226 L 210.157,123.871 L 211.711,123.871 L 213.109,123.871 L 214.509,123.226 L 216.008,123.226 L 217.422,122.581 L 218.934,123.226 L 220.361,123.226 L 221.707,123.226 L 223.169,123.226 L 224.503,123.226 L 227.375,123.226 L 230.196,120 L 231.752,120 L 233.31,120.645 L 234.729,121.29 L 236.273,121.29 L 239.946,121.29 L 241.445,121.29 L 243.017,121.29 L 244.499,121.29 L 246.02,121.29 L 247.469,121.29 L 248.841,121.29 L 250.208,121.935 L 251.620,121.935 L 252.932,122.581 L 254.272,122.581 L 255.636,122.581 L 257.080,123.226 L 259.355,123.226 L 260.758,122.581 L 262.231,122.581 L 263.729,121.935 L 265.145,121.29 L 266.461,120.645 L 268.085,119.355 L 269.451,116.129 L 270.718,118.065 L 272.131,117.419 L 273.489,116.774 L 274.943,116.129 L 276.319,115.484 L 277.644,114.839 L 279.361,112.258 L 280.765,110.323 L 283.792,111.613 L 286.708,110.968 L 288.153,110.323 L 289.717,110.968 L 291.900,109.677 L 296.159,106.452 L 298.180,104.516 L 300.020,104.516 L 301.399,103.871 L 304.155,100 L 305.982,97.419 L 307.268,96.129 L 309.295,97.419 L 312.891,94.194 L 314.322,90.323 L 315.858,84.516 L 317.342,81.935 L 318.769,79.355 L 320.234,76.774 L 322.525,75.484 L 324.11,75.484 L 327.580,73.548 L 329.686,70.968 L 331.282,68.387 L 332.76,67.097 L 334.246,65.806 L 335.587,63.871 L 336.986,63.226 L 338.477,63.226 L 339.831,62.581 L 341.166,62.581 L 342.527,61.29 L 346.072,60 L 350.804,56.774 L 352.693,55.484 L 353.674,50.968 L 355.045,50.968 L 357.69,47.742 L 359.117,47.097 L 360.531,46.452 L 361.845,45.806 L 363.262,45.161 L 364.693,44.516 L 366.077,43.226 L 367.448,41.29 L 368.892,40 L 370.31,38.710 L 371.704,36.774 L 373.01,36.129 L 374.293,35.484 L 375.81,33.548 L 377.172,32.903 L 378.96,30.968 L 380.506,29.677 L 382.227,29.032 L 383.410,30.323 L 384.583,29.032 L 386.163,29.677 L 387.377,30.968 L 388.889,30.323 L 390.385,28.387 L 391.742,27.097 L 393.136,26.452 L 394.479,25.161 L 395.716,24.516 L 397.053,23.226 L 398.323,20.645 L 400.525,19.355 L 401.958,18.065 L 403.245,17.419 L 404.656,16.774 L 406.049,16.774 L 407.439,16.129 L 408.785,16.129 L 410.240,15.484 L 411.574,14.194 L 413.571,13.548 L 414.992,12.258 L 416.323,11.613 L 417.680,10.968 L 419.096,10.323 L 420.464,9.677 L 421.9,9.677 L 423.117,9.032 L 424.422,9.032 L 425.888,8.387 L 427.260,8.387 L 428.513,6.452 L 429.882,6.452 L 432.007,8.387 L 433.364,8.387 L 434.747,9.677 L 436.222,10.323 L 437.587,10.968 L 439.087,11.613 L 440.532,12.903 L 441.933,14.839 L 443.439,16.129 L 444.864,17.419 L 446.254,18.710 L 447.634,19.355 L 449.012,20.645 L 450.495,21.935 L 451.878,23.226 L 453.354,23.871 L 454.792,25.161 L 456.138,25.806 L 457.498,27.097 L 458.926,27.742 L 460.318,28.387 L 461.852,29.032 L 463.281,30.323 L 464.703,30.968 L 466.025,32.258 L 467.321,32.903 L 468.724,34.194 L 470.111,34.839 L 471.530,35.484 L 472.995,36.774 L 474.521,37.419 L 475.943,38.065 L 477.463,38.710 L 478.846,38.710 L 480.348,39.355 L 481.853,39.355 L 483.260,39.355 L 484.578,40 L 486,40 L 487.306,40 L 488.766,40 L 490.122,40.645 L 491.53,41.29 L 492.969,41.29 L 494.375,41.29 L 495.844,40.645 L 497.183,41.29 L 498.676,41.935 L 500.104,41.29 L 501.498,41.29 L 502.950,39.355 L 504.468,38.710 L 505.916,38.710 L 507.308,38.710 L 508.683,39.355 L 510.107,39.355 L 511.476,39.355 L 512.906,40 L 514.269,40 L 515.633,39.355 L 517.112,40 L 518.533,40.645 L 519.955,40.645 L 521.360,40.645 L 522.617,40.645 L 524.043,41.29 L 525.43,42.581 L 526.873,43.226 L 528.291,43.871 L 529.756,43.871 L 531.16,43.226 L 532.513,43.226 L 533.955,41.935 L 535.085,42.581 L 536.734,41.935 L 538.158,42.581 L 539.572,42.581 L 540.951,42.581 L 542.394,41.935 L 543.859,41.29 L 545.306,40.645 L 546.746,39.355 L 548.24,39.355 L 549.638,38.710 L 551.176,38.065 L 552.654,38.065 L 554.135,38.710 L 555.559,38.710 L 556.995,39.355 L 558.407,40 L 559.901,40 L 561.385,40.645 L 562.913,41.29 L 564.354,42.581 L 565.681,43.226 L 567.179,43.226 L 568.837,43.871 L 570.301,43.871 L 571.687,44.516 L 573.021,45.161 L 574.504,45.806 L 576.012,45.806 L 577.393,46.452 L 578.731,47.097 L 580.072,48.387 L 581.449,48.387 L 582.843,49.677 L 584.195,50.323 L 585.591,50.968 L 587.14,51.613 L 588.653,52.258 L 590.059,53.548 L 591.408,54.839 L 592.799,56.774 L 594.113,58.710 L 595.404,59.355 L 596.804,60.645 L 598.225,62.581 L 599.628,63.871 L 601.07,66.452 L 602.445,67.742 L 603.821,69.032 L 605.241,70.323 L 606.611,72.258 L 607.978,73.548 L 609.281,75.484 L 610.494,76.774 L 611.959,76.774 L 613.450,76.129 L 614.932,76.129 L 616.353,76.774 L 617.802,76.774 L 619.136,78.065 L 620.648,78.065 L 621.992,78.710 L 623.612,79.355 L 625.001,80.645 L 626.409,81.29 L 627.835,81.935 L 629.31,80.645 L 630.896,80.645 L 632.323,81.935 L 633.698,83.226 L 635.047,83.226 L 636.29,83.871 L 637.768,84.516 L 639.257,85.161 L 640.735,86.452 L 642.083,87.097 L 643.445,88.387 L 644.843,90.968 L 646.258,91.613 L 647.716,92.903 L 649.310,90.968 L 650.729,89.677 L 652.247,89.677 L 653.621,89.677 L 654.998,89.677 L 656.448,90.323 L 657.886,89.677 L 659.263,89.677 L 660.712,89.032 L 662.069,92.258 L 663.571,94.839 L 665.319,98.710 L 666.73,100 L 668.125,101.29 L 669.489,103.226 L 670.588,107.097 L 672.115,107.097 L 673.567,108.387 L 675.004,108.387 L 676.414,107.742 L 677.797,108.387 L 679.157,107.742 L 680.623,108.387 L 681.866,109.032 L 683.337,109.677 L 684.723,110.323 L 686.157,112.258 L 687.674,112.903 L 689.047,113.548 L 690.436,113.548 L 691.79,114.839 L 693.171,115.484 L 694.704,116.774 L 696.140,117.419 L 697.536,118.710 L 698.896,120.645 L 700.454,120.645 L 701.934,121.935 L 703.339,123.226 L 704.822,125.161 L 706.405,126.452 L 707.824,127.742 L 709.21,128.387 L 710.357,127.742 L 711.792,127.742 L 713.252,129.032 L 714.616,130.968 L 716.096,131.613 L 717.605,131.613 L 718.979,132.903 L 720.358,134.194 L 721.829,135.484 L 723.256,136.129 L 724.724,136.774 L 726.162,138.065 L 727.661,138.710 L 729.114,139.355 L 730.502,139.355 L 731.911,140 L 733.303,141.29 L 734.805,141.935 L 736.256,141.29 L 737.688,141.935 L 739.118,143.226 L 740.54,143.871 L 742.013,145.161 L 743.386,146.452 L 744.853,147.742 L 746.259,148.387 L 748.016,148.387 L 749.230,149.677 L 750.608,150.323 L 752.059,150.968 L 753.543,152.258 L 754.999,152.903 L 756.489,152.903 L 757.881,154.194 L 759.253,154.194 L 760.710,154.839 L 762.101,155.484 L 763.434,156.129 L 764.927,156.774 L 766.446,157.419 L 767.936,158.065 L 769.314,158.710 L 770.754,158.710 L 772.292,159.355 L 773.741,159.355 L 775.179,159.355 L 776.842,159.355 L 778.402,160 L 779.891,160 L 781.205,160.645 L 782.618,160.645 L 784.085,161.29 L 785.679,161.29 L 787.157,162.581 L 788.703,162.581 L 790.129,163.226 L 791.544,162.581 L 793.149,162.581 L 794.743,162.581 L 796.336,162.581 L 797.785,163.226 L 800.655,163.226 L 803.543,163.871 L 807.895,163.871 L 817.860,163.871 L 821.194,163.871 L 822.709,163.871 L 828.762,163.871 L 830.735,163.871 L 845.205,163.871 L 848.182,163.871 L 851.691,165.161 L 865.167,165.806 L 871.972,167.097 L 874.003,168.387 L 878.991,168.387 L 889.961,169.032 L 891.775,169.032 L 893.426,169.677 L 895.004,170.323 L 897.261,165.806 L 897.261,180 L 42.739,180 Z"></path></g><g fill="rgba(16,16,16,0.251)" fill-rule="evenodd" stroke="rgba(0,0,0,0.686)" stroke-width="0.5" stroke-linecap="round" stroke-linejoin="round"><path d="M 42.739,180 L 42.739,180 L 45.267,180 L 46.787,180 L 51.378,180 L 52.82,180 L 54.268,180 L 55.802,180 L 57.212,180 L 58.697,180 L 60.257,180 L 61.752,180 L 63.257,180 L 64.586,180 L 66.042,180 L 69.093,180 L 73.846,180 L 75.722,180 L 77.069,180 L 78.511,180 L 79.911,180 L 81.214,180 L 82.679,180 L 84.99,180 L 86.426,180 L 87.983,180 L 89.683,180 L 90.974,180 L 92.395,180 L 93.902,180 L 95.449,180 L 96.883,180 L 98.356,180 L 99.778,180 L 101.226,180 L 102.568,180 L 103.964,180 L 105.383,180 L 106.786,180 L 108.382,180 L 109.985,180 L 111.382,180 L 114.285,180 L 115.676,180 L 117.325,180 L 118.675,180 L 119.879,180 L 121.349,180 L 123.235,180 L 124.663,180 L 126.136,180 L 127.753,180 L 129.397,180 L 131.928,180 L 133.539,180 L 135.142,180 L 137.147,180 L 138.941,180 L 143.061,180 L 145.999,180 L 147.441,180 L 148.689,180 L 151.697,180 L 154.706,180 L 159.490,180 L 161.397,180 L 163.657,180 L 166.002,180 L 167.991,180 L 169.730,180 L 171.397,180 L 172.947,180 L 174.606,180 L 176.244,180 L 177.840,180 L 179.389,180 L 180.891,180 L 182.354,180 L 183.805,180 L 185.586,180 L 187.079,180 L 191.903,180 L 193.541,180 L 195.064,180 L 196.798,180 L 198.416,180 L 200.013,180 L 201.587,180 L 203.043,180 L 204.381,180 L 205.749,180 L 207.150,180 L 208.633,180 L 210.157,180 L 211.711,180 L 213.109,180 L 214.509,180 L 216.008,180 L 217.422,180 L 218.934,180 L 220.361,180 L 221.707,180 L 223.169,180 L 224.503,180 L 227.375,180 L 230.196,180 L 231.752,180 L 233.31,180 L 234.729,180 L 236.273,180 L 239.946,180 L 241.445,180 L 243.017,180 L 244.499,180 L 246.02,180 L 247.469,180 L 248.841,180 L 250.208,180 L 251.620,180 L 252.932,180 L 254.272,180 L 255.636,180 L 257.080,180 L 259.355,180 L 260.758,180 L 262.231,180 L 263.729,180 L 265.145,180 L 266.461,180 L 268.085,180 L 269.451,180 L 270.718,180 L 272.131,180 L 273.489,180 L 274.943,180 L 276.319,180 L 277.644,180 L 279.361,180 L 280.765,180 L 283.792,180 L 286.708,180 L 288.153,180 L 289.717,180 L 291.900,180 L 296.159,180 L 298.180,180 L 300.020,180 L 301.399,180 L 304.155,180 L 305.982,180 L 307.268,180 L 309.295,180 L 312.891,180 L 314.322,180 L 315.858,180 L 317.342,180 L 318.769,180 L 320.234,180 L 322.525,180 L 324.11,180 L 327.580,180 L 329.686,180 L 331.282,180 L 332.76,180 L 334.246,180 L 335.587,180 L 336.986,180 L 338.477,180 L 339.831,180 L 341.166,180 L 342.527,180 L 346.072,180 L 350.804,180 L 352.693,180 L 353.674,180 L 355.045,180 L 357.69,180 L 359.117,180 L 360.531,180 L 361.845,180 L 363.262,180 L 364.693,180 L 366.077,180 L 367.448,180 L 368.892,180 L 370.31,180 L 371.704,180 L 373.01,180 L 374.293,180 L 375.81,180 L 377.172,180 L 378.96,180 L 380.506,180 L 382.227,180 L 383.410,180 L 384.583,180 L 386.163,180 L 387.377,180 L 388.889,180 L 390.385,180 L 391.742,180 L 393.136,180 L 394.479,180 L 395.716,180 L 397.053,180 L 398.323,180 L 400.525,180 L 401.958,180 L 403.245,180 L 404.656,180 L 406.049,180 L 407.439,180 L 408.785,180 L 410.240,180 L 411.574,180 L 413.571,180 L 414.992,180 L 416.323,180 L 417.680,180 L 419.096,180 L 420.464,180 L 421.9,180 L 423.117,180 L 424.422,180 L 425.888,180 L 427.260,180 L 428.513,180 L 429.882,180 L 432.007,180 L 433.364,180 L 434.747,180 L 436.222,180 L 437.587,180 L 439.087,180 L 440.532,180 L 441.933,180 L 443.439,180 L 444.864,180 L 446.254,180 L 447.634,180 L 449.012,180 L 450.495,180 L 451.878,180 L 453.354,180 L 454.792,180 L 456.138,180 L 457.498,180 L 458.926,180 L 460.318,180 L 461.852,180 L 463.281,180 L 464.703,180 L 466.025,180 L 467.321,180 L 468.724,180 L 470.111,180 L 471.530,180 L 472.995,180 L 474.521,180 L 475.943,180 L 477.463,180 L 478.846,180 L 480.348,180 L 481.853,180 L 483.260,180 L 484.578,180 L 486,180 L 487.306,180 L 488.766,180 L 490.122,180 L 491.53,180 L 492.969,180 L 494.375,180 L 495.844,180 L 497.183,180 L 498.676,180 L 500.104,180 L 501.498,180 L 502.950,180 L 504.468,180 L 505.916,180 L 507.308,180 L 508.683,180 L 510.107,180 L 511.476,180 L 512.906,180 L 514.269,180 L 515.633,180 L 517.112,180 L 518.533,180 L 519.955,180 L 521.360,180 L 522.617,180 L 524.043,180 L 525.43,180 L 526.873,180 L 528.291,180 L 529.756,180 L 531.16,180 L 532.513,180 L 533.955,180 L 535.085,180 L 536.734,180 L 538.158,180 L 539.572,180 L 540.951,180 L 542.394,180 L 543.859,180 L 545.306,180 L 546.746,180 L 548.24,180 L 549.638,180 L 551.176,180 L 552.654,180 L 554.135,180 L 555.559,180 L 556.995,180 L 558.407,180 L 559.901,180 L 561.385,180 L 562.913,180 L 564.354,180 L 565.681,180 L 567.179,180 L 568.837,180 L 570.301,180 L 571.687,180 L 573.021,180 L 574.504,180 L 576.012,180 L 577.393,180 L 578.731,180 L 580.072,180 L 581.449,180 L 582.843,180 L 584.195,180 L 585.591,180 L 587.14,180 L 588.653,180 L 590.059,180 L 591.408,180 L 592.799,180 L 594.113,180 L 595.404,180 L 596.804,180 L 598.225,180 L 599.628,180 L 601.07,180 L 602.445,180 L 603.821,180 L 605.241,180 L 606.611,180 L 607.978,180 L 609.281,180 L 610.494,180 L 611.959,180 L 613.450,180 L 614.932,180 L 616.353,180 L 617.802,180 L 619.136,180 L 620.648,180 L 621.992,180 L 623.612,180 L 625.001,180 L 626.409,180 L 627.835,180 L 629.31,180 L 630.896,180 L 632.323,180 L 633.698,180 L 635.047,180 L 636.29,180 L 637.768,180 L 639.257,180 L 640.735,180 L 642.083,180 L 643.445,180 L 644.843,180 L 646.258,180 L 647.716,180 L 649.310,180 L 650.729,180 L 652.247,180 L 653.621,180 L 654.998,180 L 656.448,180 L 657.886,180 L 659.263,180 L 660.712,180 L 662.069,180 L 663.571,180 L 665.319,180 L 666.73,180 L 668.125,180 L 669.489,180 L 670.588,180 L 672.115,180 L 673.567,180 L 675.004,180 L 676.414,180 L 677.797,180 L 679.157,180 L 680.623,180 L 681.866,180 L 683.337,180 L 684.723,180 L 686.157,180 L 687.674,180 L 689.047,180 L 690.436,180 L 691.79,180 L 693.171,180 L 694.704,180 L 696.140,180 L 697.536,180 L 698.896,180 L 700.454,180 L 701.934,180 L 703.339,180 L 704.822,180 L 706.405,180 L 707.824,180 L 709.21,180 L 710.357,180 L 711.792,180 L 713.252,180 L 714.616,180 L 716.096,180 L 717.605,180 L 718.979,180 L 720.358,180 L 721.829,180 L 723.256,180 L 724.724,180 L 726.162,180 L 727.661,180 L 729.114,180 L 730.502,180 L 731.911,180 L 733.303,180 L 734.805,180 L 736.256,180 L 737.688,180 L 739.118,180 L 740.54,180 L 742.013,180 L 743.386,180 L 744.853,180 L 746.259,180 L 748.016,180 L 749.230,180 L 750.608,180 L 752.059,180 L 753.543,180 L 754.999,180 L 756.489,180 L 757.881,180 L 759.253,180 L 760.710,180 L 762.101,180 L 763.434,180 L 764.927,180 L 766.446,180 L 767.936,180 L 769.314,180 L 770.754,180 L 772.292,180 L 773.741,180 L 775.179,180 L 776.842,180 L 778.402,180 L 779.891,180 L 781.205,180 L 782.618,180 L 784.085,180 L 785.679,180 L 787.157,180 L 788.703,180 L 790.129,180 L 791.544,180 L 793.149,180 L 794.743,180 L 796.336,180 L 797.785,180 L 800.655,180 L 803.543,180 L 807.895,180 L 817.860,180 L 821.194,180 L 822.709,180 L 828.762,180 L 830.735,180 L 845.205,180 L 848.182,180 L 851.691,180 L 865.167,180 L 871.972,180 L 874.003,180 L 878.991,180 L 889.961,180 L 891.775,180 L 893.426,180 L 895.004,180 L 897.261,180 L 897.261,180 L 42.739,180 Z"></path></g><g fill="rgba(16,16,16,0.251)" fill-rule="evenodd" stroke="#366AFF" stroke-width="0.5" stroke-linecap="round" stroke-linejoin="round"><path d="M 40,180 L 900,180 Z"></path></g><g fill="rgba(16,16,16,0.251)" fill-rule="evenodd" stroke="#366AFF" stroke-width="0.5" stroke-linecap="round" stroke-linejoin="round"><path d="M 152.936,177 L 152.936,183 Z"></path></g><g fill="rgba(0,0,0,0)" fill-rule="evenodd"><path d="M 148.483,182.547 Q 149.890,182.547 150.702,183.844 Q 151.53,185.141 151.53,187.359 Q 151.53,189.641 150.702,190.938 Q 149.890,192.234 148.452,192.234 Q 147.218,192.234 146.436,191.172 Q 145.436,189.844 145.436,187.375 Q 145.436,185.141 146.265,183.844 Q 147.077,182.547 148.483,182.547 M 148.483,183.469 Q 147.655,183.469 147.202,184.484 Q 146.749,185.516 146.749,187.375 Q 146.749,189.234 147.202,190.266 Q 147.655,191.312 148.483,191.312 Q 149.249,191.312 149.671,190.547 Q 150.233,189.531 150.233,187.375 Q 150.233,185.484 149.78,184.484 Q 149.311,183.469 148.483,183.469 M 153.03,192 L 153.03,190.453 L 154.577,190.453 L 154.577,192 L 153.03,192 M 156.593,192.031 L 156.593,190.938 Q 157.546,191.312 158.327,191.312 Q 159.249,191.312 159.765,190.766 Q 160.296,190.234 160.296,189.312 Q 160.296,187.219 157.452,187.219 Q 157.108,187.219 156.749,187.266 L 156.749,182.781 L 161.405,182.781 L 161.405,183.844 L 157.827,183.844 L 157.827,186.281 Q 159.468,186.297 160.405,186.938 Q 161.593,187.766 161.593,189.359 Q 161.593,190.703 160.702,191.469 Q 159.78,192.234 158.202,192.234 Q 157.515,192.234 156.593,192.031 M 163.624,192 L 163.624,185.234 L 164.858,185.234 L 164.858,186.5 Q 165.405,185.688 165.749,185.406 Q 166.155,185.078 166.811,185.078 Q 167.624,185.078 168.124,185.609 Q 168.421,185.906 168.640,186.5 Q 169.186,185.672 169.53,185.406 Q 169.936,185.078 170.608,185.078 Q 172.421,185.078 172.421,187.078 L 172.421,192 L 171.186,192 L 171.186,187.266 Q 171.186,186.109 170.28,186.109 Q 169.483,186.109 168.640,187.469 L 168.640,192 L 167.405,192 L 167.405,187.266 Q 167.405,186.109 166.499,186.109 Q 165.702,186.109 164.858,187.469 L 164.858,192 L 163.624,192 M 174.108,192 L 174.108,185.234 L 175.343,185.234 L 175.343,192 L 174.108,192 M 174.108,184 L 174.108,182.781 L 175.343,182.781 L 175.343,184 L 174.108,184"></path></g><g fill="#366AFF" fill-rule="evenodd"><path d="M 140.171,184.438 Q 141.296,184.438 141.952,185.469 Q 142.608,186.5 142.608,188.281 Q 142.608,190.109 141.952,191.141 Q 141.296,192.188 140.140,192.188 Q 139.155,192.188 138.53,191.344 Q 137.733,190.281 137.733,188.297 Q 137.733,186.5 138.390,185.469 Q 139.046,184.438 140.171,184.438 M 140.171,185.172 Q 139.499,185.172 139.140,185.984 Q 138.78,186.812 138.78,188.297 Q 138.78,189.781 139.140,190.625 Q 139.499,191.453 140.171,191.453 Q 140.78,191.453 141.108,190.844 Q 141.561,190.031 141.561,188.297 Q 141.561,186.781 141.202,185.984 Q 140.827,185.172 140.171,185.172 M 143.811,192 L 143.811,190.766 L 145.046,190.766 L 145.046,192 L 143.811,192 M 146.671,192.031 L 146.671,191.156 Q 147.436,191.453 148.061,191.453 Q 148.796,191.453 149.218,191.016 Q 149.624,190.578 149.624,189.844 Q 149.624,188.172 147.358,188.172 Q 147.077,188.172 146.796,188.203 L 146.796,184.609 L 150.53,184.609 L 150.53,185.469 L 147.655,185.469 L 147.655,187.422 Q 148.983,187.438 149.718,187.953 Q 150.671,188.609 150.671,189.891 Q 150.671,190.969 149.952,191.578 Q 149.233,192.188 147.952,192.188 Q 147.405,192.188 146.671,192.031 M 152.311,192 L 152.311,186.578 L 153.296,186.578 L 153.296,187.594 Q 153.733,186.953 154.015,186.719 Q 154.343,186.469 154.858,186.469 Q 155.515,186.469 155.921,186.875 Q 156.155,187.125 156.327,187.594 Q 156.765,186.938 157.046,186.719 Q 157.358,186.469 157.905,186.469 Q 159.343,186.469 159.343,188.062 L 159.343,192 L 158.374,192 L 158.358,188.219 Q 158.358,187.281 157.640,187.281 Q 156.999,187.281 156.327,188.375 L 156.327,192 L 155.343,192 L 155.343,188.219 Q 155.343,187.281 154.608,187.281 Q 153.983,187.281 153.296,188.375 L 153.296,192 L 152.311,192 M 160.702,192 L 160.702,186.578 L 161.686,186.578 L 161.686,192 L 160.702,192 M 160.702,185.594 L 160.702,184.609 L 161.686,184.609 L 161.686,185.594 L 160.702,185.594"></path></g><g fill="#366AFF" fill-rule="evenodd" stroke="#366AFF" stroke-width="0.5" stroke-linecap="round" stroke-linejoin="round"><path d="M 263.134,177 L 263.134,183 Z"></path></g><g fill="rgba(0,0,0,0)" fill-rule="evenodd"><path d="M 256.275,192 L 256.275,191.266 L 257.759,191.266 L 257.759,185.438 L 256.275,185.797 L 256.275,185.047 L 258.743,184.438 L 258.743,191.266 L 260.228,191.266 L 260.228,192 L 256.275,192 M 261.587,192 L 261.587,186.578 L 262.571,186.578 L 262.571,187.594 Q 263.009,186.953 263.29,186.719 Q 263.618,186.469 264.134,186.469 Q 264.79,186.469 265.196,186.875 Q 265.431,187.125 265.603,187.594 Q 266.04,186.938 266.321,186.719 Q 266.634,186.469 267.181,186.469 Q 268.618,186.469 268.618,188.062 L 268.618,192 L 267.650,192 L 267.634,188.219 Q 267.634,187.281 266.915,187.281 Q 266.275,187.281 265.603,188.375 L 265.603,192 L 264.618,192 L 264.618,188.219 Q 264.618,187.281 263.884,187.281 Q 263.259,187.281 262.571,188.375 L 262.571,192 L 261.587,192 M 269.978,192 L 269.978,186.578 L 270.962,186.578 L 270.962,192 L 269.978,192 M 269.978,185.594 L 269.978,184.609 L 270.962,184.609 L 270.962,185.594 L 269.978,185.594"></path></g><g fill="#366AFF" fill-rule="evenodd"><path d="M 256.04,192 L 256.04,191.266 L 257.525,191.266 L 257.525,185.438 L 256.04,185.797 L 256.04,185.047 L 258.509,184.438 L 258.509,191.266 L 259.993,191.266 L 259.993,192 L 256.04,192 M 261.353,192 L 261.353,186.578 L 262.337,186.578 L 262.337,187.594 Q 262.775,186.953 263.056,186.719 Q 263.384,186.469 263.900,186.469 Q 264.556,186.469 264.962,186.875 Q 265.196,187.125 265.368,187.594 Q 265.806,186.938 266.087,186.719 Q 266.400,186.469 266.946,186.469 Q 268.384,186.469 268.384,188.062 L 268.384,192 L 267.415,192 L 267.400,188.219 Q 267.400,187.281 266.681,187.281 Q 266.04,187.281 265.368,188.375 L 265.368,192 L 264.384,192 L 264.384,188.219 Q 264.384,187.281 263.650,187.281 Q 263.025,187.281 262.337,188.375 L 262.337,192 L 261.353,192 M 269.743,192 L 269.743,186.578 L 270.728,186.578 L 270.728,192 L 269.743,192 M 269.743,185.594 L 269.743,184.609 L 270.728,184.609 L 270.728,185.594 L 269.743,185.594"></path></g><g fill="#366AFF" fill-rule="evenodd" stroke="#366AFF" stroke-width="0.5" stroke-linecap="round" stroke-linejoin="round"><path d="M 373.331,177 L 373.331,183 Z"></path></g><g fill="rgba(0,0,0,0)" fill-rule="evenodd"><path d="M 366.472,192 L 366.472,191.266 L 367.956,191.266 L 367.956,185.438 L 366.472,185.797 L 366.472,185.047 L 368.941,184.438 L 368.941,191.266 L 370.425,191.266 L 370.425,192 L 366.472,192 M 371.581,192 L 371.581,190.766 L 372.816,190.766 L 372.816,192 L 371.581,192 M 374.441,192.031 L 374.441,191.156 Q 375.206,191.453 375.831,191.453 Q 376.566,191.453 376.988,191.016 Q 377.394,190.578 377.394,189.844 Q 377.394,188.172 375.128,188.172 Q 374.847,188.172 374.566,188.203 L 374.566,184.609 L 378.3,184.609 L 378.3,185.469 L 375.425,185.469 L 375.425,187.422 Q 376.753,187.438 377.488,187.953 Q 378.441,188.609 378.441,189.891 Q 378.441,190.969 377.722,191.578 Q 377.003,192.188 375.722,192.188 Q 375.175,192.188 374.441,192.031 M 380.081,192 L 380.081,186.578 L 381.066,186.578 L 381.066,187.594 Q 381.503,186.953 381.785,186.719 Q 382.113,186.469 382.628,186.469 Q 383.285,186.469 383.691,186.875 Q 383.925,187.125 384.097,187.594 Q 384.535,186.938 384.816,186.719 Q 385.128,186.469 385.675,186.469 Q 387.113,186.469 387.113,188.062 L 387.113,192 L 386.144,192 L 386.128,188.219 Q 386.128,187.281 385.410,187.281 Q 384.769,187.281 384.097,188.375 L 384.097,192 L 383.113,192 L 383.113,188.219 Q 383.113,187.281 382.378,187.281 Q 381.753,187.281 381.066,188.375 L 381.066,192 L 380.081,192 M 388.472,192 L 388.472,186.578 L 389.456,186.578 L 389.456,192 L 388.472,192 M 388.472,185.594 L 388.472,184.609 L 389.456,184.609 L 389.456,185.594 L 388.472,185.594"></path></g><g fill="#366AFF" fill-rule="evenodd"><path d="M 362.089,192 L 362.089,191.266 L 363.574,191.266 L 363.574,185.438 L 362.089,185.797 L 362.089,185.047 L 364.558,184.438 L 364.558,191.266 L 366.042,191.266 L 366.042,192 L 362.089,192 M 367.199,192 L 367.199,190.766 L 368.433,190.766 L 368.433,192 L 367.199,192 M 370.058,192.031 L 370.058,191.156 Q 370.824,191.453 371.449,191.453 Q 372.183,191.453 372.605,191.016 Q 373.011,190.578 373.011,189.844 Q 373.011,188.172 370.745,188.172 Q 370.464,188.172 370.183,188.203 L 370.183,184.609 L 373.917,184.609 L 373.917,185.469 L 371.042,185.469 L 371.042,187.422 Q 372.37,187.438 373.105,187.953 Q 374.058,188.609 374.058,189.891 Q 374.058,190.969 373.339,191.578 Q 372.62,192.188 371.339,192.188 Q 370.792,192.188 370.058,192.031 M 375.699,192 L 375.699,186.578 L 376.683,186.578 L 376.683,187.594 Q 377.12,186.953 377.402,186.719 Q 377.730,186.469 378.245,186.469 Q 378.902,186.469 379.308,186.875 Q 379.542,187.125 379.714,187.594 Q 380.152,186.938 380.433,186.719 Q 380.745,186.469 381.292,186.469 Q 382.730,186.469 382.730,188.062 L 382.730,192 L 381.761,192 L 381.745,188.219 Q 381.745,187.281 381.027,187.281 Q 380.386,187.281 379.714,188.375 L 379.714,192 L 378.730,192 L 378.730,188.219 Q 378.730,187.281 377.995,187.281 Q 377.37,187.281 376.683,188.375 L 376.683,192 L 375.699,192 M 384.089,192 L 384.089,186.578 L 385.074,186.578 L 385.074,192 L 384.089,192 M 384.089,185.594 L 384.089,184.609 L 385.074,184.609 L 385.074,185.594 L 384.089,185.594"></path></g><g fill="#366AFF" fill-rule="evenodd" stroke="#366AFF" stroke-width="0.5" stroke-linecap="round" stroke-linejoin="round"><path d="M 483.529,177 L 483.529,183 Z"></path></g><g fill="rgba(0,0,0,0)" fill-rule="evenodd"><path d="M 476.045,192 L 476.045,191.141 Q 476.373,190.344 477.185,189.5 L 477.732,188.953 L 478.216,188.453 Q 479.170,187.469 479.170,186.469 Q 479.170,185.766 478.81,185.438 Q 478.513,185.172 477.982,185.172 Q 477.295,185.172 476.216,185.766 L 476.216,184.891 Q 477.232,184.438 478.107,184.438 Q 479.076,184.438 479.654,185 Q 480.216,185.547 480.216,186.5 Q 480.216,187.156 479.935,187.656 Q 479.623,188.172 478.81,188.906 L 478.466,189.219 Q 477.435,190.156 477.232,191.141 L 480.185,191.141 L 480.185,192 L 476.045,192 M 481.982,192 L 481.982,186.578 L 482.966,186.578 L 482.966,187.594 Q 483.404,186.953 483.685,186.719 Q 484.013,186.469 484.529,186.469 Q 485.185,186.469 485.591,186.875 Q 485.826,187.125 485.998,187.594 Q 486.435,186.938 486.716,186.719 Q 487.029,186.469 487.576,186.469 Q 489.013,186.469 489.013,188.062 L 489.013,192 L 488.045,192 L 488.029,188.219 Q 488.029,187.281 487.31,187.281 Q 486.670,187.281 485.998,188.375 L 485.998,192 L 485.013,192 L 485.013,188.219 Q 485.013,187.281 484.279,187.281 Q 483.654,187.281 482.966,188.375 L 482.966,192 L 481.982,192 M 490.373,192 L 490.373,186.578 L 491.357,186.578 L 491.357,192 L 490.373,192 M 490.373,185.594 L 490.373,184.609 L 491.357,184.609 L 491.357,185.594 L 490.373,185.594"></path></g><g fill="#366AFF" fill-rule="evenodd"><path d="M 475.81,192 L 475.81,191.141 Q 476.138,190.344 476.951,189.5 L 477.498,188.953 L 477.982,188.453 Q 478.935,187.469 478.935,186.469 Q 478.935,185.766 478.576,185.438 Q 478.279,185.172 477.748,185.172 Q 477.06,185.172 475.982,185.766 L 475.982,184.891 Q 476.998,184.438 477.873,184.438 Q 478.841,184.438 479.420,185 Q 479.982,185.547 479.982,186.5 Q 479.982,187.156 479.701,187.656 Q 479.388,188.172 478.576,188.906 L 478.232,189.219 Q 477.201,190.156 476.998,191.141 L 479.951,191.141 L 479.951,192 L 475.81,192 M 481.748,192 L 481.748,186.578 L 482.732,186.578 L 482.732,187.594 Q 483.170,186.953 483.451,186.719 Q 483.779,186.469 484.295,186.469 Q 484.951,186.469 485.357,186.875 Q 485.591,187.125 485.763,187.594 Q 486.201,186.938 486.482,186.719 Q 486.795,186.469 487.341,186.469 Q 488.779,186.469 488.779,188.062 L 488.779,192 L 487.81,192 L 487.795,188.219 Q 487.795,187.281 487.076,187.281 Q 486.435,187.281 485.763,188.375 L 485.763,192 L 484.779,192 L 484.779,188.219 Q 484.779,187.281 484.045,187.281 Q 483.420,187.281 482.732,188.375 L 482.732,192 L 481.748,192 M 490.138,192 L 490.138,186.578 L 491.123,186.578 L 491.123,192 L 490.138,192 M 490.138,185.594 L 490.138,184.609 L 491.123,184.609 L 491.123,185.594 L 490.138,185.594"></path></g><g fill="#366AFF" fill-rule="evenodd" stroke="#366AFF" stroke-width="0.5" stroke-linecap="round" stroke-linejoin="round"><path d="M 593.726,177 L 593.726,183 Z"></path></g><g fill="rgba(0,0,0,0)" fill-rule="evenodd"><path d="M 586.242,192 L 586.242,191.141 Q 586.57,190.344 587.383,189.5 L 587.930,188.953 L 588.414,188.453 Q 589.367,187.469 589.367,186.469 Q 589.367,185.766 589.008,185.438 Q 588.711,185.172 588.180,185.172 Q 587.492,185.172 586.414,185.766 L 586.414,184.891 Q 587.430,184.438 588.305,184.438 Q 589.273,184.438 589.851,185 Q 590.414,185.547 590.414,186.5 Q 590.414,187.156 590.133,187.656 Q 589.82,188.172 589.008,188.906 L 588.664,189.219 Q 587.633,190.156 587.430,191.141 L 590.383,191.141 L 590.383,192 L 586.242,192 M 592.211,192 L 592.211,190.766 L 593.445,190.766 L 593.445,192 L 592.211,192 M 595.07,192.031 L 595.07,191.156 Q 595.836,191.453 596.461,191.453 Q 597.195,191.453 597.617,191.016 Q 598.023,190.578 598.023,189.844 Q 598.023,188.172 595.758,188.172 Q 595.476,188.172 595.195,188.203 L 595.195,184.609 L 598.930,184.609 L 598.930,185.469 L 596.055,185.469 L 596.055,187.422 Q 597.383,187.438 598.117,187.953 Q 599.07,188.609 599.07,189.891 Q 599.07,190.969 598.351,191.578 Q 597.633,192.188 596.351,192.188 Q 595.805,192.188 595.07,192.031 M 600.711,192 L 600.711,186.578 L 601.695,186.578 L 601.695,187.594 Q 602.133,186.953 602.414,186.719 Q 602.742,186.469 603.258,186.469 Q 603.914,186.469 604.32,186.875 Q 604.555,187.125 604.726,187.594 Q 605.164,186.938 605.445,186.719 Q 605.758,186.469 606.305,186.469 Q 607.742,186.469 607.742,188.062 L 607.742,192 L 606.773,192 L 606.758,188.219 Q 606.758,187.281 606.039,187.281 Q 605.398,187.281 604.726,188.375 L 604.726,192 L 603.742,192 L 603.742,188.219 Q 603.742,187.281 603.008,187.281 Q 602.383,187.281 601.695,188.375 L 601.695,192 L 600.711,192 M 609.101,192 L 609.101,186.578 L 610.086,186.578 L 610.086,192 L 609.101,192 M 609.101,185.594 L 609.101,184.609 L 610.086,184.609 L 610.086,185.594 L 609.101,185.594"></path></g><g fill="#366AFF" fill-rule="evenodd"><path d="M 581.742,192 L 581.742,191.141 Q 582.07,190.344 582.883,189.5 L 583.430,188.953 L 583.914,188.453 Q 584.867,187.469 584.867,186.469 Q 584.867,185.766 584.508,185.438 Q 584.211,185.172 583.680,185.172 Q 582.992,185.172 581.914,185.766 L 581.914,184.891 Q 582.930,184.438 583.805,184.438 Q 584.773,184.438 585.351,185 Q 585.914,185.547 585.914,186.5 Q 585.914,187.156 585.633,187.656 Q 585.32,188.172 584.508,188.906 L 584.164,189.219 Q 583.133,190.156 582.930,191.141 L 585.883,191.141 L 585.883,192 L 581.742,192 M 587.711,192 L 587.711,190.766 L 588.945,190.766 L 588.945,192 L 587.711,192 M 590.57,192.031 L 590.57,191.156 Q 591.336,191.453 591.961,191.453 Q 592.695,191.453 593.117,191.016 Q 593.523,190.578 593.523,189.844 Q 593.523,188.172 591.258,188.172 Q 590.976,188.172 590.695,188.203 L 590.695,184.609 L 594.430,184.609 L 594.430,185.469 L 591.555,185.469 L 591.555,187.422 Q 592.883,187.438 593.617,187.953 Q 594.57,188.609 594.57,189.891 Q 594.57,190.969 593.851,191.578 Q 593.133,192.188 591.851,192.188 Q 591.305,192.188 590.57,192.031 M 596.211,192 L 596.211,186.578 L 597.195,186.578 L 597.195,187.594 Q 597.633,186.953 597.914,186.719 Q 598.242,186.469 598.758,186.469 Q 599.414,186.469 599.82,186.875 Q 600.055,187.125 600.226,187.594 Q 600.664,186.938 600.945,186.719 Q 601.258,186.469 601.805,186.469 Q 603.242,186.469 603.242,188.062 L 603.242,192 L 602.273,192 L 602.258,188.219 Q 602.258,187.281 601.539,187.281 Q 600.898,187.281 600.226,188.375 L 600.226,192 L 599.242,192 L 599.242,188.219 Q 599.242,187.281 598.508,187.281 Q 597.883,187.281 597.195,188.375 L 597.195,192 L 596.211,192 M 604.601,192 L 604.601,186.578 L 605.586,186.578 L 605.586,192 L 604.601,192 M 604.601,185.594 L 604.601,184.609 L 605.586,184.609 L 605.586,185.594 L 604.601,185.594"></path></g><g fill="#366AFF" fill-rule="evenodd" stroke="#366AFF" stroke-width="0.5" stroke-linecap="round" stroke-linejoin="round"><path d="M 703.924,177 L 703.924,183 Z"></path></g><g fill="rgba(0,0,0,0)" fill-rule="evenodd"><path d="M 696.690,191.938 L 696.690,191.031 L 696.721,191.047 Q 696.846,191.094 696.908,191.109 Q 697.455,191.312 697.643,191.359 Q 697.971,191.453 698.236,191.453 Q 698.986,191.453 699.361,191.031 Q 699.690,190.672 699.690,190 Q 699.690,189.234 699.190,188.828 Q 698.690,188.406 697.768,188.406 L 697.377,188.406 L 697.377,187.75 L 697.705,187.75 Q 698.565,187.734 699.033,187.344 Q 699.518,186.953 699.518,186.281 Q 699.518,185.172 698.33,185.172 Q 697.705,185.172 696.783,185.578 L 696.783,184.719 Q 697.690,184.438 698.377,184.438 Q 699.58,184.438 700.111,185 Q 700.502,185.422 700.502,186.125 Q 700.502,186.922 699.940,187.438 Q 699.611,187.75 698.955,188 Q 699.533,188.141 699.815,188.312 Q 700.736,188.844 700.736,189.969 Q 700.736,190.969 700.08,191.578 Q 699.424,192.188 698.33,192.188 Q 697.752,192.188 696.690,191.938 M 702.377,192 L 702.377,186.578 L 703.361,186.578 L 703.361,187.594 Q 703.799,186.953 704.08,186.719 Q 704.408,186.469 704.924,186.469 Q 705.58,186.469 705.986,186.875 Q 706.221,187.125 706.393,187.594 Q 706.83,186.938 707.111,186.719 Q 707.424,186.469 707.971,186.469 Q 709.408,186.469 709.408,188.062 L 709.408,192 L 708.440,192 L 708.424,188.219 Q 708.424,187.281 707.705,187.281 Q 707.065,187.281 706.393,188.375 L 706.393,192 L 705.408,192 L 705.408,188.219 Q 705.408,187.281 704.674,187.281 Q 704.049,187.281 703.361,188.375 L 703.361,192 L 702.377,192 M 710.768,192 L 710.768,186.578 L 711.752,186.578 L 711.752,192 L 710.768,192 M 710.768,185.594 L 710.768,184.609 L 711.752,184.609 L 711.752,185.594 L 710.768,185.594"></path></g><g fill="#366AFF" fill-rule="evenodd"><path d="M 696.455,191.938 L 696.455,191.031 L 696.486,191.047 Q 696.611,191.094 696.674,191.109 Q 697.221,191.312 697.408,191.359 Q 697.736,191.453 698.002,191.453 Q 698.752,191.453 699.127,191.031 Q 699.455,190.672 699.455,190 Q 699.455,189.234 698.955,188.828 Q 698.455,188.406 697.533,188.406 L 697.143,188.406 L 697.143,187.75 L 697.471,187.75 Q 698.33,187.734 698.799,187.344 Q 699.283,186.953 699.283,186.281 Q 699.283,185.172 698.096,185.172 Q 697.471,185.172 696.549,185.578 L 696.549,184.719 Q 697.455,184.438 698.143,184.438 Q 699.346,184.438 699.877,185 Q 700.268,185.422 700.268,186.125 Q 700.268,186.922 699.705,187.438 Q 699.377,187.75 698.721,188 Q 699.299,188.141 699.58,188.312 Q 700.502,188.844 700.502,189.969 Q 700.502,190.969 699.846,191.578 Q 699.190,192.188 698.096,192.188 Q 697.518,192.188 696.455,191.938 M 702.143,192 L 702.143,186.578 L 703.127,186.578 L 703.127,187.594 Q 703.565,186.953 703.846,186.719 Q 704.174,186.469 704.690,186.469 Q 705.346,186.469 705.752,186.875 Q 705.986,187.125 706.158,187.594 Q 706.596,186.938 706.877,186.719 Q 707.190,186.469 707.736,186.469 Q 709.174,186.469 709.174,188.062 L 709.174,192 L 708.205,192 L 708.190,188.219 Q 708.190,187.281 707.471,187.281 Q 706.83,187.281 706.158,188.375 L 706.158,192 L 705.174,192 L 705.174,188.219 Q 705.174,187.281 704.440,187.281 Q 703.815,187.281 703.127,188.375 L 703.127,192 L 702.143,192 M 710.533,192 L 710.533,186.578 L 711.518,186.578 L 711.518,192 L 710.533,192 M 710.533,185.594 L 710.533,184.609 L 711.518,184.609 L 711.518,185.594 L 710.533,185.594"></path></g><g fill="#366AFF" fill-rule="evenodd" stroke="#366AFF" stroke-width="0.5" stroke-linecap="round" stroke-linejoin="round"><path d="M 814.121,177 L 814.121,183 Z"></path></g><g fill="rgba(0,0,0,0)" fill-rule="evenodd"><path d="M 806.887,191.938 L 806.887,191.031 L 806.918,191.047 Q 807.043,191.094 807.106,191.109 Q 807.653,191.312 807.84,191.359 Q 808.168,191.453 808.434,191.453 Q 809.184,191.453 809.559,191.031 Q 809.887,190.672 809.887,190 Q 809.887,189.234 809.387,188.828 Q 808.887,188.406 807.965,188.406 L 807.575,188.406 L 807.575,187.75 L 807.903,187.75 Q 808.762,187.734 809.231,187.344 Q 809.715,186.953 809.715,186.281 Q 809.715,185.172 808.528,185.172 Q 807.903,185.172 806.981,185.578 L 806.981,184.719 Q 807.887,184.438 808.575,184.438 Q 809.778,184.438 810.309,185 Q 810.700,185.422 810.700,186.125 Q 810.700,186.922 810.137,187.438 Q 809.809,187.75 809.153,188 Q 809.731,188.141 810.012,188.312 Q 810.934,188.844 810.934,189.969 Q 810.934,190.969 810.278,191.578 Q 809.621,192.188 808.528,192.188 Q 807.950,192.188 806.887,191.938 M 812.606,192 L 812.606,190.766 L 813.84,190.766 L 813.84,192 L 812.606,192 M 815.465,192.031 L 815.465,191.156 Q 816.231,191.453 816.856,191.453 Q 817.59,191.453 818.012,191.016 Q 818.418,190.578 818.418,189.844 Q 818.418,188.172 816.153,188.172 Q 815.871,188.172 815.59,188.203 L 815.59,184.609 L 819.325,184.609 L 819.325,185.469 L 816.450,185.469 L 816.450,187.422 Q 817.778,187.438 818.512,187.953 Q 819.465,188.609 819.465,189.891 Q 819.465,190.969 818.746,191.578 Q 818.028,192.188 816.746,192.188 Q 816.200,192.188 815.465,192.031 M 821.106,192 L 821.106,186.578 L 822.09,186.578 L 822.09,187.594 Q 822.528,186.953 822.809,186.719 Q 823.137,186.469 823.653,186.469 Q 824.309,186.469 824.715,186.875 Q 824.950,187.125 825.121,187.594 Q 825.559,186.938 825.84,186.719 Q 826.153,186.469 826.700,186.469 Q 828.137,186.469 828.137,188.062 L 828.137,192 L 827.168,192 L 827.153,188.219 Q 827.153,187.281 826.434,187.281 Q 825.793,187.281 825.121,188.375 L 825.121,192 L 824.137,192 L 824.137,188.219 Q 824.137,187.281 823.403,187.281 Q 822.778,187.281 822.09,188.375 L 822.09,192 L 821.106,192 M 829.496,192 L 829.496,186.578 L 830.481,186.578 L 830.481,192 L 829.496,192 M 829.496,185.594 L 829.496,184.609 L 830.481,184.609 L 830.481,185.594 L 829.496,185.594"></path></g><g fill="#366AFF" fill-rule="evenodd"><path d="M 802.387,191.938 L 802.387,191.031 L 802.418,191.047 Q 802.543,191.094 802.606,191.109 Q 803.153,191.312 803.34,191.359 Q 803.668,191.453 803.934,191.453 Q 804.684,191.453 805.059,191.031 Q 805.387,190.672 805.387,190 Q 805.387,189.234 804.887,188.828 Q 804.387,188.406 803.465,188.406 L 803.075,188.406 L 803.075,187.75 L 803.403,187.75 Q 804.262,187.734 804.731,187.344 Q 805.215,186.953 805.215,186.281 Q 805.215,185.172 804.028,185.172 Q 803.403,185.172 802.481,185.578 L 802.481,184.719 Q 803.387,184.438 804.075,184.438 Q 805.278,184.438 805.809,185 Q 806.200,185.422 806.200,186.125 Q 806.200,186.922 805.637,187.438 Q 805.309,187.75 804.653,188 Q 805.231,188.141 805.512,188.312 Q 806.434,188.844 806.434,189.969 Q 806.434,190.969 805.778,191.578 Q 805.121,192.188 804.028,192.188 Q 803.450,192.188 802.387,191.938 M 808.106,192 L 808.106,190.766 L 809.34,190.766 L 809.34,192 L 808.106,192 M 810.965,192.031 L 810.965,191.156 Q 811.731,191.453 812.356,191.453 Q 813.09,191.453 813.512,191.016 Q 813.918,190.578 813.918,189.844 Q 813.918,188.172 811.653,188.172 Q 811.371,188.172 811.09,188.203 L 811.09,184.609 L 814.825,184.609 L 814.825,185.469 L 811.950,185.469 L 811.950,187.422 Q 813.278,187.438 814.012,187.953 Q 814.965,188.609 814.965,189.891 Q 814.965,190.969 814.246,191.578 Q 813.528,192.188 812.246,192.188 Q 811.700,192.188 810.965,192.031 M 816.606,192 L 816.606,186.578 L 817.59,186.578 L 817.59,187.594 Q 818.028,186.953 818.309,186.719 Q 818.637,186.469 819.153,186.469 Q 819.809,186.469 820.215,186.875 Q 820.450,187.125 820.621,187.594 Q 821.059,186.938 821.34,186.719 Q 821.653,186.469 822.200,186.469 Q 823.637,186.469 823.637,188.062 L 823.637,192 L 822.668,192 L 822.653,188.219 Q 822.653,187.281 821.934,187.281 Q 821.293,187.281 820.621,188.375 L 820.621,192 L 819.637,192 L 819.637,188.219 Q 819.637,187.281 818.903,187.281 Q 818.278,187.281 817.59,188.375 L 817.59,192 L 816.606,192 M 824.996,192 L 824.996,186.578 L 825.981,186.578 L 825.981,192 L 824.996,192 M 824.996,185.594 L 824.996,184.609 L 825.981,184.609 L 825.981,185.594 L 824.996,185.594"></path></g><g fill="#366AFF" fill-rule="evenodd" stroke="#366AFF" stroke-width="0.5" stroke-linecap="round" stroke-linejoin="round"><path d="M 40,180 L 40,0 Z"></path></g><g fill="#366AFF" fill-rule="evenodd" stroke="#366AFF" stroke-width="0.5" stroke-linecap="round" stroke-linejoin="round"><path d="M 37,170.968 L 43,170.968 Z"></path></g><g fill="rgba(0,0,0,0)" fill-rule="evenodd"><path d="M 32.516,182.968 L 32.516,182.108 Q 32.844,181.311 33.656,180.468 L 34.203,179.921 L 34.688,179.421 Q 35.641,178.436 35.641,177.436 Q 35.641,176.733 35.281,176.405 Q 34.984,176.140 34.453,176.140 Q 33.766,176.140 32.688,176.733 L 32.688,175.858 Q 33.703,175.405 34.578,175.405 Q 35.547,175.405 36.125,175.968 Q 36.688,176.515 36.688,177.468 Q 36.688,178.124 36.406,178.624 Q 36.094,179.140 35.281,179.874 L 34.938,180.186 Q 33.906,181.124 33.703,182.108 L 36.656,182.108 L 36.656,182.968 L 32.516,182.968 M 38.5,182.999 L 38.5,182.124 Q 39.266,182.421 39.891,182.421 Q 40.625,182.421 41.047,181.983 Q 41.453,181.546 41.453,180.811 Q 41.453,179.140 39.188,179.140 Q 38.906,179.140 38.625,179.171 L 38.625,175.577 L 42.359,175.577 L 42.359,176.436 L 39.484,176.436 L 39.484,178.390 Q 40.812,178.405 41.547,178.921 Q 42.5,179.577 42.5,180.858 Q 42.5,181.936 41.781,182.546 Q 41.062,183.155 39.781,183.155 Q 39.234,183.155 38.5,182.999 M 46.219,175.405 Q 47.344,175.405 48,176.436 Q 48.656,177.468 48.656,179.249 Q 48.656,181.077 48,182.108 Q 47.344,183.155 46.188,183.155 Q 45.203,183.155 44.578,182.311 Q 43.781,181.249 43.781,179.265 Q 43.781,177.468 44.438,176.436 Q 45.094,175.405 46.219,175.405 M 46.219,176.140 Q 45.547,176.140 45.188,176.952 Q 44.828,177.78 44.828,179.265 Q 44.828,180.749 45.188,181.593 Q 45.547,182.421 46.219,182.421 Q 46.828,182.421 47.156,181.811 Q 47.609,180.999 47.609,179.265 Q 47.609,177.749 47.25,176.952 Q 46.875,176.140 46.219,176.140 M 51.906,175.405 Q 53.031,175.405 53.688,176.436 Q 54.344,177.468 54.344,179.249 Q 54.344,181.077 53.688,182.108 Q 53.031,183.155 51.875,183.155 Q 50.891,183.155 50.266,182.311 Q 49.469,181.249 49.469,179.265 Q 49.469,177.468 50.125,176.436 Q 50.781,175.405 51.906,175.405 M 51.906,176.140 Q 51.234,176.140 50.875,176.952 Q 50.516,177.78 50.516,179.265 Q 50.516,180.749 50.875,181.593 Q 51.234,182.421 51.906,182.421 Q 52.516,182.421 52.844,181.811 Q 53.297,180.999 53.297,179.265 Q 53.297,177.749 52.938,176.952 Q 52.562,176.140 51.906,176.140 M 55.625,182.968 L 55.625,178.28 L 54.906,178.28 L 54.906,177.546 L 55.625,177.546 L 55.625,176.905 Q 55.625,174.968 57.156,174.968 Q 57.484,174.968 57.891,175.093 L 57.891,175.874 Q 57.531,175.702 57.266,175.702 Q 56.906,175.702 56.75,175.952 Q 56.609,176.186 56.609,176.796 L 56.609,177.546 L 57.578,177.546 L 57.578,178.28 L 56.609,178.28 L 56.609,182.968 L 55.625,182.968 M 60.578,182.999 Q 60.281,183.093 60.016,183.093 Q 58.703,183.093 58.703,181.468 L 58.703,178.28 L 58.078,178.28 L 58.078,177.546 L 58.703,177.546 L 58.703,176.561 L 59.672,176.468 L 59.672,177.546 L 60.734,177.546 L 60.734,178.28 L 59.672,178.28 L 59.672,181.296 Q 59.672,181.936 59.781,182.140 Q 59.891,182.358 60.25,182.358 Q 60.438,182.358 60.578,182.296 L 60.578,182.999"></path></g><g fill="#366AFF" fill-rule="evenodd"><path d="M 7.734,174.968 L 7.734,174.108 Q 8.062,173.311 8.875,172.468 L 9.422,171.921 L 9.906,171.421 Q 10.859,170.436 10.859,169.436 Q 10.859,168.733 10.5,168.405 Q 10.203,168.140 9.672,168.140 Q 8.984,168.140 7.906,168.733 L 7.906,167.858 Q 8.922,167.405 9.797,167.405 Q 10.766,167.405 11.344,167.968 Q 11.906,168.515 11.906,169.468 Q 11.906,170.124 11.625,170.624 Q 11.312,171.140 10.5,171.874 L 10.156,172.186 Q 9.125,173.124 8.922,174.108 L 11.875,174.108 L 11.875,174.968 L 7.734,174.968 M 13.719,174.999 L 13.719,174.124 Q 14.484,174.421 15.109,174.421 Q 15.844,174.421 16.266,173.983 Q 16.672,173.546 16.672,172.811 Q 16.672,171.140 14.406,171.140 Q 14.125,171.140 13.844,171.171 L 13.844,167.577 L 17.578,167.577 L 17.578,168.436 L 14.703,168.436 L 14.703,170.390 Q 16.031,170.405 16.766,170.921 Q 17.719,171.577 17.719,172.858 Q 17.719,173.936 17,174.546 Q 16.281,175.155 15,175.155 Q 14.453,175.155 13.719,174.999 M 21.438,167.405 Q 22.562,167.405 23.219,168.436 Q 23.875,169.468 23.875,171.249 Q 23.875,173.077 23.219,174.108 Q 22.562,175.155 21.406,175.155 Q 20.422,175.155 19.797,174.311 Q 19,173.249 19,171.265 Q 19,169.468 19.656,168.436 Q 20.312,167.405 21.438,167.405 M 21.438,168.140 Q 20.766,168.140 20.406,168.952 Q 20.047,169.78 20.047,171.265 Q 20.047,172.749 20.406,173.593 Q 20.766,174.421 21.438,174.421 Q 22.047,174.421 22.375,173.811 Q 22.828,172.999 22.828,171.265 Q 22.828,169.749 22.469,168.952 Q 22.094,168.140 21.438,168.140 M 27.125,167.405 Q 28.25,167.405 28.906,168.436 Q 29.562,169.468 29.562,171.249 Q 29.562,173.077 28.906,174.108 Q 28.25,175.155 27.094,175.155 Q 26.109,175.155 25.484,174.311 Q 24.688,173.249 24.688,171.265 Q 24.688,169.468 25.344,168.436 Q 26,167.405 27.125,167.405 M 27.125,168.140 Q 26.453,168.140 26.094,168.952 Q 25.734,169.78 25.734,171.265 Q 25.734,172.749 26.094,173.593 Q 26.453,174.421 27.125,174.421 Q 27.734,174.421 28.062,173.811 Q 28.516,172.999 28.516,171.265 Q 28.516,169.749 28.156,168.952 Q 27.781,168.140 27.125,168.140 M 30.844,174.968 L 30.844,170.28 L 30.125,170.28 L 30.125,169.546 L 30.844,169.546 L 30.844,168.905 Q 30.844,166.968 32.375,166.968 Q 32.703,166.968 33.109,167.093 L 33.109,167.874 Q 32.75,167.702 32.484,167.702 Q 32.125,167.702 31.969,167.952 Q 31.828,168.186 31.828,168.796 L 31.828,169.546 L 32.797,169.546 L 32.797,170.28 L 31.828,170.28 L 31.828,174.968 L 30.844,174.968 M 35.797,174.999 Q 35.5,175.093 35.234,175.093 Q 33.922,175.093 33.922,173.468 L 33.922,170.28 L 33.297,170.28 L 33.297,169.546 L 33.922,169.546 L 33.922,168.561 L 34.891,168.468 L 34.891,169.546 L 35.953,169.546 L 35.953,170.28 L 34.891,170.28 L 34.891,173.296 Q 34.891,173.936 35,174.140 Q 35.109,174.358 35.469,174.358 Q 35.656,174.358 35.797,174.296 L 35.797,174.999"></path></g><g fill="#366AFF" fill-rule="evenodd" stroke="#366AFF" stroke-width="0.5" stroke-linecap="round" stroke-linejoin="round"><path d="M 37,151.303 L 43,151.303 Z"></path></g><g fill="rgba(0,0,0,0)" fill-rule="evenodd"><path d="M 32.516,163.303 L 32.516,162.444 Q 32.844,161.647 33.656,160.803 L 34.203,160.256 L 34.688,159.756 Q 35.641,158.772 35.641,157.772 Q 35.641,157.069 35.281,156.741 Q 34.984,156.475 34.453,156.475 Q 33.766,156.475 32.688,157.069 L 32.688,156.194 Q 33.703,155.741 34.578,155.741 Q 35.547,155.741 36.125,156.303 Q 36.688,156.85 36.688,157.803 Q 36.688,158.459 36.406,158.959 Q 36.094,159.475 35.281,160.209 L 34.938,160.522 Q 33.906,161.459 33.703,162.444 L 36.656,162.444 L 36.656,163.303 L 32.516,163.303 M 39.172,159.428 Q 39.859,158.569 40.859,158.569 Q 41.766,158.569 42.281,159.178 Q 42.812,159.803 42.812,160.881 Q 42.812,162.084 42.188,162.788 Q 41.578,163.491 40.531,163.491 Q 39.406,163.491 38.75,162.522 Q 38.109,161.553 38.109,159.85 Q 38.109,157.913 38.875,156.819 Q 39.656,155.725 41.016,155.725 Q 41.656,155.725 42.406,156.006 L 42.406,156.866 Q 41.516,156.475 41,156.475 Q 39.891,156.475 39.453,157.569 Q 39.281,158.022 39.219,158.553 Q 39.188,158.85 39.172,159.428 M 40.594,159.272 Q 39.969,159.272 39.594,159.694 Q 39.203,160.131 39.203,160.866 Q 39.203,161.678 39.609,162.209 Q 40,162.756 40.625,162.756 Q 41.844,162.756 41.844,161.084 Q 41.844,159.272 40.594,159.272 M 46.219,155.741 Q 47.344,155.741 48,156.772 Q 48.656,157.803 48.656,159.584 Q 48.656,161.413 48,162.444 Q 47.344,163.491 46.188,163.491 Q 45.203,163.491 44.578,162.647 Q 43.781,161.584 43.781,159.6 Q 43.781,157.803 44.438,156.772 Q 45.094,155.741 46.219,155.741 M 46.219,156.475 Q 45.547,156.475 45.188,157.288 Q 44.828,158.116 44.828,159.6 Q 44.828,161.084 45.188,161.928 Q 45.547,162.756 46.219,162.756 Q 46.828,162.756 47.156,162.147 Q 47.609,161.334 47.609,159.6 Q 47.609,158.084 47.25,157.288 Q 46.875,156.475 46.219,156.475 M 51.906,155.741 Q 53.031,155.741 53.688,156.772 Q 54.344,157.803 54.344,159.584 Q 54.344,161.413 53.688,162.444 Q 53.031,163.491 51.875,163.491 Q 50.891,163.491 50.266,162.647 Q 49.469,161.584 49.469,159.6 Q 49.469,157.803 50.125,156.772 Q 50.781,155.741 51.906,155.741 M 51.906,156.475 Q 51.234,156.475 50.875,157.288 Q 50.516,158.116 50.516,159.6 Q 50.516,161.084 50.875,161.928 Q 51.234,162.756 51.906,162.756 Q 52.516,162.756 52.844,162.147 Q 53.297,161.334 53.297,159.6 Q 53.297,158.084 52.938,157.288 Q 52.562,156.475 51.906,156.475 M 55.625,163.303 L 55.625,158.616 L 54.906,158.616 L 54.906,157.881 L 55.625,157.881 L 55.625,157.241 Q 55.625,155.303 57.156,155.303 Q 57.484,155.303 57.891,155.428 L 57.891,156.209 Q 57.531,156.038 57.266,156.038 Q 56.906,156.038 56.75,156.288 Q 56.609,156.522 56.609,157.131 L 56.609,157.881 L 57.578,157.881 L 57.578,158.616 L 56.609,158.616 L 56.609,163.303 L 55.625,163.303 M 60.578,163.334 Q 60.281,163.428 60.016,163.428 Q 58.703,163.428 58.703,161.803 L 58.703,158.616 L 58.078,158.616 L 58.078,157.881 L 58.703,157.881 L 58.703,156.897 L 59.672,156.803 L 59.672,157.881 L 60.734,157.881 L 60.734,158.616 L 59.672,158.616 L 59.672,161.631 Q 59.672,162.272 59.781,162.475 Q 59.891,162.694 60.25,162.694 Q 60.438,162.694 60.578,162.631 L 60.578,163.334"></path></g><g fill="#366AFF" fill-rule="evenodd"><path d="M 7.734,155.303 L 7.734,154.444 Q 8.062,153.647 8.875,152.803 L 9.422,152.256 L 9.906,151.756 Q 10.859,150.772 10.859,149.772 Q 10.859,149.069 10.5,148.741 Q 10.203,148.475 9.672,148.475 Q 8.984,148.475 7.906,149.069 L 7.906,148.194 Q 8.922,147.741 9.797,147.741 Q 10.766,147.741 11.344,148.303 Q 11.906,148.85 11.906,149.803 Q 11.906,150.459 11.625,150.959 Q 11.312,151.475 10.5,152.209 L 10.156,152.522 Q 9.125,153.459 8.922,154.444 L 11.875,154.444 L 11.875,155.303 L 7.734,155.303 M 14.391,151.428 Q 15.078,150.569 16.078,150.569 Q 16.984,150.569 17.5,151.178 Q 18.031,151.803 18.031,152.881 Q 18.031,154.084 17.406,154.788 Q 16.797,155.491 15.75,155.491 Q 14.625,155.491 13.969,154.522 Q 13.328,153.553 13.328,151.85 Q 13.328,149.913 14.094,148.819 Q 14.875,147.725 16.234,147.725 Q 16.875,147.725 17.625,148.006 L 17.625,148.866 Q 16.734,148.475 16.219,148.475 Q 15.109,148.475 14.672,149.569 Q 14.5,150.022 14.438,150.553 Q 14.406,150.85 14.391,151.428 M 15.812,151.272 Q 15.188,151.272 14.812,151.694 Q 14.422,152.131 14.422,152.866 Q 14.422,153.678 14.828,154.209 Q 15.219,154.756 15.844,154.756 Q 17.062,154.756 17.062,153.084 Q 17.062,151.272 15.812,151.272 M 21.438,147.741 Q 22.562,147.741 23.219,148.772 Q 23.875,149.803 23.875,151.584 Q 23.875,153.413 23.219,154.444 Q 22.562,155.491 21.406,155.491 Q 20.422,155.491 19.797,154.647 Q 19,153.584 19,151.6 Q 19,149.803 19.656,148.772 Q 20.312,147.741 21.438,147.741 M 21.438,148.475 Q 20.766,148.475 20.406,149.288 Q 20.047,150.116 20.047,151.6 Q 20.047,153.084 20.406,153.928 Q 20.766,154.756 21.438,154.756 Q 22.047,154.756 22.375,154.147 Q 22.828,153.334 22.828,151.6 Q 22.828,150.084 22.469,149.288 Q 22.094,148.475 21.438,148.475 M 27.125,147.741 Q 28.25,147.741 28.906,148.772 Q 29.562,149.803 29.562,151.584 Q 29.562,153.413 28.906,154.444 Q 28.25,155.491 27.094,155.491 Q 26.109,155.491 25.484,154.647 Q 24.688,153.584 24.688,151.6 Q 24.688,149.803 25.344,148.772 Q 26,147.741 27.125,147.741 M 27.125,148.475 Q 26.453,148.475 26.094,149.288 Q 25.734,150.116 25.734,151.6 Q 25.734,153.084 26.094,153.928 Q 26.453,154.756 27.125,154.756 Q 27.734,154.756 28.062,154.147 Q 28.516,153.334 28.516,151.6 Q 28.516,150.084 28.156,149.288 Q 27.781,148.475 27.125,148.475 M 30.844,155.303 L 30.844,150.616 L 30.125,150.616 L 30.125,149.881 L 30.844,149.881 L 30.844,149.241 Q 30.844,147.303 32.375,147.303 Q 32.703,147.303 33.109,147.428 L 33.109,148.209 Q 32.75,148.038 32.484,148.038 Q 32.125,148.038 31.969,148.288 Q 31.828,148.522 31.828,149.131 L 31.828,149.881 L 32.797,149.881 L 32.797,150.616 L 31.828,150.616 L 31.828,155.303 L 30.844,155.303 M 35.797,155.334 Q 35.5,155.428 35.234,155.428 Q 33.922,155.428 33.922,153.803 L 33.922,150.616 L 33.297,150.616 L 33.297,149.881 L 33.922,149.881 L 33.922,148.897 L 34.891,148.803 L 34.891,149.881 L 35.953,149.881 L 35.953,150.616 L 34.891,150.616 L 34.891,153.631 Q 34.891,154.272 35,154.475 Q 35.109,154.694 35.469,154.694 Q 35.656,154.694 35.797,154.631 L 35.797,155.334"></path></g><g fill="#366AFF" fill-rule="evenodd" stroke="#366AFF" stroke-width="0.5" stroke-linecap="round" stroke-linejoin="round"><path d="M 37,131.639 L 43,131.639 Z"></path></g><g fill="rgba(0,0,0,0)" fill-rule="evenodd"><path d="M 32.516,143.639 L 32.516,142.779 Q 32.844,141.982 33.656,141.139 L 34.203,140.592 L 34.688,140.092 Q 35.641,139.107 35.641,138.107 Q 35.641,137.404 35.281,137.076 Q 34.984,136.811 34.453,136.811 Q 33.766,136.811 32.688,137.404 L 32.688,136.529 Q 33.703,136.076 34.578,136.076 Q 35.547,136.076 36.125,136.639 Q 36.688,137.186 36.688,138.139 Q 36.688,138.795 36.406,139.295 Q 36.094,139.811 35.281,140.545 L 34.938,140.857 Q 33.906,141.795 33.703,142.779 L 36.656,142.779 L 36.656,143.639 L 32.516,143.639 M 38.344,143.639 Q 38.484,142.779 38.75,142.154 Q 39.016,141.529 39.703,140.420 L 41.719,137.170 L 37.906,137.170 L 37.906,136.248 L 42.656,136.248 L 42.656,137.170 Q 39.812,141.357 39.469,143.639 L 38.344,143.639 M 45.766,136.076 Q 46.891,136.076 47.547,137.107 Q 48.203,138.139 48.203,139.920 Q 48.203,141.748 47.547,142.779 Q 46.891,143.826 45.734,143.826 Q 44.75,143.826 44.125,142.982 Q 43.328,141.920 43.328,139.936 Q 43.328,138.139 43.984,137.107 Q 44.641,136.076 45.766,136.076 M 45.766,136.811 Q 45.094,136.811 44.734,137.623 Q 44.375,138.451 44.375,139.936 Q 44.375,141.420 44.734,142.264 Q 45.094,143.092 45.766,143.092 Q 46.375,143.092 46.703,142.482 Q 47.156,141.670 47.156,139.936 Q 47.156,138.420 46.797,137.623 Q 46.422,136.811 45.766,136.811 M 51.453,136.076 Q 52.578,136.076 53.234,137.107 Q 53.891,138.139 53.891,139.920 Q 53.891,141.748 53.234,142.779 Q 52.578,143.826 51.422,143.826 Q 50.438,143.826 49.812,142.982 Q 49.016,141.920 49.016,139.936 Q 49.016,138.139 49.672,137.107 Q 50.328,136.076 51.453,136.076 M 51.453,136.811 Q 50.781,136.811 50.422,137.623 Q 50.062,138.451 50.062,139.936 Q 50.062,141.420 50.422,142.264 Q 50.781,143.092 51.453,143.092 Q 52.062,143.092 52.391,142.482 Q 52.844,141.670 52.844,139.936 Q 52.844,138.420 52.484,137.623 Q 52.109,136.811 51.453,136.811 M 55.172,143.639 L 55.172,138.951 L 54.453,138.951 L 54.453,138.217 L 55.172,138.217 L 55.172,137.576 Q 55.172,135.639 56.703,135.639 Q 57.031,135.639 57.438,135.764 L 57.438,136.545 Q 57.078,136.373 56.812,136.373 Q 56.453,136.373 56.297,136.623 Q 56.156,136.857 56.156,137.467 L 56.156,138.217 L 57.125,138.217 L 57.125,138.951 L 56.156,138.951 L 56.156,143.639 L 55.172,143.639 M 60.125,143.670 Q 59.828,143.764 59.562,143.764 Q 58.25,143.764 58.25,142.139 L 58.25,138.951 L 57.625,138.951 L 57.625,138.217 L 58.25,138.217 L 58.25,137.232 L 59.219,137.139 L 59.219,138.217 L 60.281,138.217 L 60.281,138.951 L 59.219,138.951 L 59.219,141.967 Q 59.219,142.607 59.328,142.811 Q 59.438,143.029 59.797,143.029 Q 59.984,143.029 60.125,142.967 L 60.125,143.670"></path></g><g fill="#366AFF" fill-rule="evenodd"><path d="M 8.188,135.639 L 8.188,134.779 Q 8.516,133.982 9.328,133.139 L 9.875,132.592 L 10.359,132.092 Q 11.312,131.107 11.312,130.107 Q 11.312,129.404 10.953,129.076 Q 10.656,128.811 10.125,128.811 Q 9.438,128.811 8.359,129.404 L 8.359,128.529 Q 9.375,128.076 10.25,128.076 Q 11.219,128.076 11.797,128.639 Q 12.359,129.186 12.359,130.139 Q 12.359,130.795 12.078,131.295 Q 11.766,131.811 10.953,132.545 L 10.609,132.857 Q 9.578,133.795 9.375,134.779 L 12.328,134.779 L 12.328,135.639 L 8.188,135.639 M 14.016,135.639 Q 14.156,134.779 14.422,134.154 Q 14.688,133.529 15.375,132.420 L 17.391,129.170 L 13.578,129.170 L 13.578,128.248 L 18.328,128.248 L 18.328,129.170 Q 15.484,133.357 15.141,135.639 L 14.016,135.639 M 21.438,128.076 Q 22.562,128.076 23.219,129.107 Q 23.875,130.139 23.875,131.920 Q 23.875,133.748 23.219,134.779 Q 22.562,135.826 21.406,135.826 Q 20.422,135.826 19.797,134.982 Q 19,133.920 19,131.936 Q 19,130.139 19.656,129.107 Q 20.312,128.076 21.438,128.076 M 21.438,128.811 Q 20.766,128.811 20.406,129.623 Q 20.047,130.451 20.047,131.936 Q 20.047,133.420 20.406,134.264 Q 20.766,135.092 21.438,135.092 Q 22.047,135.092 22.375,134.482 Q 22.828,133.670 22.828,131.936 Q 22.828,130.420 22.469,129.623 Q 22.094,128.811 21.438,128.811 M 27.125,128.076 Q 28.25,128.076 28.906,129.107 Q 29.562,130.139 29.562,131.920 Q 29.562,133.748 28.906,134.779 Q 28.25,135.826 27.094,135.826 Q 26.109,135.826 25.484,134.982 Q 24.688,133.920 24.688,131.936 Q 24.688,130.139 25.344,129.107 Q 26,128.076 27.125,128.076 M 27.125,128.811 Q 26.453,128.811 26.094,129.623 Q 25.734,130.451 25.734,131.936 Q 25.734,133.420 26.094,134.264 Q 26.453,135.092 27.125,135.092 Q 27.734,135.092 28.062,134.482 Q 28.516,133.670 28.516,131.936 Q 28.516,130.420 28.156,129.623 Q 27.781,128.811 27.125,128.811 M 30.844,135.639 L 30.844,130.951 L 30.125,130.951 L 30.125,130.217 L 30.844,130.217 L 30.844,129.576 Q 30.844,127.639 32.375,127.639 Q 32.703,127.639 33.109,127.764 L 33.109,128.545 Q 32.75,128.373 32.484,128.373 Q 32.125,128.373 31.969,128.623 Q 31.828,128.857 31.828,129.467 L 31.828,130.217 L 32.797,130.217 L 32.797,130.951 L 31.828,130.951 L 31.828,135.639 L 30.844,135.639 M 35.797,135.670 Q 35.5,135.764 35.234,135.764 Q 33.922,135.764 33.922,134.139 L 33.922,130.951 L 33.297,130.951 L 33.297,130.217 L 33.922,130.217 L 33.922,129.232 L 34.891,129.139 L 34.891,130.217 L 35.953,130.217 L 35.953,130.951 L 34.891,130.951 L 34.891,133.967 Q 34.891,134.607 35,134.811 Q 35.109,135.029 35.469,135.029 Q 35.656,135.029 35.797,134.967 L 35.797,135.670"></path></g><g fill="#366AFF" fill-rule="evenodd" stroke="#366AFF" stroke-width="0.5" stroke-linecap="round" stroke-linejoin="round"><path d="M 37,111.974 L 43,111.974 Z"></path></g><g fill="rgba(0,0,0,0)" fill-rule="evenodd"><path d="M 32.516,123.974 L 32.516,123.115 Q 32.844,122.318 33.656,121.474 L 34.203,120.927 L 34.688,120.427 Q 35.641,119.443 35.641,118.443 Q 35.641,117.740 35.281,117.412 Q 34.984,117.146 34.453,117.146 Q 33.766,117.146 32.688,117.740 L 32.688,116.865 Q 33.703,116.412 34.578,116.412 Q 35.547,116.412 36.125,116.974 Q 36.688,117.521 36.688,118.474 Q 36.688,119.13 36.406,119.63 Q 36.094,120.146 35.281,120.88 L 34.938,121.193 Q 33.906,122.13 33.703,123.115 L 36.656,123.115 L 36.656,123.974 L 32.516,123.974 M 39.641,119.959 Q 39.156,119.599 38.922,119.271 Q 38.562,118.802 38.562,118.255 Q 38.562,117.443 39.172,116.927 Q 39.797,116.412 40.781,116.412 Q 41.703,116.412 42.266,116.849 Q 42.828,117.287 42.828,118.005 Q 42.828,118.646 42.328,119.224 Q 42.031,119.568 41.453,119.959 Q 42.203,120.334 42.578,120.740 Q 43.125,121.318 43.125,122.084 Q 43.125,122.990 42.422,123.568 Q 41.719,124.162 40.609,124.162 Q 39.516,124.162 38.844,123.599 Q 38.188,123.052 38.188,122.13 Q 38.188,121.334 38.719,120.709 Q 39.047,120.334 39.641,119.959 M 40.906,119.646 Q 41.938,118.927 41.938,118.162 Q 41.938,117.693 41.594,117.427 Q 41.25,117.146 40.672,117.146 Q 40.125,117.146 39.797,117.412 Q 39.453,117.662 39.453,118.099 Q 39.453,118.63 40.016,119.068 Q 40.312,119.302 40.906,119.646 M 40.188,120.349 Q 39.641,120.787 39.406,121.099 Q 39.172,121.459 39.172,121.990 Q 39.172,122.63 39.578,123.021 Q 39.984,123.427 40.656,123.427 Q 41.297,123.427 41.703,123.084 Q 42.109,122.755 42.109,122.224 Q 42.109,121.740 41.797,121.412 Q 41.531,121.146 40.875,120.771 L 40.188,120.349 M 46.219,116.412 Q 47.344,116.412 48,117.443 Q 48.656,118.474 48.656,120.255 Q 48.656,122.084 48,123.115 Q 47.344,124.162 46.188,124.162 Q 45.203,124.162 44.578,123.318 Q 43.781,122.255 43.781,120.271 Q 43.781,118.474 44.438,117.443 Q 45.094,116.412 46.219,116.412 M 46.219,117.146 Q 45.547,117.146 45.188,117.959 Q 44.828,118.787 44.828,120.271 Q 44.828,121.755 45.188,122.599 Q 45.547,123.427 46.219,123.427 Q 46.828,123.427 47.156,122.818 Q 47.609,122.005 47.609,120.271 Q 47.609,118.755 47.25,117.959 Q 46.875,117.146 46.219,117.146 M 51.906,116.412 Q 53.031,116.412 53.688,117.443 Q 54.344,118.474 54.344,120.255 Q 54.344,122.084 53.688,123.115 Q 53.031,124.162 51.875,124.162 Q 50.891,124.162 50.266,123.318 Q 49.469,122.255 49.469,120.271 Q 49.469,118.474 50.125,117.443 Q 50.781,116.412 51.906,116.412 M 51.906,117.146 Q 51.234,117.146 50.875,117.959 Q 50.516,118.787 50.516,120.271 Q 50.516,121.755 50.875,122.599 Q 51.234,123.427 51.906,123.427 Q 52.516,123.427 52.844,122.818 Q 53.297,122.005 53.297,120.271 Q 53.297,118.755 52.938,117.959 Q 52.562,117.146 51.906,117.146 M 55.625,123.974 L 55.625,119.287 L 54.906,119.287 L 54.906,118.552 L 55.625,118.552 L 55.625,117.912 Q 55.625,115.974 57.156,115.974 Q 57.484,115.974 57.891,116.099 L 57.891,116.88 Q 57.531,116.709 57.266,116.709 Q 56.906,116.709 56.75,116.959 Q 56.609,117.193 56.609,117.802 L 56.609,118.552 L 57.578,118.552 L 57.578,119.287 L 56.609,119.287 L 56.609,123.974 L 55.625,123.974 M 60.578,124.005 Q 60.281,124.099 60.016,124.099 Q 58.703,124.099 58.703,122.474 L 58.703,119.287 L 58.078,119.287 L 58.078,118.552 L 58.703,118.552 L 58.703,117.568 L 59.672,117.474 L 59.672,118.552 L 60.734,118.552 L 60.734,119.287 L 59.672,119.287 L 59.672,122.302 Q 59.672,122.943 59.781,123.146 Q 59.891,123.365 60.25,123.365 Q 60.438,123.365 60.578,123.302 L 60.578,124.005"></path></g><g fill="#366AFF" fill-rule="evenodd"><path d="M 7.734,115.974 L 7.734,115.115 Q 8.062,114.318 8.875,113.474 L 9.422,112.927 L 9.906,112.427 Q 10.859,111.443 10.859,110.443 Q 10.859,109.740 10.5,109.412 Q 10.203,109.146 9.672,109.146 Q 8.984,109.146 7.906,109.740 L 7.906,108.865 Q 8.922,108.412 9.797,108.412 Q 10.766,108.412 11.344,108.974 Q 11.906,109.521 11.906,110.474 Q 11.906,111.13 11.625,111.63 Q 11.312,112.146 10.5,112.88 L 10.156,113.193 Q 9.125,114.13 8.922,115.115 L 11.875,115.115 L 11.875,115.974 L 7.734,115.974 M 14.859,111.959 Q 14.375,111.599 14.141,111.271 Q 13.781,110.802 13.781,110.255 Q 13.781,109.443 14.391,108.927 Q 15.016,108.412 16,108.412 Q 16.922,108.412 17.484,108.849 Q 18.047,109.287 18.047,110.005 Q 18.047,110.646 17.547,111.224 Q 17.25,111.568 16.672,111.959 Q 17.422,112.334 17.797,112.740 Q 18.344,113.318 18.344,114.084 Q 18.344,114.990 17.641,115.568 Q 16.938,116.162 15.828,116.162 Q 14.734,116.162 14.062,115.599 Q 13.406,115.052 13.406,114.13 Q 13.406,113.334 13.938,112.709 Q 14.266,112.334 14.859,111.959 M 16.125,111.646 Q 17.156,110.927 17.156,110.162 Q 17.156,109.693 16.812,109.427 Q 16.469,109.146 15.891,109.146 Q 15.344,109.146 15.016,109.412 Q 14.672,109.662 14.672,110.099 Q 14.672,110.63 15.234,111.068 Q 15.531,111.302 16.125,111.646 M 15.406,112.349 Q 14.859,112.787 14.625,113.099 Q 14.391,113.459 14.391,113.990 Q 14.391,114.63 14.797,115.021 Q 15.203,115.427 15.875,115.427 Q 16.516,115.427 16.922,115.084 Q 17.328,114.755 17.328,114.224 Q 17.328,113.740 17.016,113.412 Q 16.75,113.146 16.094,112.771 L 15.406,112.349 M 21.438,108.412 Q 22.562,108.412 23.219,109.443 Q 23.875,110.474 23.875,112.255 Q 23.875,114.084 23.219,115.115 Q 22.562,116.162 21.406,116.162 Q 20.422,116.162 19.797,115.318 Q 19,114.255 19,112.271 Q 19,110.474 19.656,109.443 Q 20.312,108.412 21.438,108.412 M 21.438,109.146 Q 20.766,109.146 20.406,109.959 Q 20.047,110.787 20.047,112.271 Q 20.047,113.755 20.406,114.599 Q 20.766,115.427 21.438,115.427 Q 22.047,115.427 22.375,114.818 Q 22.828,114.005 22.828,112.271 Q 22.828,110.755 22.469,109.959 Q 22.094,109.146 21.438,109.146 M 27.125,108.412 Q 28.25,108.412 28.906,109.443 Q 29.562,110.474 29.562,112.255 Q 29.562,114.084 28.906,115.115 Q 28.25,116.162 27.094,116.162 Q 26.109,116.162 25.484,115.318 Q 24.688,114.255 24.688,112.271 Q 24.688,110.474 25.344,109.443 Q 26,108.412 27.125,108.412 M 27.125,109.146 Q 26.453,109.146 26.094,109.959 Q 25.734,110.787 25.734,112.271 Q 25.734,113.755 26.094,114.599 Q 26.453,115.427 27.125,115.427 Q 27.734,115.427 28.062,114.818 Q 28.516,114.005 28.516,112.271 Q 28.516,110.755 28.156,109.959 Q 27.781,109.146 27.125,109.146 M 30.844,115.974 L 30.844,111.287 L 30.125,111.287 L 30.125,110.552 L 30.844,110.552 L 30.844,109.912 Q 30.844,107.974 32.375,107.974 Q 32.703,107.974 33.109,108.099 L 33.109,108.88 Q 32.75,108.709 32.484,108.709 Q 32.125,108.709 31.969,108.959 Q 31.828,109.193 31.828,109.802 L 31.828,110.552 L 32.797,110.552 L 32.797,111.287 L 31.828,111.287 L 31.828,115.974 L 30.844,115.974 M 35.797,116.005 Q 35.5,116.099 35.234,116.099 Q 33.922,116.099 33.922,114.474 L 33.922,111.287 L 33.297,111.287 L 33.297,110.552 L 33.922,110.552 L 33.922,109.568 L 34.891,109.474 L 34.891,110.552 L 35.953,110.552 L 35.953,111.287 L 34.891,111.287 L 34.891,114.302 Q 34.891,114.943 35,115.146 Q 35.109,115.365 35.469,115.365 Q 35.656,115.365 35.797,115.302 L 35.797,116.005"></path></g><g fill="#366AFF" fill-rule="evenodd" stroke="#366AFF" stroke-width="0.5" stroke-linecap="round" stroke-linejoin="round"><path d="M 37,92.310 L 43,92.310 Z"></path></g><g fill="rgba(0,0,0,0)" fill-rule="evenodd"><path d="M 32.516,104.310 L 32.516,103.45 Q 32.844,102.653 33.656,101.810 L 34.203,101.263 L 34.688,100.763 Q 35.641,99.778 35.641,98.778 Q 35.641,98.075 35.281,97.747 Q 34.984,97.482 34.453,97.482 Q 33.766,97.482 32.688,98.075 L 32.688,97.2 Q 33.703,96.747 34.578,96.747 Q 35.547,96.747 36.125,97.310 Q 36.688,97.857 36.688,98.810 Q 36.688,99.466 36.406,99.966 Q 36.094,100.482 35.281,101.216 L 34.938,101.528 Q 33.906,102.466 33.703,103.45 L 36.656,103.45 L 36.656,104.310 L 32.516,104.310 M 41.75,100.810 Q 41.062,101.669 40.062,101.669 Q 39.156,101.669 38.625,101.044 Q 38.109,100.435 38.109,99.341 Q 38.109,98.153 38.719,97.45 Q 39.344,96.732 40.375,96.732 Q 41.516,96.732 42.156,97.716 Q 42.812,98.685 42.812,100.372 Q 42.812,102.310 42.031,103.403 Q 41.266,104.497 39.891,104.497 Q 39.266,104.497 38.5,104.216 L 38.5,103.357 Q 39.406,103.763 39.922,103.763 Q 41.016,103.763 41.469,102.653 Q 41.641,102.216 41.703,101.669 Q 41.734,101.388 41.75,100.810 M 40.297,97.482 Q 39.078,97.482 39.078,99.138 Q 39.078,100.95 40.328,100.95 Q 40.953,100.95 41.328,100.528 Q 41.703,100.091 41.703,99.357 Q 41.703,98.544 41.312,98.013 Q 40.922,97.482 40.297,97.482 M 46.219,96.747 Q 47.344,96.747 48,97.778 Q 48.656,98.810 48.656,100.591 Q 48.656,102.419 48,103.45 Q 47.344,104.497 46.188,104.497 Q 45.203,104.497 44.578,103.653 Q 43.781,102.591 43.781,100.607 Q 43.781,98.810 44.438,97.778 Q 45.094,96.747 46.219,96.747 M 46.219,97.482 Q 45.547,97.482 45.188,98.294 Q 44.828,99.122 44.828,100.607 Q 44.828,102.091 45.188,102.935 Q 45.547,103.763 46.219,103.763 Q 46.828,103.763 47.156,103.153 Q 47.609,102.341 47.609,100.607 Q 47.609,99.091 47.25,98.294 Q 46.875,97.482 46.219,97.482 M 51.906,96.747 Q 53.031,96.747 53.688,97.778 Q 54.344,98.810 54.344,100.591 Q 54.344,102.419 53.688,103.45 Q 53.031,104.497 51.875,104.497 Q 50.891,104.497 50.266,103.653 Q 49.469,102.591 49.469,100.607 Q 49.469,98.810 50.125,97.778 Q 50.781,96.747 51.906,96.747 M 51.906,97.482 Q 51.234,97.482 50.875,98.294 Q 50.516,99.122 50.516,100.607 Q 50.516,102.091 50.875,102.935 Q 51.234,103.763 51.906,103.763 Q 52.516,103.763 52.844,103.153 Q 53.297,102.341 53.297,100.607 Q 53.297,99.091 52.938,98.294 Q 52.562,97.482 51.906,97.482 M 55.625,104.310 L 55.625,99.622 L 54.906,99.622 L 54.906,98.888 L 55.625,98.888 L 55.625,98.247 Q 55.625,96.310 57.156,96.310 Q 57.484,96.310 57.891,96.435 L 57.891,97.216 Q 57.531,97.044 57.266,97.044 Q 56.906,97.044 56.75,97.294 Q 56.609,97.528 56.609,98.138 L 56.609,98.888 L 57.578,98.888 L 57.578,99.622 L 56.609,99.622 L 56.609,104.310 L 55.625,104.310 M 60.578,104.341 Q 60.281,104.435 60.016,104.435 Q 58.703,104.435 58.703,102.810 L 58.703,99.622 L 58.078,99.622 L 58.078,98.888 L 58.703,98.888 L 58.703,97.903 L 59.672,97.810 L 59.672,98.888 L 60.734,98.888 L 60.734,99.622 L 59.672,99.622 L 59.672,102.638 Q 59.672,103.278 59.781,103.482 Q 59.891,103.7 60.25,103.7 Q 60.438,103.7 60.578,103.638 L 60.578,104.341"></path></g><g fill="#366AFF" fill-rule="evenodd"><path d="M 7.734,96.310 L 7.734,95.45 Q 8.062,94.653 8.875,93.810 L 9.422,93.263 L 9.906,92.763 Q 10.859,91.778 10.859,90.778 Q 10.859,90.075 10.5,89.747 Q 10.203,89.482 9.672,89.482 Q 8.984,89.482 7.906,90.075 L 7.906,89.2 Q 8.922,88.747 9.797,88.747 Q 10.766,88.747 11.344,89.310 Q 11.906,89.857 11.906,90.810 Q 11.906,91.466 11.625,91.966 Q 11.312,92.482 10.5,93.216 L 10.156,93.528 Q 9.125,94.466 8.922,95.45 L 11.875,95.45 L 11.875,96.310 L 7.734,96.310 M 16.969,92.810 Q 16.281,93.669 15.281,93.669 Q 14.375,93.669 13.844,93.044 Q 13.328,92.435 13.328,91.341 Q 13.328,90.153 13.938,89.45 Q 14.562,88.732 15.594,88.732 Q 16.734,88.732 17.375,89.716 Q 18.031,90.685 18.031,92.372 Q 18.031,94.310 17.25,95.403 Q 16.484,96.497 15.109,96.497 Q 14.484,96.497 13.719,96.216 L 13.719,95.357 Q 14.625,95.763 15.141,95.763 Q 16.234,95.763 16.688,94.653 Q 16.859,94.216 16.922,93.669 Q 16.953,93.388 16.969,92.810 M 15.516,89.482 Q 14.297,89.482 14.297,91.138 Q 14.297,92.95 15.547,92.95 Q 16.172,92.95 16.547,92.528 Q 16.922,92.091 16.922,91.357 Q 16.922,90.544 16.531,90.013 Q 16.141,89.482 15.516,89.482 M 21.438,88.747 Q 22.562,88.747 23.219,89.778 Q 23.875,90.810 23.875,92.591 Q 23.875,94.419 23.219,95.45 Q 22.562,96.497 21.406,96.497 Q 20.422,96.497 19.797,95.653 Q 19,94.591 19,92.607 Q 19,90.810 19.656,89.778 Q 20.312,88.747 21.438,88.747 M 21.438,89.482 Q 20.766,89.482 20.406,90.294 Q 20.047,91.122 20.047,92.607 Q 20.047,94.091 20.406,94.935 Q 20.766,95.763 21.438,95.763 Q 22.047,95.763 22.375,95.153 Q 22.828,94.341 22.828,92.607 Q 22.828,91.091 22.469,90.294 Q 22.094,89.482 21.438,89.482 M 27.125,88.747 Q 28.25,88.747 28.906,89.778 Q 29.562,90.810 29.562,92.591 Q 29.562,94.419 28.906,95.45 Q 28.25,96.497 27.094,96.497 Q 26.109,96.497 25.484,95.653 Q 24.688,94.591 24.688,92.607 Q 24.688,90.810 25.344,89.778 Q 26,88.747 27.125,88.747 M 27.125,89.482 Q 26.453,89.482 26.094,90.294 Q 25.734,91.122 25.734,92.607 Q 25.734,94.091 26.094,94.935 Q 26.453,95.763 27.125,95.763 Q 27.734,95.763 28.062,95.153 Q 28.516,94.341 28.516,92.607 Q 28.516,91.091 28.156,90.294 Q 27.781,89.482 27.125,89.482 M 30.844,96.310 L 30.844,91.622 L 30.125,91.622 L 30.125,90.888 L 30.844,90.888 L 30.844,90.247 Q 30.844,88.310 32.375,88.310 Q 32.703,88.310 33.109,88.435 L 33.109,89.216 Q 32.75,89.044 32.484,89.044 Q 32.125,89.044 31.969,89.294 Q 31.828,89.528 31.828,90.138 L 31.828,90.888 L 32.797,90.888 L 32.797,91.622 L 31.828,91.622 L 31.828,96.310 L 30.844,96.310 M 35.797,96.341 Q 35.5,96.435 35.234,96.435 Q 33.922,96.435 33.922,94.810 L 33.922,91.622 L 33.297,91.622 L 33.297,90.888 L 33.922,90.888 L 33.922,89.903 L 34.891,89.810 L 34.891,90.888 L 35.953,90.888 L 35.953,91.622 L 34.891,91.622 L 34.891,94.638 Q 34.891,95.278 35,95.482 Q 35.109,95.7 35.469,95.7 Q 35.656,95.7 35.797,95.638 L 35.797,96.341"></path></g><g fill="#366AFF" fill-rule="evenodd" stroke="#366AFF" stroke-width="0.5" stroke-linecap="round" stroke-linejoin="round"><path d="M 37,72.645 L 43,72.645 Z"></path></g><g fill="rgba(0,0,0,0)" fill-rule="evenodd"><path d="M 32.766,84.583 L 32.766,83.676 L 32.797,83.692 Q 32.922,83.739 32.984,83.755 Q 33.531,83.958 33.719,84.005 Q 34.047,84.098 34.312,84.098 Q 35.062,84.098 35.438,83.676 Q 35.766,83.317 35.766,82.645 Q 35.766,81.880 35.266,81.473 Q 34.766,81.051 33.844,81.051 L 33.453,81.051 L 33.453,80.395 L 33.781,80.395 Q 34.641,80.380 35.109,79.989 Q 35.594,79.598 35.594,78.926 Q 35.594,77.817 34.406,77.817 Q 33.781,77.817 32.859,78.223 L 32.859,77.364 Q 33.766,77.083 34.453,77.083 Q 35.656,77.083 36.188,77.645 Q 36.578,78.067 36.578,78.77 Q 36.578,79.567 36.016,80.083 Q 35.688,80.395 35.031,80.645 Q 35.609,80.786 35.891,80.958 Q 36.812,81.489 36.812,82.614 Q 36.812,83.614 36.156,84.223 Q 35.5,84.833 34.406,84.833 Q 33.828,84.833 32.766,84.583 M 40.531,77.083 Q 41.656,77.083 42.312,78.114 Q 42.969,79.145 42.969,80.926 Q 42.969,82.755 42.312,83.786 Q 41.656,84.833 40.5,84.833 Q 39.516,84.833 38.891,83.989 Q 38.094,82.926 38.094,80.942 Q 38.094,79.145 38.75,78.114 Q 39.406,77.083 40.531,77.083 M 40.531,77.817 Q 39.859,77.817 39.5,78.630 Q 39.141,79.458 39.141,80.942 Q 39.141,82.426 39.5,83.27 Q 39.859,84.098 40.531,84.098 Q 41.141,84.098 41.469,83.489 Q 41.922,82.676 41.922,80.942 Q 41.922,79.426 41.562,78.630 Q 41.188,77.817 40.531,77.817 M 46.219,77.083 Q 47.344,77.083 48,78.114 Q 48.656,79.145 48.656,80.926 Q 48.656,82.755 48,83.786 Q 47.344,84.833 46.188,84.833 Q 45.203,84.833 44.578,83.989 Q 43.781,82.926 43.781,80.942 Q 43.781,79.145 44.438,78.114 Q 45.094,77.083 46.219,77.083 M 46.219,77.817 Q 45.547,77.817 45.188,78.630 Q 44.828,79.458 44.828,80.942 Q 44.828,82.426 45.188,83.27 Q 45.547,84.098 46.219,84.098 Q 46.828,84.098 47.156,83.489 Q 47.609,82.676 47.609,80.942 Q 47.609,79.426 47.25,78.630 Q 46.875,77.817 46.219,77.817 M 51.906,77.083 Q 53.031,77.083 53.688,78.114 Q 54.344,79.145 54.344,80.926 Q 54.344,82.755 53.688,83.786 Q 53.031,84.833 51.875,84.833 Q 50.891,84.833 50.266,83.989 Q 49.469,82.926 49.469,80.942 Q 49.469,79.145 50.125,78.114 Q 50.781,77.083 51.906,77.083 M 51.906,77.817 Q 51.234,77.817 50.875,78.630 Q 50.516,79.458 50.516,80.942 Q 50.516,82.426 50.875,83.27 Q 51.234,84.098 51.906,84.098 Q 52.516,84.098 52.844,83.489 Q 53.297,82.676 53.297,80.942 Q 53.297,79.426 52.938,78.630 Q 52.562,77.817 51.906,77.817 M 55.625,84.645 L 55.625,79.958 L 54.906,79.958 L 54.906,79.223 L 55.625,79.223 L 55.625,78.583 Q 55.625,76.645 57.156,76.645 Q 57.484,76.645 57.891,76.77 L 57.891,77.551 Q 57.531,77.380 57.266,77.380 Q 56.906,77.380 56.75,77.630 Q 56.609,77.864 56.609,78.473 L 56.609,79.223 L 57.578,79.223 L 57.578,79.958 L 56.609,79.958 L 56.609,84.645 L 55.625,84.645 M 60.578,84.676 Q 60.281,84.77 60.016,84.77 Q 58.703,84.77 58.703,83.145 L 58.703,79.958 L 58.078,79.958 L 58.078,79.223 L 58.703,79.223 L 58.703,78.239 L 59.672,78.145 L 59.672,79.223 L 60.734,79.223 L 60.734,79.958 L 59.672,79.958 L 59.672,82.973 Q 59.672,83.614 59.781,83.817 Q 59.891,84.036 60.25,84.036 Q 60.438,84.036 60.578,83.973 L 60.578,84.676"></path></g><g fill="#366AFF" fill-rule="evenodd"><path d="M 7.984,76.583 L 7.984,75.676 L 8.016,75.692 Q 8.141,75.739 8.203,75.755 Q 8.75,75.958 8.938,76.005 Q 9.266,76.098 9.531,76.098 Q 10.281,76.098 10.656,75.676 Q 10.984,75.317 10.984,74.645 Q 10.984,73.880 10.484,73.473 Q 9.984,73.051 9.062,73.051 L 8.672,73.051 L 8.672,72.395 L 9,72.395 Q 9.859,72.380 10.328,71.989 Q 10.812,71.598 10.812,70.926 Q 10.812,69.817 9.625,69.817 Q 9,69.817 8.078,70.223 L 8.078,69.364 Q 8.984,69.083 9.672,69.083 Q 10.875,69.083 11.406,69.645 Q 11.797,70.067 11.797,70.77 Q 11.797,71.567 11.234,72.083 Q 10.906,72.395 10.25,72.645 Q 10.828,72.786 11.109,72.958 Q 12.031,73.489 12.031,74.614 Q 12.031,75.614 11.375,76.223 Q 10.719,76.833 9.625,76.833 Q 9.047,76.833 7.984,76.583 M 15.75,69.083 Q 16.875,69.083 17.531,70.114 Q 18.188,71.145 18.188,72.926 Q 18.188,74.755 17.531,75.786 Q 16.875,76.833 15.719,76.833 Q 14.734,76.833 14.109,75.989 Q 13.312,74.926 13.312,72.942 Q 13.312,71.145 13.969,70.114 Q 14.625,69.083 15.75,69.083 M 15.75,69.817 Q 15.078,69.817 14.719,70.630 Q 14.359,71.458 14.359,72.942 Q 14.359,74.426 14.719,75.27 Q 15.078,76.098 15.75,76.098 Q 16.359,76.098 16.688,75.489 Q 17.141,74.676 17.141,72.942 Q 17.141,71.426 16.781,70.630 Q 16.406,69.817 15.75,69.817 M 21.438,69.083 Q 22.562,69.083 23.219,70.114 Q 23.875,71.145 23.875,72.926 Q 23.875,74.755 23.219,75.786 Q 22.562,76.833 21.406,76.833 Q 20.422,76.833 19.797,75.989 Q 19,74.926 19,72.942 Q 19,71.145 19.656,70.114 Q 20.312,69.083 21.438,69.083 M 21.438,69.817 Q 20.766,69.817 20.406,70.630 Q 20.047,71.458 20.047,72.942 Q 20.047,74.426 20.406,75.27 Q 20.766,76.098 21.438,76.098 Q 22.047,76.098 22.375,75.489 Q 22.828,74.676 22.828,72.942 Q 22.828,71.426 22.469,70.630 Q 22.094,69.817 21.438,69.817 M 27.125,69.083 Q 28.25,69.083 28.906,70.114 Q 29.562,71.145 29.562,72.926 Q 29.562,74.755 28.906,75.786 Q 28.25,76.833 27.094,76.833 Q 26.109,76.833 25.484,75.989 Q 24.688,74.926 24.688,72.942 Q 24.688,71.145 25.344,70.114 Q 26,69.083 27.125,69.083 M 27.125,69.817 Q 26.453,69.817 26.094,70.630 Q 25.734,71.458 25.734,72.942 Q 25.734,74.426 26.094,75.27 Q 26.453,76.098 27.125,76.098 Q 27.734,76.098 28.062,75.489 Q 28.516,74.676 28.516,72.942 Q 28.516,71.426 28.156,70.630 Q 27.781,69.817 27.125,69.817 M 30.844,76.645 L 30.844,71.958 L 30.125,71.958 L 30.125,71.223 L 30.844,71.223 L 30.844,70.583 Q 30.844,68.645 32.375,68.645 Q 32.703,68.645 33.109,68.77 L 33.109,69.551 Q 32.75,69.380 32.484,69.380 Q 32.125,69.380 31.969,69.630 Q 31.828,69.864 31.828,70.473 L 31.828,71.223 L 32.797,71.223 L 32.797,71.958 L 31.828,71.958 L 31.828,76.645 L 30.844,76.645 M 35.797,76.676 Q 35.5,76.77 35.234,76.77 Q 33.922,76.77 33.922,75.145 L 33.922,71.958 L 33.297,71.958 L 33.297,71.223 L 33.922,71.223 L 33.922,70.239 L 34.891,70.145 L 34.891,71.223 L 35.953,71.223 L 35.953,71.958 L 34.891,71.958 L 34.891,74.973 Q 34.891,75.614 35,75.817 Q 35.109,76.036 35.469,76.036 Q 35.656,76.036 35.797,75.973 L 35.797,76.676"></path></g><g fill="#366AFF" fill-rule="evenodd" stroke="#366AFF" stroke-width="0.5" stroke-linecap="round" stroke-linejoin="round"><path d="M 37,52.981 L 43,52.981 Z"></path></g><g fill="rgba(0,0,0,0)" fill-rule="evenodd"><path d="M 32.766,64.918 L 32.766,64.012 L 32.797,64.028 Q 32.922,64.074 32.984,64.09 Q 33.531,64.293 33.719,64.34 Q 34.047,64.434 34.312,64.434 Q 35.062,64.434 35.438,64.012 Q 35.766,63.653 35.766,62.981 Q 35.766,62.215 35.266,61.809 Q 34.766,61.387 33.844,61.387 L 33.453,61.387 L 33.453,60.731 L 33.781,60.731 Q 34.641,60.715 35.109,60.324 Q 35.594,59.934 35.594,59.262 Q 35.594,58.153 34.406,58.153 Q 33.781,58.153 32.859,58.559 L 32.859,57.699 Q 33.766,57.418 34.453,57.418 Q 35.656,57.418 36.188,57.981 Q 36.578,58.403 36.578,59.106 Q 36.578,59.903 36.016,60.418 Q 35.688,60.731 35.031,60.981 Q 35.609,61.121 35.891,61.293 Q 36.812,61.824 36.812,62.949 Q 36.812,63.949 36.156,64.559 Q 35.5,65.168 34.406,65.168 Q 33.828,65.168 32.766,64.918 M 38.141,64.981 L 38.141,64.246 L 39.625,64.246 L 39.625,58.418 L 38.141,58.778 L 38.141,58.028 L 40.609,57.418 L 40.609,64.246 L 42.094,64.246 L 42.094,64.981 L 38.141,64.981 M 45.125,57.418 Q 46.25,57.418 46.906,58.449 Q 47.562,59.481 47.562,61.262 Q 47.562,63.09 46.906,64.121 Q 46.25,65.168 45.094,65.168 Q 44.109,65.168 43.484,64.324 Q 42.688,63.262 42.688,61.278 Q 42.688,59.481 43.344,58.449 Q 44,57.418 45.125,57.418 M 45.125,58.153 Q 44.453,58.153 44.094,58.965 Q 43.734,59.793 43.734,61.278 Q 43.734,62.762 44.094,63.606 Q 44.453,64.434 45.125,64.434 Q 45.734,64.434 46.062,63.824 Q 46.516,63.012 46.516,61.278 Q 46.516,59.762 46.156,58.965 Q 45.781,58.153 45.125,58.153 M 50.812,57.418 Q 51.938,57.418 52.594,58.449 Q 53.25,59.481 53.25,61.262 Q 53.25,63.09 52.594,64.121 Q 51.938,65.168 50.781,65.168 Q 49.797,65.168 49.172,64.324 Q 48.375,63.262 48.375,61.278 Q 48.375,59.481 49.031,58.449 Q 49.688,57.418 50.812,57.418 M 50.812,58.153 Q 50.141,58.153 49.781,58.965 Q 49.422,59.793 49.422,61.278 Q 49.422,62.762 49.781,63.606 Q 50.141,64.434 50.812,64.434 Q 51.422,64.434 51.75,63.824 Q 52.203,63.012 52.203,61.278 Q 52.203,59.762 51.844,58.965 Q 51.469,58.153 50.812,58.153 M 54.531,64.981 L 54.531,60.293 L 53.812,60.293 L 53.812,59.559 L 54.531,59.559 L 54.531,58.918 Q 54.531,56.981 56.062,56.981 Q 56.391,56.981 56.797,57.106 L 56.797,57.887 Q 56.438,57.715 56.172,57.715 Q 55.812,57.715 55.656,57.965 Q 55.516,58.199 55.516,58.809 L 55.516,59.559 L 56.484,59.559 L 56.484,60.293 L 55.516,60.293 L 55.516,64.981 L 54.531,64.981 M 59.484,65.012 Q 59.188,65.106 58.922,65.106 Q 57.609,65.106 57.609,63.481 L 57.609,60.293 L 56.984,60.293 L 56.984,59.559 L 57.609,59.559 L 57.609,58.574 L 58.578,58.481 L 58.578,59.559 L 59.641,59.559 L 59.641,60.293 L 58.578,60.293 L 58.578,63.309 Q 58.578,63.949 58.688,64.153 Q 58.797,64.371 59.156,64.371 Q 59.344,64.371 59.484,64.309 L 59.484,65.012"></path></g><g fill="#366AFF" fill-rule="evenodd"><path d="M 9.078,56.918 L 9.078,56.012 L 9.109,56.028 Q 9.234,56.074 9.297,56.09 Q 9.844,56.293 10.031,56.34 Q 10.359,56.434 10.625,56.434 Q 11.375,56.434 11.75,56.012 Q 12.078,55.653 12.078,54.981 Q 12.078,54.215 11.578,53.809 Q 11.078,53.387 10.156,53.387 L 9.766,53.387 L 9.766,52.731 L 10.094,52.731 Q 10.953,52.715 11.422,52.324 Q 11.906,51.934 11.906,51.262 Q 11.906,50.153 10.719,50.153 Q 10.094,50.153 9.172,50.559 L 9.172,49.699 Q 10.078,49.418 10.766,49.418 Q 11.969,49.418 12.5,49.981 Q 12.891,50.403 12.891,51.106 Q 12.891,51.903 12.328,52.418 Q 12,52.731 11.344,52.981 Q 11.922,53.121 12.203,53.293 Q 13.125,53.824 13.125,54.949 Q 13.125,55.949 12.469,56.559 Q 11.812,57.168 10.719,57.168 Q 10.141,57.168 9.078,56.918 M 14.453,56.981 L 14.453,56.246 L 15.938,56.246 L 15.938,50.418 L 14.453,50.778 L 14.453,50.028 L 16.922,49.418 L 16.922,56.246 L 18.406,56.246 L 18.406,56.981 L 14.453,56.981 M 21.438,49.418 Q 22.562,49.418 23.219,50.449 Q 23.875,51.481 23.875,53.262 Q 23.875,55.09 23.219,56.121 Q 22.562,57.168 21.406,57.168 Q 20.422,57.168 19.797,56.324 Q 19,55.262 19,53.278 Q 19,51.481 19.656,50.449 Q 20.312,49.418 21.438,49.418 M 21.438,50.153 Q 20.766,50.153 20.406,50.965 Q 20.047,51.793 20.047,53.278 Q 20.047,54.762 20.406,55.606 Q 20.766,56.434 21.438,56.434 Q 22.047,56.434 22.375,55.824 Q 22.828,55.012 22.828,53.278 Q 22.828,51.762 22.469,50.965 Q 22.094,50.153 21.438,50.153 M 27.125,49.418 Q 28.25,49.418 28.906,50.449 Q 29.562,51.481 29.562,53.262 Q 29.562,55.09 28.906,56.121 Q 28.25,57.168 27.094,57.168 Q 26.109,57.168 25.484,56.324 Q 24.688,55.262 24.688,53.278 Q 24.688,51.481 25.344,50.449 Q 26,49.418 27.125,49.418 M 27.125,50.153 Q 26.453,50.153 26.094,50.965 Q 25.734,51.793 25.734,53.278 Q 25.734,54.762 26.094,55.606 Q 26.453,56.434 27.125,56.434 Q 27.734,56.434 28.062,55.824 Q 28.516,55.012 28.516,53.278 Q 28.516,51.762 28.156,50.965 Q 27.781,50.153 27.125,50.153 M 30.844,56.981 L 30.844,52.293 L 30.125,52.293 L 30.125,51.559 L 30.844,51.559 L 30.844,50.918 Q 30.844,48.981 32.375,48.981 Q 32.703,48.981 33.109,49.106 L 33.109,49.887 Q 32.75,49.715 32.484,49.715 Q 32.125,49.715 31.969,49.965 Q 31.828,50.199 31.828,50.809 L 31.828,51.559 L 32.797,51.559 L 32.797,52.293 L 31.828,52.293 L 31.828,56.981 L 30.844,56.981 M 35.797,57.012 Q 35.5,57.106 35.234,57.106 Q 33.922,57.106 33.922,55.481 L 33.922,52.293 L 33.297,52.293 L 33.297,51.559 L 33.922,51.559 L 33.922,50.574 L 34.891,50.481 L 34.891,51.559 L 35.953,51.559 L 35.953,52.293 L 34.891,52.293 L 34.891,55.309 Q 34.891,55.949 35,56.153 Q 35.109,56.371 35.469,56.371 Q 35.656,56.371 35.797,56.309 L 35.797,57.012"></path></g><g fill="#366AFF" fill-rule="evenodd" stroke="#366AFF" stroke-width="0.5" stroke-linecap="round" stroke-linejoin="round"><path d="M 37,33.316 L 43,33.316 Z"></path></g><g fill="rgba(0,0,0,0)" fill-rule="evenodd"><path d="M 32.766,45.254 L 32.766,44.347 L 32.797,44.363 Q 32.922,44.410 32.984,44.426 Q 33.531,44.629 33.719,44.676 Q 34.047,44.769 34.312,44.769 Q 35.062,44.769 35.438,44.347 Q 35.766,43.988 35.766,43.316 Q 35.766,42.551 35.266,42.144 Q 34.766,41.722 33.844,41.722 L 33.453,41.722 L 33.453,41.066 L 33.781,41.066 Q 34.641,41.051 35.109,40.660 Q 35.594,40.269 35.594,39.597 Q 35.594,38.488 34.406,38.488 Q 33.781,38.488 32.859,38.894 L 32.859,38.035 Q 33.766,37.754 34.453,37.754 Q 35.656,37.754 36.188,38.316 Q 36.578,38.738 36.578,39.441 Q 36.578,40.238 36.016,40.754 Q 35.688,41.066 35.031,41.316 Q 35.609,41.457 35.891,41.629 Q 36.812,42.160 36.812,43.285 Q 36.812,44.285 36.156,44.894 Q 35.5,45.504 34.406,45.504 Q 33.828,45.504 32.766,45.254 M 38.203,45.316 L 38.203,44.457 Q 38.531,43.660 39.344,42.816 L 39.891,42.269 L 40.375,41.769 Q 41.328,40.785 41.328,39.785 Q 41.328,39.082 40.969,38.754 Q 40.672,38.488 40.141,38.488 Q 39.453,38.488 38.375,39.082 L 38.375,38.207 Q 39.391,37.754 40.266,37.754 Q 41.234,37.754 41.812,38.316 Q 42.375,38.863 42.375,39.816 Q 42.375,40.472 42.094,40.972 Q 41.781,41.488 40.969,42.222 L 40.625,42.535 Q 39.594,43.472 39.391,44.457 L 42.344,44.457 L 42.344,45.316 L 38.203,45.316 M 46.219,37.754 Q 47.344,37.754 48,38.785 Q 48.656,39.816 48.656,41.597 Q 48.656,43.426 48,44.457 Q 47.344,45.504 46.188,45.504 Q 45.203,45.504 44.578,44.660 Q 43.781,43.597 43.781,41.613 Q 43.781,39.816 44.438,38.785 Q 45.094,37.754 46.219,37.754 M 46.219,38.488 Q 45.547,38.488 45.188,39.301 Q 44.828,40.129 44.828,41.613 Q 44.828,43.097 45.188,43.941 Q 45.547,44.769 46.219,44.769 Q 46.828,44.769 47.156,44.160 Q 47.609,43.347 47.609,41.613 Q 47.609,40.097 47.25,39.301 Q 46.875,38.488 46.219,38.488 M 51.906,37.754 Q 53.031,37.754 53.688,38.785 Q 54.344,39.816 54.344,41.597 Q 54.344,43.426 53.688,44.457 Q 53.031,45.504 51.875,45.504 Q 50.891,45.504 50.266,44.660 Q 49.469,43.597 49.469,41.613 Q 49.469,39.816 50.125,38.785 Q 50.781,37.754 51.906,37.754 M 51.906,38.488 Q 51.234,38.488 50.875,39.301 Q 50.516,40.129 50.516,41.613 Q 50.516,43.097 50.875,43.941 Q 51.234,44.769 51.906,44.769 Q 52.516,44.769 52.844,44.160 Q 53.297,43.347 53.297,41.613 Q 53.297,40.097 52.938,39.301 Q 52.562,38.488 51.906,38.488 M 55.625,45.316 L 55.625,40.629 L 54.906,40.629 L 54.906,39.894 L 55.625,39.894 L 55.625,39.254 Q 55.625,37.316 57.156,37.316 Q 57.484,37.316 57.891,37.441 L 57.891,38.222 Q 57.531,38.051 57.266,38.051 Q 56.906,38.051 56.75,38.301 Q 56.609,38.535 56.609,39.144 L 56.609,39.894 L 57.578,39.894 L 57.578,40.629 L 56.609,40.629 L 56.609,45.316 L 55.625,45.316 M 60.578,45.347 Q 60.281,45.441 60.016,45.441 Q 58.703,45.441 58.703,43.816 L 58.703,40.629 L 58.078,40.629 L 58.078,39.894 L 58.703,39.894 L 58.703,38.910 L 59.672,38.816 L 59.672,39.894 L 60.734,39.894 L 60.734,40.629 L 59.672,40.629 L 59.672,43.644 Q 59.672,44.285 59.781,44.488 Q 59.891,44.707 60.25,44.707 Q 60.438,44.707 60.578,44.644 L 60.578,45.347"></path></g><g fill="#366AFF" fill-rule="evenodd"><path d="M 7.984,37.254 L 7.984,36.347 L 8.016,36.363 Q 8.141,36.410 8.203,36.426 Q 8.75,36.629 8.938,36.676 Q 9.266,36.769 9.531,36.769 Q 10.281,36.769 10.656,36.347 Q 10.984,35.988 10.984,35.316 Q 10.984,34.551 10.484,34.144 Q 9.984,33.722 9.062,33.722 L 8.672,33.722 L 8.672,33.066 L 9,33.066 Q 9.859,33.051 10.328,32.660 Q 10.812,32.269 10.812,31.597 Q 10.812,30.488 9.625,30.488 Q 9,30.488 8.078,30.894 L 8.078,30.035 Q 8.984,29.754 9.672,29.754 Q 10.875,29.754 11.406,30.316 Q 11.797,30.738 11.797,31.441 Q 11.797,32.238 11.234,32.754 Q 10.906,33.066 10.25,33.316 Q 10.828,33.457 11.109,33.629 Q 12.031,34.160 12.031,35.285 Q 12.031,36.285 11.375,36.894 Q 10.719,37.504 9.625,37.504 Q 9.047,37.504 7.984,37.254 M 13.422,37.316 L 13.422,36.457 Q 13.75,35.660 14.562,34.816 L 15.109,34.269 L 15.594,33.769 Q 16.547,32.785 16.547,31.785 Q 16.547,31.082 16.188,30.754 Q 15.891,30.488 15.359,30.488 Q 14.672,30.488 13.594,31.082 L 13.594,30.207 Q 14.609,29.754 15.484,29.754 Q 16.453,29.754 17.031,30.316 Q 17.594,30.863 17.594,31.816 Q 17.594,32.472 17.312,32.972 Q 17,33.488 16.188,34.222 L 15.844,34.535 Q 14.812,35.472 14.609,36.457 L 17.562,36.457 L 17.562,37.316 L 13.422,37.316 M 21.438,29.754 Q 22.562,29.754 23.219,30.785 Q 23.875,31.816 23.875,33.597 Q 23.875,35.426 23.219,36.457 Q 22.562,37.504 21.406,37.504 Q 20.422,37.504 19.797,36.660 Q 19,35.597 19,33.613 Q 19,31.816 19.656,30.785 Q 20.312,29.754 21.438,29.754 M 21.438,30.488 Q 20.766,30.488 20.406,31.301 Q 20.047,32.129 20.047,33.613 Q 20.047,35.097 20.406,35.941 Q 20.766,36.769 21.438,36.769 Q 22.047,36.769 22.375,36.160 Q 22.828,35.347 22.828,33.613 Q 22.828,32.097 22.469,31.301 Q 22.094,30.488 21.438,30.488 M 27.125,29.754 Q 28.25,29.754 28.906,30.785 Q 29.562,31.816 29.562,33.597 Q 29.562,35.426 28.906,36.457 Q 28.25,37.504 27.094,37.504 Q 26.109,37.504 25.484,36.660 Q 24.688,35.597 24.688,33.613 Q 24.688,31.816 25.344,30.785 Q 26,29.754 27.125,29.754 M 27.125,30.488 Q 26.453,30.488 26.094,31.301 Q 25.734,32.129 25.734,33.613 Q 25.734,35.097 26.094,35.941 Q 26.453,36.769 27.125,36.769 Q 27.734,36.769 28.062,36.160 Q 28.516,35.347 28.516,33.613 Q 28.516,32.097 28.156,31.301 Q 27.781,30.488 27.125,30.488 M 30.844,37.316 L 30.844,32.629 L 30.125,32.629 L 30.125,31.894 L 30.844,31.894 L 30.844,31.254 Q 30.844,29.316 32.375,29.316 Q 32.703,29.316 33.109,29.441 L 33.109,30.222 Q 32.75,30.051 32.484,30.051 Q 32.125,30.051 31.969,30.301 Q 31.828,30.535 31.828,31.144 L 31.828,31.894 L 32.797,31.894 L 32.797,32.629 L 31.828,32.629 L 31.828,37.316 L 30.844,37.316 M 35.797,37.347 Q 35.5,37.441 35.234,37.441 Q 33.922,37.441 33.922,35.816 L 33.922,32.629 L 33.297,32.629 L 33.297,31.894 L 33.922,31.894 L 33.922,30.910 L 34.891,30.816 L 34.891,31.894 L 35.953,31.894 L 35.953,32.629 L 34.891,32.629 L 34.891,35.644 Q 34.891,36.285 35,36.488 Q 35.109,36.707 35.469,36.707 Q 35.656,36.707 35.797,36.644 L 35.797,37.347"></path></g><g fill="#366AFF" fill-rule="evenodd" stroke="#366AFF" stroke-width="0.5" stroke-linecap="round" stroke-linejoin="round"><path d="M 37,13.652 L 43,13.652 Z"></path></g><g fill="rgba(0,0,0,0)" fill-rule="evenodd"><path d="M 32.766,25.589 L 32.766,24.683 L 32.797,24.698 Q 32.922,24.745 32.984,24.761 Q 33.531,24.964 33.719,25.011 Q 34.047,25.105 34.312,25.105 Q 35.062,25.105 35.438,24.683 Q 35.766,24.323 35.766,23.652 Q 35.766,22.886 35.266,22.480 Q 34.766,22.058 33.844,22.058 L 33.453,22.058 L 33.453,21.402 L 33.781,21.402 Q 34.641,21.386 35.109,20.995 Q 35.594,20.605 35.594,19.933 Q 35.594,18.823 34.406,18.823 Q 33.781,18.823 32.859,19.230 L 32.859,18.37 Q 33.766,18.089 34.453,18.089 Q 35.656,18.089 36.188,18.652 Q 36.578,19.073 36.578,19.777 Q 36.578,20.573 36.016,21.089 Q 35.688,21.402 35.031,21.652 Q 35.609,21.792 35.891,21.964 Q 36.812,22.495 36.812,23.62 Q 36.812,24.62 36.156,25.230 Q 35.5,25.839 34.406,25.839 Q 33.828,25.839 32.766,25.589 M 38.453,25.589 L 38.453,24.683 L 38.484,24.698 Q 38.609,24.745 38.672,24.761 Q 39.219,24.964 39.406,25.011 Q 39.734,25.105 40,25.105 Q 40.75,25.105 41.125,24.683 Q 41.453,24.323 41.453,23.652 Q 41.453,22.886 40.953,22.480 Q 40.453,22.058 39.531,22.058 L 39.141,22.058 L 39.141,21.402 L 39.469,21.402 Q 40.328,21.386 40.797,20.995 Q 41.281,20.605 41.281,19.933 Q 41.281,18.823 40.094,18.823 Q 39.469,18.823 38.547,19.230 L 38.547,18.37 Q 39.453,18.089 40.141,18.089 Q 41.344,18.089 41.875,18.652 Q 42.266,19.073 42.266,19.777 Q 42.266,20.573 41.703,21.089 Q 41.375,21.402 40.719,21.652 Q 41.297,21.792 41.578,21.964 Q 42.5,22.495 42.5,23.62 Q 42.5,24.62 41.844,25.230 Q 41.188,25.839 40.094,25.839 Q 39.516,25.839 38.453,25.589 M 46.219,18.089 Q 47.344,18.089 48,19.12 Q 48.656,20.152 48.656,21.933 Q 48.656,23.761 48,24.792 Q 47.344,25.839 46.188,25.839 Q 45.203,25.839 44.578,24.995 Q 43.781,23.933 43.781,21.948 Q 43.781,20.152 44.438,19.12 Q 45.094,18.089 46.219,18.089 M 46.219,18.823 Q 45.547,18.823 45.188,19.636 Q 44.828,20.464 44.828,21.948 Q 44.828,23.433 45.188,24.277 Q 45.547,25.105 46.219,25.105 Q 46.828,25.105 47.156,24.495 Q 47.609,23.683 47.609,21.948 Q 47.609,20.433 47.25,19.636 Q 46.875,18.823 46.219,18.823 M 51.906,18.089 Q 53.031,18.089 53.688,19.12 Q 54.344,20.152 54.344,21.933 Q 54.344,23.761 53.688,24.792 Q 53.031,25.839 51.875,25.839 Q 50.891,25.839 50.266,24.995 Q 49.469,23.933 49.469,21.948 Q 49.469,20.152 50.125,19.12 Q 50.781,18.089 51.906,18.089 M 51.906,18.823 Q 51.234,18.823 50.875,19.636 Q 50.516,20.464 50.516,21.948 Q 50.516,23.433 50.875,24.277 Q 51.234,25.105 51.906,25.105 Q 52.516,25.105 52.844,24.495 Q 53.297,23.683 53.297,21.948 Q 53.297,20.433 52.938,19.636 Q 52.562,18.823 51.906,18.823 M 55.625,25.652 L 55.625,20.964 L 54.906,20.964 L 54.906,20.230 L 55.625,20.230 L 55.625,19.589 Q 55.625,17.652 57.156,17.652 Q 57.484,17.652 57.891,17.777 L 57.891,18.558 Q 57.531,18.386 57.266,18.386 Q 56.906,18.386 56.75,18.636 Q 56.609,18.87 56.609,19.480 L 56.609,20.230 L 57.578,20.230 L 57.578,20.964 L 56.609,20.964 L 56.609,25.652 L 55.625,25.652 M 60.578,25.683 Q 60.281,25.777 60.016,25.777 Q 58.703,25.777 58.703,24.152 L 58.703,20.964 L 58.078,20.964 L 58.078,20.230 L 58.703,20.230 L 58.703,19.245 L 59.672,19.152 L 59.672,20.230 L 60.734,20.230 L 60.734,20.964 L 59.672,20.964 L 59.672,23.980 Q 59.672,24.62 59.781,24.823 Q 59.891,25.042 60.25,25.042 Q 60.438,25.042 60.578,24.980 L 60.578,25.683"></path></g><g fill="#366AFF" fill-rule="evenodd"><path d="M 7.984,17.589 L 7.984,16.683 L 8.016,16.698 Q 8.141,16.745 8.203,16.761 Q 8.75,16.964 8.938,17.011 Q 9.266,17.105 9.531,17.105 Q 10.281,17.105 10.656,16.683 Q 10.984,16.323 10.984,15.652 Q 10.984,14.886 10.484,14.480 Q 9.984,14.058 9.062,14.058 L 8.672,14.058 L 8.672,13.402 L 9,13.402 Q 9.859,13.386 10.328,12.995 Q 10.812,12.605 10.812,11.933 Q 10.812,10.823 9.625,10.823 Q 9,10.823 8.078,11.230 L 8.078,10.37 Q 8.984,10.089 9.672,10.089 Q 10.875,10.089 11.406,10.652 Q 11.797,11.073 11.797,11.777 Q 11.797,12.573 11.234,13.089 Q 10.906,13.402 10.25,13.652 Q 10.828,13.792 11.109,13.964 Q 12.031,14.495 12.031,15.62 Q 12.031,16.62 11.375,17.230 Q 10.719,17.839 9.625,17.839 Q 9.047,17.839 7.984,17.589 M 13.672,17.589 L 13.672,16.683 L 13.703,16.698 Q 13.828,16.745 13.891,16.761 Q 14.438,16.964 14.625,17.011 Q 14.953,17.105 15.219,17.105 Q 15.969,17.105 16.344,16.683 Q 16.672,16.323 16.672,15.652 Q 16.672,14.886 16.172,14.480 Q 15.672,14.058 14.75,14.058 L 14.359,14.058 L 14.359,13.402 L 14.688,13.402 Q 15.547,13.386 16.016,12.995 Q 16.5,12.605 16.5,11.933 Q 16.5,10.823 15.312,10.823 Q 14.688,10.823 13.766,11.230 L 13.766,10.37 Q 14.672,10.089 15.359,10.089 Q 16.562,10.089 17.094,10.652 Q 17.484,11.073 17.484,11.777 Q 17.484,12.573 16.922,13.089 Q 16.594,13.402 15.938,13.652 Q 16.516,13.792 16.797,13.964 Q 17.719,14.495 17.719,15.62 Q 17.719,16.62 17.062,17.230 Q 16.406,17.839 15.312,17.839 Q 14.734,17.839 13.672,17.589 M 21.438,10.089 Q 22.562,10.089 23.219,11.12 Q 23.875,12.152 23.875,13.933 Q 23.875,15.761 23.219,16.792 Q 22.562,17.839 21.406,17.839 Q 20.422,17.839 19.797,16.995 Q 19,15.933 19,13.948 Q 19,12.152 19.656,11.12 Q 20.312,10.089 21.438,10.089 M 21.438,10.823 Q 20.766,10.823 20.406,11.636 Q 20.047,12.464 20.047,13.948 Q 20.047,15.433 20.406,16.277 Q 20.766,17.105 21.438,17.105 Q 22.047,17.105 22.375,16.495 Q 22.828,15.683 22.828,13.948 Q 22.828,12.433 22.469,11.636 Q 22.094,10.823 21.438,10.823 M 27.125,10.089 Q 28.25,10.089 28.906,11.12 Q 29.562,12.152 29.562,13.933 Q 29.562,15.761 28.906,16.792 Q 28.25,17.839 27.094,17.839 Q 26.109,17.839 25.484,16.995 Q 24.688,15.933 24.688,13.948 Q 24.688,12.152 25.344,11.12 Q 26,10.089 27.125,10.089 M 27.125,10.823 Q 26.453,10.823 26.094,11.636 Q 25.734,12.464 25.734,13.948 Q 25.734,15.433 26.094,16.277 Q 26.453,17.105 27.125,17.105 Q 27.734,17.105 28.062,16.495 Q 28.516,15.683 28.516,13.948 Q 28.516,12.433 28.156,11.636 Q 27.781,10.823 27.125,10.823 M 30.844,17.652 L 30.844,12.964 L 30.125,12.964 L 30.125,12.230 L 30.844,12.230 L 30.844,11.589 Q 30.844,9.652 32.375,9.652 Q 32.703,9.652 33.109,9.777 L 33.109,10.558 Q 32.75,10.386 32.484,10.386 Q 32.125,10.386 31.969,10.636 Q 31.828,10.87 31.828,11.480 L 31.828,12.230 L 32.797,12.230 L 32.797,12.964 L 31.828,12.964 L 31.828,17.652 L 30.844,17.652 M 35.797,17.683 Q 35.5,17.777 35.234,17.777 Q 33.922,17.777 33.922,16.152 L 33.922,12.964 L 33.297,12.964 L 33.297,12.230 L 33.922,12.230 L 33.922,11.245 L 34.891,11.152 L 34.891,12.230 L 35.953,12.230 L 35.953,12.964 L 34.891,12.964 L 34.891,15.980 Q 34.891,16.62 35,16.823 Q 35.109,17.042 35.469,17.042 Q 35.656,17.042 35.797,16.980 L 35.797,17.683"></path></g></svg>