<svg xmlns="http://www.w3.org/2000/svg" fill="none" stroke="none"><defs></defs><g fill="#FFFFFF" fill-rule="evenodd" stroke="#FFFFFF" stroke-width="0" stroke-linecap="round" stroke-linejoin="round"><path d="M 0,0 L 200,0 L 200,100 L 0,100 Z"></path></g><g fill="#FFFFFF" fill-rule="evenodd" stroke="#E0E0E0" stroke-width="0.5" stroke-linecap="round" stroke-linejoin="round"><path d="M 40.510,80 L 40.510,0 Z"></path></g><g fill="#FFFFFF" fill-rule="evenodd" stroke="#E0E0E0" stroke-width="0.5" stroke-linecap="round" stroke-linejoin="round"><path d="M 53.249,80 L 53.249,0 Z"></path></g><g fill="#FFFFFF" fill-rule="evenodd" stroke="#E0E0E0" stroke-width="0.5" stroke-linecap="round" stroke-linejoin="round"><path d="M 65.988,80 L 65.988,0 Z"></path></g><g fill="#FFFFFF" fill-rule="evenodd" stroke="#E0E0E0" stroke-width="0.5" stroke-linecap="round" stroke-linejoin="round"><path d="M 78.727,80 L 78.727,0 Z"></path></g><g fill="#FFFFFF" fill-rule="evenodd" stroke="#E0E0E0" stroke-width="0.5" stroke-linecap="round" stroke-linejoin="round"><path d="M 91.467,80 L 91.467,0 Z"></path></g><g fill="#FFFFFF" fill-rule="evenodd" stroke="#E0E0E0" stroke-width="0.5" stroke-linecap="round" stroke-linejoin="round"><path d="M 104.206,80 L 104.206,0 Z"></path></g><g fill="#FFFFFF" fill-rule="evenodd" stroke="#E0E0E0" stroke-width="0.5" stroke-linecap="round" stroke-linejoin="round"><path d="M 116.945,80 L 116.945,0 Z"></path></g><g fill="#FFFFFF" fill-rule="evenodd" stroke="#E0E0E0" stroke-width="0.5" stroke-linecap="round" stroke-linejoin="round"><path d="M 129.684,80 L 129.684,0 Z"></path></g><g fill="#FFFFFF" fill-rule="evenodd" stroke="#E0E0E0" stroke-width="0.5" stroke-linecap="round" stroke-linejoin="round"><path d="M 142.424,80 L 142.424,0 Z"></path></g><g fill="#FFFFFF" fill-rule="evenodd" stroke="#E0E0E0" stroke-width="0.5" stroke-linecap="round" stroke-linejoin="round"><path d="M 155.163,80 L 155.163,0 Z"></path></g><g fill="#FFFFFF" fill-rule="evenodd" stroke="#E0E0E0" stroke-width="0.5" stroke-linecap="round" stroke-linejoin="round"><path d="M 167.902,80 L 167.902,0 Z"></path></g><g fill="#FFFFFF" fill-rule="evenodd" stroke="#E0E0E0" stroke-width="0.5" stroke-linecap="round" stroke-linejoin="round"><path d="M 180.641,80 L 180.641,0 Z"></path></g><g fill="#FFFFFF" fill-rule="evenodd" stroke="#E0E0E0" stroke-width="0.5" stroke-linecap="round" stroke-linejoin="round"><path d="M 193.381,80 L 193.381,0 Z"></path></g><g fill="#FFFFFF" fill-rule="evenodd" stroke="#E0E0E0" stroke-width="0.5" stroke-linecap="round" stroke-linejoin="round"><path d="M 40,79.427 L 200,79.427 Z"></path></g><g fill="#FFFFFF" fill-rule="evenodd" stroke="#E0E0E0" stroke-width="0.5" stroke-linecap="round" stroke-linejoin="round"><path d="M 40,65.090 L 200,65.090 Z"></path></g><g fill="#FFFFFF" fill-rule="evenodd" stroke="#E0E0E0" stroke-width="0.5" stroke-linecap="round" stroke-linejoin="round"><path d="M 40,50.753 L 200,50.753 Z"></path></g><g fill="#FFFFFF" fill-rule="evenodd" stroke="#E0E0E0" stroke-width="0.5" stroke-linecap="round" stroke-linejoin="round"><path d="M 40,36.416 L 200,36.416 Z"></path></g><g fill="#FFFFFF" fill-rule="evenodd" stroke="#E0E0E0" stroke-width="0.5" stroke-linecap="round" stroke-linejoin="round"><path d="M 40,22.079 L 200,22.079 Z"></path></g><g fill="#FFFFFF" fill-rule="evenodd" stroke="#E0E0E0" stroke-width="0.5" stroke-linecap="round" stroke-linejoin="round"><path d="M 40,7.742 L 200,7.742 Z"></path></g><g fill="rgba(16,16,16,0.251)" fill-rule="evenodd" stroke="rgba(0,0,0,0.686)" stroke-width="0.5" stroke-linecap="round" stroke-linejoin="round"><path d="M 40.510,80 L 40.510,78.566 L 40.980,74.265 L 41.263,74.552 L 42.117,75.125 L 42.385,75.125 L 42.655,75.125 L 42.940,74.839 L 43.202,75.412 L 43.478,74.839 L 43.769,75.125 L 44.047,74.839 L 44.327,74.552 L 44.574,74.839 L 44.845,74.839 L 45.413,74.265 L 46.297,73.118 L 46.646,72.832 L 46.897,71.971 L 47.165,71.398 L 47.425,70.824 L 47.668,69.964 L 47.94,69.964 L 48.37,67.097 L 48.637,65.663 L 48.927,64.516 L 49.243,64.229 L 49.484,63.943 L 49.748,63.656 L 50.028,63.369 L 50.316,63.369 L 50.583,63.369 L 50.857,64.229 L 51.122,64.803 L 51.391,64.516 L 51.641,64.803 L 51.9,64.803 L 52.164,64.516 L 52.425,63.943 L 52.722,64.229 L 53.02,63.943 L 53.28,63.943 L 53.82,63.369 L 54.079,63.082 L 54.386,62.796 L 54.637,62.509 L 54.861,62.509 L 55.135,61.649 L 55.486,60.502 L 55.751,61.649 L 56.025,61.935 L 56.326,61.362 L 56.632,61.075 L 57.103,59.928 L 57.403,59.642 L 57.701,59.355 L 58.074,58.781 L 58.408,59.068 L 59.174,56.201 L 59.721,55.627 L 59.989,56.201 L 60.221,55.914 L 60.781,55.627 L 61.341,55.054 L 62.231,55.054 L 62.585,55.054 L 63.006,54.767 L 63.442,54.767 L 63.812,54.767 L 64.136,54.767 L 64.446,54.767 L 64.734,54.767 L 65.043,54.767 L 65.348,54.767 L 65.645,54.767 L 65.933,54.767 L 66.212,54.767 L 66.484,54.48 L 66.754,54.48 L 67.086,53.907 L 67.364,53.62 L 68.261,53.62 L 68.566,53.62 L 68.849,53.62 L 69.172,53.62 L 69.473,53.62 L 69.770,53.62 L 70.063,53.333 L 70.334,53.333 L 70.583,54.194 L 70.837,54.48 L 71.098,54.767 L 71.374,54.767 L 71.657,55.054 L 71.946,55.054 L 72.206,55.054 L 72.467,54.767 L 72.746,54.767 L 73.009,54.48 L 73.29,54.767 L 73.555,54.767 L 73.806,54.767 L 74.078,54.767 L 74.326,54.767 L 74.86,54.767 L 75.385,53.333 L 75.675,53.333 L 75.965,53.62 L 76.229,53.907 L 76.516,53.907 L 77.199,53.907 L 77.478,53.907 L 77.771,53.907 L 78.046,53.907 L 78.329,53.907 L 78.599,53.907 L 78.854,53.907 L 79.109,54.194 L 79.371,54.194 L 79.615,54.48 L 79.865,54.48 L 80.118,54.48 L 80.387,54.767 L 80.81,54.767 L 81.071,54.48 L 81.345,54.48 L 81.624,54.194 L 81.887,53.907 L 82.132,53.62 L 82.434,53.047 L 82.689,51.613 L 82.924,52.473 L 83.187,52.186 L 83.440,51.900 L 83.71,51.613 L 83.966,51.326 L 84.213,51.039 L 84.532,49.892 L 84.794,49.032 L 85.357,49.606 L 85.899,49.319 L 86.168,49.032 L 86.459,49.319 L 86.865,48.746 L 87.658,47.312 L 88.033,46.452 L 88.376,46.452 L 88.632,46.165 L 89.145,44.444 L 89.485,43.297 L 89.724,42.724 L 90.101,43.297 L 90.771,41.864 L 91.037,40.143 L 91.322,37.563 L 91.598,36.416 L 91.864,35.269 L 92.137,34.122 L 92.563,33.548 L 92.858,33.548 L 93.503,32.688 L 93.895,31.541 L 94.192,30.394 L 94.467,29.821 L 94.743,29.247 L 94.993,28.387 L 95.253,28.1 L 95.531,28.1 L 95.782,27.814 L 96.031,27.814 L 96.284,27.24 L 96.944,26.667 L 97.824,25.233 L 98.175,24.659 L 98.358,22.652 L 98.613,22.652 L 99.105,21.219 L 99.371,20.932 L 99.634,20.645 L 99.878,20.358 L 100.142,20.072 L 100.408,19.785 L 100.666,19.211 L 100.921,18.351 L 101.189,17.778 L 101.453,17.204 L 101.712,16.344 L 101.955,16.057 L 102.194,15.771 L 102.476,14.91 L 102.730,14.624 L 103.062,13.763 L 103.350,13.190 L 103.67,12.903 L 103.89,13.477 L 104.109,12.903 L 104.402,13.190 L 104.628,13.763 L 104.910,13.477 L 105.188,12.616 L 105.44,12.043 L 105.700,11.756 L 105.950,11.183 L 106.180,10.896 L 106.429,10.323 L 106.665,9.176 L 107.074,8.602 L 107.341,8.029 L 107.58,7.742 L 107.843,7.455 L 108.102,7.455 L 108.361,7.168 L 108.611,7.168 L 108.882,6.882 L 109.13,6.308 L 109.502,6.022 L 109.766,5.448 L 110.014,5.161 L 110.266,4.875 L 110.530,4.588 L 110.784,4.301 L 111.051,4.301 L 111.278,4.014 L 111.52,4.014 L 111.793,3.728 L 112.048,3.728 L 112.282,2.867 L 112.536,2.867 L 112.932,3.728 L 113.184,3.728 L 113.441,4.301 L 113.716,4.588 L 113.970,4.875 L 114.249,5.161 L 114.518,5.735 L 114.778,6.595 L 115.058,7.168 L 115.324,7.742 L 115.582,8.315 L 115.839,8.602 L 116.095,9.176 L 116.371,9.749 L 116.628,10.323 L 116.903,10.609 L 117.171,11.183 L 117.421,11.470 L 117.674,12.043 L 117.940,12.330 L 118.199,12.616 L 118.484,12.903 L 118.750,13.477 L 119.014,13.763 L 119.26,14.337 L 119.502,14.624 L 119.763,15.197 L 120.021,15.484 L 120.285,15.771 L 120.557,16.344 L 120.841,16.631 L 121.106,16.918 L 121.388,17.204 L 121.646,17.204 L 121.925,17.491 L 122.205,17.491 L 122.467,17.491 L 122.712,17.778 L 122.977,17.778 L 123.220,17.778 L 123.491,17.778 L 123.744,18.065 L 124.006,18.351 L 124.273,18.351 L 124.535,18.351 L 124.808,18.065 L 125.057,18.351 L 125.335,18.638 L 125.601,18.351 L 125.86,18.351 L 126.13,17.491 L 126.413,17.204 L 126.682,17.204 L 126.941,17.204 L 127.197,17.491 L 127.462,17.491 L 127.716,17.491 L 127.983,17.778 L 128.236,17.778 L 128.490,17.491 L 128.765,17.778 L 129.029,18.065 L 129.294,18.065 L 129.555,18.065 L 129.789,18.065 L 130.055,18.351 L 130.313,18.925 L 130.581,19.211 L 130.845,19.498 L 131.117,19.498 L 131.379,19.211 L 131.63,19.211 L 131.899,18.638 L 132.109,18.925 L 132.416,18.638 L 132.681,18.925 L 132.944,18.925 L 133.2,18.925 L 133.469,18.638 L 133.741,18.351 L 134.01,18.065 L 134.278,17.491 L 134.556,17.491 L 134.816,17.204 L 135.103,16.918 L 135.378,16.918 L 135.653,17.204 L 135.918,17.204 L 136.185,17.491 L 136.448,17.778 L 136.726,17.778 L 137.002,18.065 L 137.286,18.351 L 137.554,18.925 L 137.801,19.211 L 138.080,19.211 L 138.388,19.498 L 138.661,19.498 L 138.919,19.785 L 139.167,20.072 L 139.443,20.358 L 139.723,20.358 L 139.98,20.645 L 140.229,20.932 L 140.478,21.505 L 140.735,21.505 L 140.994,22.079 L 141.245,22.366 L 141.505,22.652 L 141.794,22.939 L 142.075,23.226 L 142.337,23.799 L 142.588,24.373 L 142.846,25.233 L 143.091,26.093 L 143.331,26.380 L 143.591,26.953 L 143.856,27.814 L 144.117,28.387 L 144.385,29.534 L 144.641,30.108 L 144.897,30.681 L 145.161,31.254 L 145.416,32.115 L 145.67,32.688 L 145.913,33.548 L 146.138,34.122 L 146.411,34.122 L 146.688,33.835 L 146.964,33.835 L 147.228,34.122 L 147.498,34.122 L 147.746,34.695 L 148.028,34.695 L 148.278,34.982 L 148.579,35.269 L 148.837,35.842 L 149.099,36.129 L 149.365,36.416 L 149.639,35.842 L 149.934,35.842 L 150.200,36.416 L 150.455,36.989 L 150.706,36.989 L 150.938,37.276 L 151.213,37.563 L 151.490,37.849 L 151.765,38.423 L 152.015,38.710 L 152.269,39.283 L 152.529,40.43 L 152.792,40.717 L 153.063,41.29 L 153.360,40.43 L 153.624,39.857 L 153.906,39.857 L 154.162,39.857 L 154.418,39.857 L 154.688,40.143 L 154.956,39.857 L 155.212,39.857 L 155.481,39.570 L 155.734,41.004 L 156.013,42.151 L 156.338,43.871 L 156.601,44.444 L 156.86,45.018 L 157.114,45.878 L 157.319,47.599 L 157.603,47.599 L 157.873,48.172 L 158.14,48.172 L 158.403,47.885 L 158.660,48.172 L 158.913,47.885 L 159.186,48.172 L 159.417,48.459 L 159.691,48.746 L 159.949,49.032 L 160.215,49.892 L 160.497,50.179 L 160.753,50.466 L 161.011,50.466 L 161.263,51.039 L 161.52,51.326 L 161.805,51.900 L 162.073,52.186 L 162.332,52.760 L 162.585,53.62 L 162.875,53.62 L 163.15,54.194 L 163.412,54.767 L 163.688,55.627 L 163.982,56.201 L 164.246,56.774 L 164.504,57.061 L 164.718,56.774 L 164.985,56.774 L 165.256,57.348 L 165.510,58.208 L 165.785,58.495 L 166.066,58.495 L 166.322,59.068 L 166.578,59.642 L 166.852,60.215 L 167.117,60.502 L 167.391,60.789 L 167.658,61.362 L 167.937,61.649 L 168.207,61.935 L 168.466,61.935 L 168.728,62.222 L 168.987,62.796 L 169.266,63.082 L 169.536,62.796 L 169.802,63.082 L 170.068,63.656 L 170.333,63.943 L 170.607,64.516 L 170.862,65.090 L 171.135,65.663 L 171.397,65.950 L 171.724,65.950 L 171.950,66.523 L 172.206,66.81 L 172.476,67.097 L 172.752,67.67 L 173.023,67.957 L 173.3,67.957 L 173.559,68.53 L 173.814,68.53 L 174.086,68.817 L 174.344,69.104 L 174.592,69.391 L 174.87,69.677 L 175.153,69.964 L 175.430,70.251 L 175.686,70.538 L 175.954,70.538 L 176.24,70.824 L 176.510,70.824 L 176.777,70.824 L 177.087,70.824 L 177.377,71.111 L 177.654,71.111 L 177.899,71.398 L 178.161,71.398 L 178.434,71.685 L 178.731,71.685 L 179.006,72.258 L 179.293,72.258 L 179.559,72.545 L 179.822,72.258 L 180.121,72.258 L 180.417,72.258 L 180.714,72.258 L 180.983,72.545 L 181.517,72.545 L 182.055,72.832 L 182.864,72.832 L 184.718,72.832 L 185.338,72.832 L 185.62,72.832 L 186.746,72.832 L 187.113,72.832 L 189.806,72.832 L 190.360,72.832 L 191.012,73.405 L 193.519,73.692 L 194.786,74.265 L 195.163,74.839 L 196.091,74.839 L 198.132,75.125 L 198.470,75.125 L 198.777,75.412 L 199.07,75.699 L 199.49,73.692 L 199.49,80 L 40.510,80 Z"></path></g><g fill="rgba(16,16,16,0.251)" fill-rule="evenodd" stroke="rgba(0,0,0,0.686)" stroke-width="0.5" stroke-linecap="round" stroke-linejoin="round"><path d="M 40.510,80 L 40.510,80 L 40.980,80 L 41.263,80 L 42.117,80 L 42.385,80 L 42.655,80 L 42.940,80 L 43.202,80 L 43.478,80 L 43.769,80 L 44.047,80 L 44.327,80 L 44.574,80 L 44.845,80 L 45.413,80 L 46.297,80 L 46.646,80 L 46.897,80 L 47.165,80 L 47.425,80 L 47.668,80 L 47.94,80 L 48.37,80 L 48.637,80 L 48.927,80 L 49.243,80 L 49.484,80 L 49.748,80 L 50.028,80 L 50.316,80 L 50.583,80 L 50.857,80 L 51.122,80 L 51.391,80 L 51.641,80 L 51.9,80 L 52.164,80 L 52.425,80 L 52.722,80 L 53.02,80 L 53.28,80 L 53.82,80 L 54.079,80 L 54.386,80 L 54.637,80 L 54.861,80 L 55.135,80 L 55.486,80 L 55.751,80 L 56.025,80 L 56.326,80 L 56.632,80 L 57.103,80 L 57.403,80 L 57.701,80 L 58.074,80 L 58.408,80 L 59.174,80 L 59.721,80 L 59.989,80 L 60.221,80 L 60.781,80 L 61.341,80 L 62.231,80 L 62.585,80 L 63.006,80 L 63.442,80 L 63.812,80 L 64.136,80 L 64.446,80 L 64.734,80 L 65.043,80 L 65.348,80 L 65.645,80 L 65.933,80 L 66.212,80 L 66.484,80 L 66.754,80 L 67.086,80 L 67.364,80 L 68.261,80 L 68.566,80 L 68.849,80 L 69.172,80 L 69.473,80 L 69.770,80 L 70.063,80 L 70.334,80 L 70.583,80 L 70.837,80 L 71.098,80 L 71.374,80 L 71.657,80 L 71.946,80 L 72.206,80 L 72.467,80 L 72.746,80 L 73.009,80 L 73.29,80 L 73.555,80 L 73.806,80 L 74.078,80 L 74.326,80 L 74.86,80 L 75.385,80 L 75.675,80 L 75.965,80 L 76.229,80 L 76.516,80 L 77.199,80 L 77.478,80 L 77.771,80 L 78.046,80 L 78.329,80 L 78.599,80 L 78.854,80 L 79.109,80 L 79.371,80 L 79.615,80 L 79.865,80 L 80.118,80 L 80.387,80 L 80.81,80 L 81.071,80 L 81.345,80 L 81.624,80 L 81.887,80 L 82.132,80 L 82.434,80 L 82.689,80 L 82.924,80 L 83.187,80 L 83.440,80 L 83.71,80 L 83.966,80 L 84.213,80 L 84.532,80 L 84.794,80 L 85.357,80 L 85.899,80 L 86.168,80 L 86.459,80 L 86.865,80 L 87.658,80 L 88.033,80 L 88.376,80 L 88.632,80 L 89.145,80 L 89.485,80 L 89.724,80 L 90.101,80 L 90.771,80 L 91.037,80 L 91.322,80 L 91.598,80 L 91.864,80 L 92.137,80 L 92.563,80 L 92.858,80 L 93.503,80 L 93.895,80 L 94.192,80 L 94.467,80 L 94.743,80 L 94.993,80 L 95.253,80 L 95.531,80 L 95.782,80 L 96.031,80 L 96.284,80 L 96.944,80 L 97.824,80 L 98.175,80 L 98.358,80 L 98.613,80 L 99.105,80 L 99.371,80 L 99.634,80 L 99.878,80 L 100.142,80 L 100.408,80 L 100.666,80 L 100.921,80 L 101.189,80 L 101.453,80 L 101.712,80 L 101.955,80 L 102.194,80 L 102.476,80 L 102.730,80 L 103.062,80 L 103.350,80 L 103.67,80 L 103.89,80 L 104.109,80 L 104.402,80 L 104.628,80 L 104.910,80 L 105.188,80 L 105.44,80 L 105.700,80 L 105.950,80 L 106.180,80 L 106.429,80 L 106.665,80 L 107.074,80 L 107.341,80 L 107.58,80 L 107.843,80 L 108.102,80 L 108.361,80 L 108.611,80 L 108.882,80 L 109.13,80 L 109.502,80 L 109.766,80 L 110.014,80 L 110.266,80 L 110.530,80 L 110.784,80 L 111.051,80 L 111.278,80 L 111.52,80 L 111.793,80 L 112.048,80 L 112.282,80 L 112.536,80 L 112.932,80 L 113.184,80 L 113.441,80 L 113.716,80 L 113.970,80 L 114.249,80 L 114.518,80 L 114.778,80 L 115.058,80 L 115.324,80 L 115.582,80 L 115.839,80 L 116.095,80 L 116.371,80 L 116.628,80 L 116.903,80 L 117.171,80 L 117.421,80 L 117.674,80 L 117.940,80 L 118.199,80 L 118.484,80 L 118.750,80 L 119.014,80 L 119.26,80 L 119.502,80 L 119.763,80 L 120.021,80 L 120.285,80 L 120.557,80 L 120.841,80 L 121.106,80 L 121.388,80 L 121.646,80 L 121.925,80 L 122.205,80 L 122.467,80 L 122.712,80 L 122.977,80 L 123.220,80 L 123.491,80 L 123.744,80 L 124.006,80 L 124.273,80 L 124.535,80 L 124.808,80 L 125.057,80 L 125.335,80 L 125.601,80 L 125.86,80 L 126.13,80 L 126.413,80 L 126.682,80 L 126.941,80 L 127.197,80 L 127.462,80 L 127.716,80 L 127.983,80 L 128.236,80 L 128.490,80 L 128.765,80 L 129.029,80 L 129.294,80 L 129.555,80 L 129.789,80 L 130.055,80 L 130.313,80 L 130.581,80 L 130.845,80 L 131.117,80 L 131.379,80 L 131.63,80 L 131.899,80 L 132.109,80 L 132.416,80 L 132.681,80 L 132.944,80 L 133.2,80 L 133.469,80 L 133.741,80 L 134.01,80 L 134.278,80 L 134.556,80 L 134.816,80 L 135.103,80 L 135.378,80 L 135.653,80 L 135.918,80 L 136.185,80 L 136.448,80 L 136.726,80 L 137.002,80 L 137.286,80 L 137.554,80 L 137.801,80 L 138.080,80 L 138.388,80 L 138.661,80 L 138.919,80 L 139.167,80 L 139.443,80 L 139.723,80 L 139.98,80 L 140.229,80 L 140.478,80 L 140.735,80 L 140.994,80 L 141.245,80 L 141.505,80 L 141.794,80 L 142.075,80 L 142.337,80 L 142.588,80 L 142.846,80 L 143.091,80 L 143.331,80 L 143.591,80 L 143.856,80 L 144.117,80 L 144.385,80 L 144.641,80 L 144.897,80 L 145.161,80 L 145.416,80 L 145.67,80 L 145.913,80 L 146.138,80 L 146.411,80 L 146.688,80 L 146.964,80 L 147.228,80 L 147.498,80 L 147.746,80 L 148.028,80 L 148.278,80 L 148.579,80 L 148.837,80 L 149.099,80 L 149.365,80 L 149.639,80 L 149.934,80 L 150.200,80 L 150.455,80 L 150.706,80 L 150.938,80 L 151.213,80 L 151.490,80 L 151.765,80 L 152.015,80 L 152.269,80 L 152.529,80 L 152.792,80 L 153.063,80 L 153.360,80 L 153.624,80 L 153.906,80 L 154.162,80 L 154.418,80 L 154.688,80 L 154.956,80 L 155.212,80 L 155.481,80 L 155.734,80 L 156.013,80 L 156.338,80 L 156.601,80 L 156.86,80 L 157.114,80 L 157.319,80 L 157.603,80 L 157.873,80 L 158.14,80 L 158.403,80 L 158.660,80 L 158.913,80 L 159.186,80 L 159.417,80 L 159.691,80 L 159.949,80 L 160.215,80 L 160.497,80 L 160.753,80 L 161.011,80 L 161.263,80 L 161.52,80 L 161.805,80 L 162.073,80 L 162.332,80 L 162.585,80 L 162.875,80 L 163.15,80 L 163.412,80 L 163.688,80 L 163.982,80 L 164.246,80 L 164.504,80 L 164.718,80 L 164.985,80 L 165.256,80 L 165.510,80 L 165.785,80 L 166.066,80 L 166.322,80 L 166.578,80 L 166.852,80 L 167.117,80 L 167.391,80 L 167.658,80 L 167.937,80 L 168.207,80 L 168.466,80 L 168.728,80 L 168.987,80 L 169.266,80 L 169.536,80 L 169.802,80 L 170.068,80 L 170.333,80 L 170.607,80 L 170.862,80 L 171.135,80 L 171.397,80 L 171.724,80 L 171.950,80 L 172.206,80 L 172.476,80 L 172.752,80 L 173.023,80 L 173.3,80 L 173.559,80 L 173.814,80 L 174.086,80 L 174.344,80 L 174.592,80 L 174.87,80 L 175.153,80 L 175.430,80 L 175.686,80 L 175.954,80 L 176.24,80 L 176.510,80 L 176.777,80 L 177.087,80 L 177.377,80 L 177.654,80 L 177.899,80 L 178.161,80 L 178.434,80 L 178.731,80 L 179.006,80 L 179.293,80 L 179.559,80 L 179.822,80 L 180.121,80 L 180.417,80 L 180.714,80 L 180.983,80 L 181.517,80 L 182.055,80 L 182.864,80 L 184.718,80 L 185.338,80 L 185.62,80 L 186.746,80 L 187.113,80 L 189.806,80 L 190.360,80 L 191.012,80 L 193.519,80 L 194.786,80 L 195.163,80 L 196.091,80 L 198.132,80 L 198.470,80 L 198.777,80 L 199.07,80 L 199.49,80 L 199.49,80 L 40.510,80 Z"></path></g><g fill="rgba(16,16,16,0.251)" fill-rule="evenodd" stroke="#366AFF" stroke-width="0.5" stroke-linecap="round" stroke-linejoin="round"><path d="M 40,80 L 200,80 Z"></path></g><g fill="rgba(16,16,16,0.251)" fill-rule="evenodd" stroke="#366AFF" stroke-width="0.5" stroke-linecap="round" stroke-linejoin="round"><path d="M 65.988,77 L 65.988,83 Z"></path></g><g fill="rgba(0,0,0,0)" fill-rule="evenodd"><path d="M 59.426,92 L 59.426,91.078 L 61.269,91.078 L 61.269,83.797 L 59.426,84.266 L 59.426,83.312 L 62.504,82.547 L 62.504,91.078 L 64.347,91.078 L 64.347,92 L 59.426,92 M 66.035,92 L 66.035,82.156 L 67.269,82.156 L 67.269,88.516 L 69.535,85.234 L 70.707,85.234 L 68.551,88.422 L 71.347,92 L 69.863,92 L 67.269,88.531 L 67.269,92 L 66.035,92 M 72.426,92 L 72.426,85.234 L 73.660,85.234 L 73.660,86.5 Q 74.207,85.688 74.551,85.406 Q 74.957,85.078 75.613,85.078 Q 76.426,85.078 76.926,85.609 Q 77.222,85.906 77.441,86.5 Q 77.988,85.672 78.332,85.406 Q 78.738,85.078 79.410,85.078 Q 81.222,85.078 81.222,87.078 L 81.222,92 L 79.988,92 L 79.988,87.266 Q 79.988,86.109 79.082,86.109 Q 78.285,86.109 77.441,87.469 L 77.441,92 L 76.207,92 L 76.207,87.266 Q 76.207,86.109 75.301,86.109 Q 74.504,86.109 73.660,87.469 L 73.660,92 L 72.426,92"></path></g><g fill="#366AFF" fill-rule="evenodd"><path d="M 55.066,92 L 55.066,91.266 L 56.551,91.266 L 56.551,85.438 L 55.066,85.797 L 55.066,85.047 L 57.535,84.438 L 57.535,91.266 L 59.019,91.266 L 59.019,92 L 55.066,92 M 60.379,92 L 60.379,84.125 L 61.363,84.125 L 61.363,89.203 L 63.176,86.578 L 64.113,86.578 L 62.394,89.141 L 64.629,92 L 63.441,92 L 61.363,89.219 L 61.363,92 L 60.379,92 M 65.488,92 L 65.488,86.578 L 66.472,86.578 L 66.472,87.594 Q 66.910,86.953 67.191,86.719 Q 67.519,86.469 68.035,86.469 Q 68.691,86.469 69.097,86.875 Q 69.332,87.125 69.504,87.594 Q 69.941,86.938 70.222,86.719 Q 70.535,86.469 71.082,86.469 Q 72.519,86.469 72.519,88.062 L 72.519,92 L 71.551,92 L 71.535,88.219 Q 71.535,87.281 70.816,87.281 Q 70.176,87.281 69.504,88.375 L 69.504,92 L 68.519,92 L 68.519,88.219 Q 68.519,87.281 67.785,87.281 Q 67.160,87.281 66.472,88.375 L 66.472,92 L 65.488,92"></path></g><g fill="#366AFF" fill-rule="evenodd" stroke="#366AFF" stroke-width="0.5" stroke-linecap="round" stroke-linejoin="round"><path d="M 91.467,77 L 91.467,83 Z"></path></g><g fill="rgba(0,0,0,0)" fill-rule="evenodd"><path d="M 83.982,92 L 83.982,91.141 Q 84.31,90.344 85.123,89.5 L 85.670,88.953 L 86.154,88.453 Q 87.107,87.469 87.107,86.469 Q 87.107,85.766 86.748,85.438 Q 86.451,85.172 85.920,85.172 Q 85.232,85.172 84.154,85.766 L 84.154,84.891 Q 85.170,84.438 86.045,84.438 Q 87.014,84.438 87.592,85 Q 88.154,85.547 88.154,86.5 Q 88.154,87.156 87.873,87.656 Q 87.56,88.172 86.748,88.906 L 86.404,89.219 Q 85.373,90.156 85.170,91.141 L 88.123,91.141 L 88.123,92 L 83.982,92 M 89.920,92 L 89.920,84.125 L 90.904,84.125 L 90.904,89.203 L 92.717,86.578 L 93.654,86.578 L 91.935,89.141 L 94.170,92 L 92.982,92 L 90.904,89.219 L 90.904,92 L 89.920,92 M 95.029,92 L 95.029,86.578 L 96.014,86.578 L 96.014,87.594 Q 96.451,86.953 96.732,86.719 Q 97.06,86.469 97.576,86.469 Q 98.232,86.469 98.639,86.875 Q 98.873,87.125 99.045,87.594 Q 99.482,86.938 99.764,86.719 Q 100.076,86.469 100.623,86.469 Q 102.06,86.469 102.06,88.062 L 102.06,92 L 101.092,92 L 101.076,88.219 Q 101.076,87.281 100.357,87.281 Q 99.717,87.281 99.045,88.375 L 99.045,92 L 98.06,92 L 98.06,88.219 Q 98.06,87.281 97.326,87.281 Q 96.701,87.281 96.014,88.375 L 96.014,92 L 95.029,92"></path></g><g fill="#366AFF" fill-rule="evenodd"><path d="M 82.326,92 L 82.326,91.141 Q 82.654,90.344 83.467,89.5 L 84.014,88.953 L 84.498,88.453 Q 85.451,87.469 85.451,86.469 Q 85.451,85.766 85.092,85.438 Q 84.795,85.172 84.264,85.172 Q 83.576,85.172 82.498,85.766 L 82.498,84.891 Q 83.514,84.438 84.389,84.438 Q 85.357,84.438 85.935,85 Q 86.498,85.547 86.498,86.5 Q 86.498,87.156 86.217,87.656 Q 85.904,88.172 85.092,88.906 L 84.748,89.219 Q 83.717,90.156 83.514,91.141 L 86.467,91.141 L 86.467,92 L 82.326,92 M 88.264,92 L 88.264,84.125 L 89.248,84.125 L 89.248,89.203 L 91.06,86.578 L 91.998,86.578 L 90.279,89.141 L 92.514,92 L 91.326,92 L 89.248,89.219 L 89.248,92 L 88.264,92 M 93.373,92 L 93.373,86.578 L 94.357,86.578 L 94.357,87.594 Q 94.795,86.953 95.076,86.719 Q 95.404,86.469 95.920,86.469 Q 96.576,86.469 96.982,86.875 Q 97.217,87.125 97.389,87.594 Q 97.826,86.938 98.107,86.719 Q 98.420,86.469 98.967,86.469 Q 100.404,86.469 100.404,88.062 L 100.404,92 L 99.435,92 L 99.420,88.219 Q 99.420,87.281 98.701,87.281 Q 98.06,87.281 97.389,88.375 L 97.389,92 L 96.404,92 L 96.404,88.219 Q 96.404,87.281 95.670,87.281 Q 95.045,87.281 94.357,88.375 L 94.357,92 L 93.373,92"></path></g><g fill="#366AFF" fill-rule="evenodd" stroke="#366AFF" stroke-width="0.5" stroke-linecap="round" stroke-linejoin="round"><path d="M 116.945,77 L 116.945,83 Z"></path></g><g fill="rgba(0,0,0,0)" fill-rule="evenodd"><path d="M 109.711,91.938 L 109.711,91.031 L 109.742,91.047 Q 109.867,91.094 109.930,91.109 Q 110.476,91.312 110.664,91.359 Q 110.992,91.453 111.258,91.453 Q 112.008,91.453 112.383,91.031 Q 112.711,90.672 112.711,90 Q 112.711,89.234 112.211,88.828 Q 111.711,88.406 110.789,88.406 L 110.398,88.406 L 110.398,87.75 L 110.726,87.75 Q 111.586,87.734 112.055,87.344 Q 112.539,86.953 112.539,86.281 Q 112.539,85.172 111.351,85.172 Q 110.726,85.172 109.805,85.578 L 109.805,84.719 Q 110.711,84.438 111.398,84.438 Q 112.601,84.438 113.133,85 Q 113.523,85.422 113.523,86.125 Q 113.523,86.922 112.961,87.438 Q 112.633,87.75 111.976,88 Q 112.555,88.141 112.836,88.312 Q 113.758,88.844 113.758,89.969 Q 113.758,90.969 113.101,91.578 Q 112.445,92.188 111.351,92.188 Q 110.773,92.188 109.711,91.938 M 115.398,92 L 115.398,84.125 L 116.383,84.125 L 116.383,89.203 L 118.195,86.578 L 119.133,86.578 L 117.414,89.141 L 119.648,92 L 118.461,92 L 116.383,89.219 L 116.383,92 L 115.398,92 M 120.508,92 L 120.508,86.578 L 121.492,86.578 L 121.492,87.594 Q 121.930,86.953 122.211,86.719 Q 122.539,86.469 123.055,86.469 Q 123.711,86.469 124.117,86.875 Q 124.351,87.125 124.523,87.594 Q 124.961,86.938 125.242,86.719 Q 125.555,86.469 126.101,86.469 Q 127.539,86.469 127.539,88.062 L 127.539,92 L 126.57,92 L 126.555,88.219 Q 126.555,87.281 125.836,87.281 Q 125.195,87.281 124.523,88.375 L 124.523,92 L 123.539,92 L 123.539,88.219 Q 123.539,87.281 122.805,87.281 Q 122.180,87.281 121.492,88.375 L 121.492,92 L 120.508,92"></path></g><g fill="#366AFF" fill-rule="evenodd"><path d="M 108.055,91.938 L 108.055,91.031 L 108.086,91.047 Q 108.211,91.094 108.273,91.109 Q 108.82,91.312 109.008,91.359 Q 109.336,91.453 109.601,91.453 Q 110.351,91.453 110.726,91.031 Q 111.055,90.672 111.055,90 Q 111.055,89.234 110.555,88.828 Q 110.055,88.406 109.133,88.406 L 108.742,88.406 L 108.742,87.75 L 109.07,87.75 Q 109.930,87.734 110.398,87.344 Q 110.883,86.953 110.883,86.281 Q 110.883,85.172 109.695,85.172 Q 109.07,85.172 108.148,85.578 L 108.148,84.719 Q 109.055,84.438 109.742,84.438 Q 110.945,84.438 111.476,85 Q 111.867,85.422 111.867,86.125 Q 111.867,86.922 111.305,87.438 Q 110.976,87.75 110.32,88 Q 110.898,88.141 111.180,88.312 Q 112.101,88.844 112.101,89.969 Q 112.101,90.969 111.445,91.578 Q 110.789,92.188 109.695,92.188 Q 109.117,92.188 108.055,91.938 M 113.742,92 L 113.742,84.125 L 114.726,84.125 L 114.726,89.203 L 116.539,86.578 L 117.476,86.578 L 115.758,89.141 L 117.992,92 L 116.805,92 L 114.726,89.219 L 114.726,92 L 113.742,92 M 118.851,92 L 118.851,86.578 L 119.836,86.578 L 119.836,87.594 Q 120.273,86.953 120.555,86.719 Q 120.883,86.469 121.398,86.469 Q 122.055,86.469 122.461,86.875 Q 122.695,87.125 122.867,87.594 Q 123.305,86.938 123.586,86.719 Q 123.898,86.469 124.445,86.469 Q 125.883,86.469 125.883,88.062 L 125.883,92 L 124.914,92 L 124.898,88.219 Q 124.898,87.281 124.180,87.281 Q 123.539,87.281 122.867,88.375 L 122.867,92 L 121.883,92 L 121.883,88.219 Q 121.883,87.281 121.148,87.281 Q 120.523,87.281 119.836,88.375 L 119.836,92 L 118.851,92"></path></g><g fill="#366AFF" fill-rule="evenodd" stroke="#366AFF" stroke-width="0.5" stroke-linecap="round" stroke-linejoin="round"><path d="M 142.424,77 L 142.424,83 Z"></path></g><g fill="rgba(0,0,0,0)" fill-rule="evenodd"><path d="M 137.861,92 L 137.861,89.906 L 134.580,89.906 L 134.580,89.172 L 137.861,84.609 L 138.783,84.609 L 138.783,89.109 L 139.767,89.109 L 139.767,89.906 L 138.783,89.906 L 138.783,92 L 137.861,92 M 135.549,89.109 L 137.924,89.109 L 137.924,85.828 L 135.549,89.109 M 140.877,92 L 140.877,84.125 L 141.861,84.125 L 141.861,89.203 L 143.674,86.578 L 144.611,86.578 L 142.892,89.141 L 145.127,92 L 143.939,92 L 141.861,89.219 L 141.861,92 L 140.877,92 M 145.986,92 L 145.986,86.578 L 146.971,86.578 L 146.971,87.594 Q 147.408,86.953 147.689,86.719 Q 148.017,86.469 148.533,86.469 Q 149.189,86.469 149.596,86.875 Q 149.830,87.125 150.002,87.594 Q 150.439,86.938 150.721,86.719 Q 151.033,86.469 151.580,86.469 Q 153.017,86.469 153.017,88.062 L 153.017,92 L 152.049,92 L 152.033,88.219 Q 152.033,87.281 151.314,87.281 Q 150.674,87.281 150.002,88.375 L 150.002,92 L 149.017,92 L 149.017,88.219 Q 149.017,87.281 148.283,87.281 Q 147.658,87.281 146.971,88.375 L 146.971,92 L 145.986,92"></path></g><g fill="#366AFF" fill-rule="evenodd"><path d="M 136.205,92 L 136.205,89.906 L 132.924,89.906 L 132.924,89.172 L 136.205,84.609 L 137.127,84.609 L 137.127,89.109 L 138.111,89.109 L 138.111,89.906 L 137.127,89.906 L 137.127,92 L 136.205,92 M 133.892,89.109 L 136.267,89.109 L 136.267,85.828 L 133.892,89.109 M 139.221,92 L 139.221,84.125 L 140.205,84.125 L 140.205,89.203 L 142.017,86.578 L 142.955,86.578 L 141.236,89.141 L 143.471,92 L 142.283,92 L 140.205,89.219 L 140.205,92 L 139.221,92 M 144.330,92 L 144.330,86.578 L 145.314,86.578 L 145.314,87.594 Q 145.752,86.953 146.033,86.719 Q 146.361,86.469 146.877,86.469 Q 147.533,86.469 147.939,86.875 Q 148.174,87.125 148.346,87.594 Q 148.783,86.938 149.064,86.719 Q 149.377,86.469 149.924,86.469 Q 151.361,86.469 151.361,88.062 L 151.361,92 L 150.392,92 L 150.377,88.219 Q 150.377,87.281 149.658,87.281 Q 149.017,87.281 148.346,88.375 L 148.346,92 L 147.361,92 L 147.361,88.219 Q 147.361,87.281 146.627,87.281 Q 146.002,87.281 145.314,88.375 L 145.314,92 L 144.330,92"></path></g><g fill="#366AFF" fill-rule="evenodd" stroke="#366AFF" stroke-width="0.5" stroke-linecap="round" stroke-linejoin="round"><path d="M 167.902,77 L 167.902,83 Z"></path></g><g fill="rgba(0,0,0,0)" fill-rule="evenodd"><path d="M 160.715,92.031 L 160.715,91.156 Q 161.48,91.453 162.105,91.453 Q 162.840,91.453 163.262,91.016 Q 163.668,90.578 163.668,89.844 Q 163.668,88.172 161.402,88.172 Q 161.121,88.172 160.840,88.203 L 160.840,84.609 L 164.574,84.609 L 164.574,85.469 L 161.699,85.469 L 161.699,87.422 Q 163.027,87.438 163.762,87.953 Q 164.715,88.609 164.715,89.891 Q 164.715,90.969 163.996,91.578 Q 163.277,92.188 161.996,92.188 Q 161.449,92.188 160.715,92.031 M 166.355,92 L 166.355,84.125 L 167.340,84.125 L 167.340,89.203 L 169.152,86.578 L 170.090,86.578 L 168.371,89.141 L 170.605,92 L 169.418,92 L 167.340,89.219 L 167.340,92 L 166.355,92 M 171.465,92 L 171.465,86.578 L 172.449,86.578 L 172.449,87.594 Q 172.887,86.953 173.168,86.719 Q 173.496,86.469 174.012,86.469 Q 174.668,86.469 175.074,86.875 Q 175.308,87.125 175.48,87.594 Q 175.918,86.938 176.199,86.719 Q 176.512,86.469 177.058,86.469 Q 178.496,86.469 178.496,88.062 L 178.496,92 L 177.527,92 L 177.512,88.219 Q 177.512,87.281 176.793,87.281 Q 176.152,87.281 175.48,88.375 L 175.48,92 L 174.496,92 L 174.496,88.219 Q 174.496,87.281 173.762,87.281 Q 173.137,87.281 172.449,88.375 L 172.449,92 L 171.465,92"></path></g><g fill="#366AFF" fill-rule="evenodd"><path d="M 159.058,92.031 L 159.058,91.156 Q 159.824,91.453 160.449,91.453 Q 161.183,91.453 161.605,91.016 Q 162.012,90.578 162.012,89.844 Q 162.012,88.172 159.746,88.172 Q 159.465,88.172 159.183,88.203 L 159.183,84.609 L 162.918,84.609 L 162.918,85.469 L 160.043,85.469 L 160.043,87.422 Q 161.371,87.438 162.105,87.953 Q 163.058,88.609 163.058,89.891 Q 163.058,90.969 162.340,91.578 Q 161.621,92.188 160.340,92.188 Q 159.793,92.188 159.058,92.031 M 164.699,92 L 164.699,84.125 L 165.683,84.125 L 165.683,89.203 L 167.496,86.578 L 168.433,86.578 L 166.715,89.141 L 168.949,92 L 167.762,92 L 165.683,89.219 L 165.683,92 L 164.699,92 M 169.808,92 L 169.808,86.578 L 170.793,86.578 L 170.793,87.594 Q 171.23,86.953 171.512,86.719 Q 171.840,86.469 172.355,86.469 Q 173.012,86.469 173.418,86.875 Q 173.652,87.125 173.824,87.594 Q 174.262,86.938 174.543,86.719 Q 174.855,86.469 175.402,86.469 Q 176.840,86.469 176.840,88.062 L 176.840,92 L 175.871,92 L 175.855,88.219 Q 175.855,87.281 175.137,87.281 Q 174.496,87.281 173.824,88.375 L 173.824,92 L 172.840,92 L 172.840,88.219 Q 172.840,87.281 172.105,87.281 Q 171.48,87.281 170.793,88.375 L 170.793,92 L 169.808,92"></path></g><g fill="#366AFF" fill-rule="evenodd" stroke="#366AFF" stroke-width="0.5" stroke-linecap="round" stroke-linejoin="round"><path d="M 193.381,77 L 193.381,83 Z"></path></g><g fill="rgba(0,0,0,0)" fill-rule="evenodd"><path d="M 186.865,88.125 Q 187.553,87.266 188.553,87.266 Q 189.459,87.266 189.975,87.875 Q 190.506,88.5 190.506,89.578 Q 190.506,90.781 189.881,91.484 Q 189.271,92.188 188.225,92.188 Q 187.100,92.188 186.443,91.219 Q 185.803,90.25 185.803,88.547 Q 185.803,86.609 186.568,85.516 Q 187.350,84.422 188.709,84.422 Q 189.350,84.422 190.100,84.703 L 190.100,85.562 Q 189.209,85.172 188.693,85.172 Q 187.584,85.172 187.146,86.266 Q 186.975,86.719 186.912,87.25 Q 186.881,87.547 186.865,88.125 M 188.287,87.969 Q 187.662,87.969 187.287,88.391 Q 186.896,88.828 186.896,89.562 Q 186.896,90.375 187.303,90.906 Q 187.693,91.453 188.318,91.453 Q 189.537,91.453 189.537,89.781 Q 189.537,87.969 188.287,87.969 M 191.834,92 L 191.834,84.125 L 192.818,84.125 L 192.818,89.203 L 194.631,86.578 L 195.568,86.578 L 193.850,89.141 L 196.084,92 L 194.896,92 L 192.818,89.219 L 192.818,92 L 191.834,92 M 196.943,92 L 196.943,86.578 L 197.928,86.578 L 197.928,87.594 Q 198.365,86.953 198.646,86.719 Q 198.975,86.469 199.49,86.469 Q 200.146,86.469 200.553,86.875 Q 200.787,87.125 200.959,87.594 Q 201.396,86.938 201.678,86.719 Q 201.99,86.469 202.537,86.469 Q 203.975,86.469 203.975,88.062 L 203.975,92 L 203.006,92 L 202.99,88.219 Q 202.99,87.281 202.271,87.281 Q 201.631,87.281 200.959,88.375 L 200.959,92 L 199.975,92 L 199.975,88.219 Q 199.975,87.281 199.24,87.281 Q 198.615,87.281 197.928,88.375 L 197.928,92 L 196.943,92"></path></g><g fill="#366AFF" fill-rule="evenodd"><path d="M 185.209,88.125 Q 185.896,87.266 186.896,87.266 Q 187.803,87.266 188.318,87.875 Q 188.850,88.5 188.850,89.578 Q 188.850,90.781 188.225,91.484 Q 187.615,92.188 186.568,92.188 Q 185.443,92.188 184.787,91.219 Q 184.146,90.25 184.146,88.547 Q 184.146,86.609 184.912,85.516 Q 185.693,84.422 187.053,84.422 Q 187.693,84.422 188.443,84.703 L 188.443,85.562 Q 187.553,85.172 187.037,85.172 Q 185.928,85.172 185.49,86.266 Q 185.318,86.719 185.256,87.25 Q 185.225,87.547 185.209,88.125 M 186.631,87.969 Q 186.006,87.969 185.631,88.391 Q 185.24,88.828 185.24,89.562 Q 185.24,90.375 185.646,90.906 Q 186.037,91.453 186.662,91.453 Q 187.881,91.453 187.881,89.781 Q 187.881,87.969 186.631,87.969 M 190.178,92 L 190.178,84.125 L 191.162,84.125 L 191.162,89.203 L 192.975,86.578 L 193.912,86.578 L 192.193,89.141 L 194.428,92 L 193.24,92 L 191.162,89.219 L 191.162,92 L 190.178,92 M 195.287,92 L 195.287,86.578 L 196.271,86.578 L 196.271,87.594 Q 196.709,86.953 196.99,86.719 Q 197.318,86.469 197.834,86.469 Q 198.49,86.469 198.896,86.875 Q 199.131,87.125 199.303,87.594 Q 199.74,86.938 200.021,86.719 Q 200.334,86.469 200.881,86.469 Q 202.318,86.469 202.318,88.062 L 202.318,92 L 201.350,92 L 201.334,88.219 Q 201.334,87.281 200.615,87.281 Q 199.975,87.281 199.303,88.375 L 199.303,92 L 198.318,92 L 198.318,88.219 Q 198.318,87.281 197.584,87.281 Q 196.959,87.281 196.271,88.375 L 196.271,92 L 195.287,92"></path></g><g fill="#366AFF" fill-rule="evenodd" stroke="#366AFF" stroke-width="0.5" stroke-linecap="round" stroke-linejoin="round"><path d="M 40,80 L 40,0 Z"></path></g><g fill="#366AFF" fill-rule="evenodd" stroke="#366AFF" stroke-width="0.5" stroke-linecap="round" stroke-linejoin="round"><path d="M 37,65.090 L 43,65.090 Z"></path></g><g fill="rgba(0,0,0,0)" fill-rule="evenodd"><path d="M 33.953,73.074 Q 33.469,72.715 33.234,72.386 Q 32.875,71.918 32.875,71.371 Q 32.875,70.558 33.484,70.043 Q 34.109,69.527 35.094,69.527 Q 36.016,69.527 36.578,69.965 Q 37.141,70.402 37.141,71.121 Q 37.141,71.761 36.641,72.340 Q 36.344,72.683 35.766,73.074 Q 36.516,73.449 36.891,73.855 Q 37.438,74.433 37.438,75.199 Q 37.438,76.105 36.734,76.683 Q 36.031,77.277 34.922,77.277 Q 33.828,77.277 33.156,76.715 Q 32.5,76.168 32.5,75.246 Q 32.5,74.449 33.031,73.824 Q 33.359,73.449 33.953,73.074 M 35.219,72.761 Q 36.25,72.043 36.25,71.277 Q 36.25,70.808 35.906,70.543 Q 35.562,70.261 34.984,70.261 Q 34.438,70.261 34.109,70.527 Q 33.766,70.777 33.766,71.215 Q 33.766,71.746 34.328,72.183 Q 34.625,72.418 35.219,72.761 M 34.5,73.465 Q 33.953,73.902 33.719,74.215 Q 33.484,74.574 33.484,75.105 Q 33.484,75.746 33.891,76.136 Q 34.297,76.543 34.969,76.543 Q 35.609,76.543 36.016,76.199 Q 36.422,75.871 36.422,75.340 Q 36.422,74.855 36.109,74.527 Q 35.844,74.261 35.188,73.886 L 34.5,73.465 M 40.531,69.527 Q 41.656,69.527 42.312,70.558 Q 42.969,71.590 42.969,73.371 Q 42.969,75.199 42.312,76.23 Q 41.656,77.277 40.5,77.277 Q 39.516,77.277 38.891,76.433 Q 38.094,75.371 38.094,73.386 Q 38.094,71.590 38.75,70.558 Q 39.406,69.527 40.531,69.527 M 40.531,70.261 Q 39.859,70.261 39.5,71.074 Q 39.141,71.902 39.141,73.386 Q 39.141,74.871 39.5,75.715 Q 39.859,76.543 40.531,76.543 Q 41.141,76.543 41.469,75.933 Q 41.922,75.121 41.922,73.386 Q 41.922,71.871 41.562,71.074 Q 41.188,70.261 40.531,70.261 M 46.219,69.527 Q 47.344,69.527 48,70.558 Q 48.656,71.590 48.656,73.371 Q 48.656,75.199 48,76.23 Q 47.344,77.277 46.188,77.277 Q 45.203,77.277 44.578,76.433 Q 43.781,75.371 43.781,73.386 Q 43.781,71.590 44.438,70.558 Q 45.094,69.527 46.219,69.527 M 46.219,70.261 Q 45.547,70.261 45.188,71.074 Q 44.828,71.902 44.828,73.386 Q 44.828,74.871 45.188,75.715 Q 45.547,76.543 46.219,76.543 Q 46.828,76.543 47.156,75.933 Q 47.609,75.121 47.609,73.386 Q 47.609,71.871 47.25,71.074 Q 46.875,70.261 46.219,70.261 M 49.828,77.090 L 49.828,71.668 L 50.812,71.668 L 50.812,72.683 Q 51.25,72.043 51.531,71.808 Q 51.859,71.558 52.375,71.558 Q 53.031,71.558 53.438,71.965 Q 53.672,72.215 53.844,72.683 Q 54.281,72.027 54.562,71.808 Q 54.875,71.558 55.422,71.558 Q 56.859,71.558 56.859,73.152 L 56.859,77.090 L 55.891,77.090 L 55.875,73.308 Q 55.875,72.371 55.156,72.371 Q 54.516,72.371 53.844,73.465 L 53.844,77.090 L 52.859,77.090 L 52.859,73.308 Q 52.859,72.371 52.125,72.371 Q 51.5,72.371 50.812,73.465 L 50.812,77.090 L 49.828,77.090"></path></g><g fill="#366AFF" fill-rule="evenodd"><path d="M 12.375,65.074 Q 11.891,64.715 11.656,64.386 Q 11.297,63.918 11.297,63.371 Q 11.297,62.558 11.906,62.043 Q 12.531,61.527 13.516,61.527 Q 14.438,61.527 15,61.965 Q 15.562,62.402 15.562,63.121 Q 15.562,63.761 15.062,64.340 Q 14.766,64.683 14.188,65.074 Q 14.938,65.449 15.312,65.855 Q 15.859,66.433 15.859,67.199 Q 15.859,68.105 15.156,68.683 Q 14.453,69.277 13.344,69.277 Q 12.25,69.277 11.578,68.715 Q 10.922,68.168 10.922,67.246 Q 10.922,66.449 11.453,65.824 Q 11.781,65.449 12.375,65.074 M 13.641,64.761 Q 14.672,64.043 14.672,63.277 Q 14.672,62.808 14.328,62.543 Q 13.984,62.261 13.406,62.261 Q 12.859,62.261 12.531,62.527 Q 12.188,62.777 12.188,63.215 Q 12.188,63.746 12.75,64.183 Q 13.047,64.418 13.641,64.761 M 12.922,65.465 Q 12.375,65.902 12.141,66.215 Q 11.906,66.574 11.906,67.105 Q 11.906,67.746 12.312,68.136 Q 12.719,68.543 13.391,68.543 Q 14.031,68.543 14.438,68.199 Q 14.844,67.871 14.844,67.340 Q 14.844,66.855 14.531,66.527 Q 14.266,66.261 13.609,65.886 L 12.922,65.465 M 18.953,61.527 Q 20.078,61.527 20.734,62.558 Q 21.391,63.590 21.391,65.371 Q 21.391,67.199 20.734,68.23 Q 20.078,69.277 18.922,69.277 Q 17.938,69.277 17.312,68.433 Q 16.516,67.371 16.516,65.386 Q 16.516,63.590 17.172,62.558 Q 17.828,61.527 18.953,61.527 M 18.953,62.261 Q 18.281,62.261 17.922,63.074 Q 17.562,63.902 17.562,65.386 Q 17.562,66.871 17.922,67.715 Q 18.281,68.543 18.953,68.543 Q 19.562,68.543 19.891,67.933 Q 20.344,67.121 20.344,65.386 Q 20.344,63.871 19.984,63.074 Q 19.609,62.261 18.953,62.261 M 24.641,61.527 Q 25.766,61.527 26.422,62.558 Q 27.078,63.590 27.078,65.371 Q 27.078,67.199 26.422,68.23 Q 25.766,69.277 24.609,69.277 Q 23.625,69.277 23,68.433 Q 22.203,67.371 22.203,65.386 Q 22.203,63.590 22.859,62.558 Q 23.516,61.527 24.641,61.527 M 24.641,62.261 Q 23.969,62.261 23.609,63.074 Q 23.25,63.902 23.25,65.386 Q 23.25,66.871 23.609,67.715 Q 23.969,68.543 24.641,68.543 Q 25.25,68.543 25.578,67.933 Q 26.031,67.121 26.031,65.386 Q 26.031,63.871 25.672,63.074 Q 25.297,62.261 24.641,62.261 M 28.25,69.090 L 28.25,63.668 L 29.234,63.668 L 29.234,64.683 Q 29.672,64.043 29.953,63.808 Q 30.281,63.558 30.797,63.558 Q 31.453,63.558 31.859,63.965 Q 32.094,64.215 32.266,64.683 Q 32.703,64.027 32.984,63.808 Q 33.297,63.558 33.844,63.558 Q 35.281,63.558 35.281,65.152 L 35.281,69.090 L 34.312,69.090 L 34.297,65.308 Q 34.297,64.371 33.578,64.371 Q 32.938,64.371 32.266,65.465 L 32.266,69.090 L 31.281,69.090 L 31.281,65.308 Q 31.281,64.371 30.547,64.371 Q 29.922,64.371 29.234,65.465 L 29.234,69.090 L 28.25,69.090"></path></g><g fill="#366AFF" fill-rule="evenodd" stroke="#366AFF" stroke-width="0.5" stroke-linecap="round" stroke-linejoin="round"><path d="M 37,36.416 L 43,36.416 Z"></path></g><g fill="rgba(0,0,0,0)" fill-rule="evenodd"><path d="M 36.062,44.916 Q 35.375,45.775 34.375,45.775 Q 33.469,45.775 32.938,45.15 Q 32.422,44.541 32.422,43.447 Q 32.422,42.260 33.031,41.556 Q 33.656,40.838 34.688,40.838 Q 35.828,40.838 36.469,41.822 Q 37.125,42.791 37.125,44.478 Q 37.125,46.416 36.344,47.510 Q 35.578,48.603 34.203,48.603 Q 33.578,48.603 32.812,48.322 L 32.812,47.463 Q 33.719,47.869 34.234,47.869 Q 35.328,47.869 35.781,46.760 Q 35.953,46.322 36.016,45.775 Q 36.047,45.494 36.062,44.916 M 34.609,41.588 Q 33.391,41.588 33.391,43.244 Q 33.391,45.056 34.641,45.056 Q 35.266,45.056 35.641,44.635 Q 36.016,44.197 36.016,43.463 Q 36.016,42.65 35.625,42.119 Q 35.234,41.588 34.609,41.588 M 40.531,40.853 Q 41.656,40.853 42.312,41.885 Q 42.969,42.916 42.969,44.697 Q 42.969,46.525 42.312,47.556 Q 41.656,48.603 40.5,48.603 Q 39.516,48.603 38.891,47.760 Q 38.094,46.697 38.094,44.713 Q 38.094,42.916 38.75,41.885 Q 39.406,40.853 40.531,40.853 M 40.531,41.588 Q 39.859,41.588 39.5,42.4 Q 39.141,43.228 39.141,44.713 Q 39.141,46.197 39.5,47.041 Q 39.859,47.869 40.531,47.869 Q 41.141,47.869 41.469,47.260 Q 41.922,46.447 41.922,44.713 Q 41.922,43.197 41.562,42.4 Q 41.188,41.588 40.531,41.588 M 46.219,40.853 Q 47.344,40.853 48,41.885 Q 48.656,42.916 48.656,44.697 Q 48.656,46.525 48,47.556 Q 47.344,48.603 46.188,48.603 Q 45.203,48.603 44.578,47.760 Q 43.781,46.697 43.781,44.713 Q 43.781,42.916 44.438,41.885 Q 45.094,40.853 46.219,40.853 M 46.219,41.588 Q 45.547,41.588 45.188,42.4 Q 44.828,43.228 44.828,44.713 Q 44.828,46.197 45.188,47.041 Q 45.547,47.869 46.219,47.869 Q 46.828,47.869 47.156,47.260 Q 47.609,46.447 47.609,44.713 Q 47.609,43.197 47.25,42.4 Q 46.875,41.588 46.219,41.588 M 49.828,48.416 L 49.828,42.994 L 50.812,42.994 L 50.812,44.010 Q 51.25,43.369 51.531,43.135 Q 51.859,42.885 52.375,42.885 Q 53.031,42.885 53.438,43.291 Q 53.672,43.541 53.844,44.010 Q 54.281,43.353 54.562,43.135 Q 54.875,42.885 55.422,42.885 Q 56.859,42.885 56.859,44.478 L 56.859,48.416 L 55.891,48.416 L 55.875,44.635 Q 55.875,43.697 55.156,43.697 Q 54.516,43.697 53.844,44.791 L 53.844,48.416 L 52.859,48.416 L 52.859,44.635 Q 52.859,43.697 52.125,43.697 Q 51.5,43.697 50.812,44.791 L 50.812,48.416 L 49.828,48.416"></path></g><g fill="#366AFF" fill-rule="evenodd"><path d="M 14.484,36.916 Q 13.797,37.775 12.797,37.775 Q 11.891,37.775 11.359,37.15 Q 10.844,36.541 10.844,35.447 Q 10.844,34.260 11.453,33.556 Q 12.078,32.838 13.109,32.838 Q 14.25,32.838 14.891,33.822 Q 15.547,34.791 15.547,36.478 Q 15.547,38.416 14.766,39.510 Q 14,40.603 12.625,40.603 Q 12,40.603 11.234,40.322 L 11.234,39.463 Q 12.141,39.869 12.656,39.869 Q 13.75,39.869 14.203,38.760 Q 14.375,38.322 14.438,37.775 Q 14.469,37.494 14.484,36.916 M 13.031,33.588 Q 11.812,33.588 11.812,35.244 Q 11.812,37.056 13.062,37.056 Q 13.688,37.056 14.062,36.635 Q 14.438,36.197 14.438,35.463 Q 14.438,34.65 14.047,34.119 Q 13.656,33.588 13.031,33.588 M 18.953,32.853 Q 20.078,32.853 20.734,33.885 Q 21.391,34.916 21.391,36.697 Q 21.391,38.525 20.734,39.556 Q 20.078,40.603 18.922,40.603 Q 17.938,40.603 17.312,39.760 Q 16.516,38.697 16.516,36.713 Q 16.516,34.916 17.172,33.885 Q 17.828,32.853 18.953,32.853 M 18.953,33.588 Q 18.281,33.588 17.922,34.4 Q 17.562,35.228 17.562,36.713 Q 17.562,38.197 17.922,39.041 Q 18.281,39.869 18.953,39.869 Q 19.562,39.869 19.891,39.260 Q 20.344,38.447 20.344,36.713 Q 20.344,35.197 19.984,34.4 Q 19.609,33.588 18.953,33.588 M 24.641,32.853 Q 25.766,32.853 26.422,33.885 Q 27.078,34.916 27.078,36.697 Q 27.078,38.525 26.422,39.556 Q 25.766,40.603 24.609,40.603 Q 23.625,40.603 23,39.760 Q 22.203,38.697 22.203,36.713 Q 22.203,34.916 22.859,33.885 Q 23.516,32.853 24.641,32.853 M 24.641,33.588 Q 23.969,33.588 23.609,34.4 Q 23.25,35.228 23.25,36.713 Q 23.25,38.197 23.609,39.041 Q 23.969,39.869 24.641,39.869 Q 25.25,39.869 25.578,39.260 Q 26.031,38.447 26.031,36.713 Q 26.031,35.197 25.672,34.4 Q 25.297,33.588 24.641,33.588 M 28.25,40.416 L 28.25,34.994 L 29.234,34.994 L 29.234,36.010 Q 29.672,35.369 29.953,35.135 Q 30.281,34.885 30.797,34.885 Q 31.453,34.885 31.859,35.291 Q 32.094,35.541 32.266,36.010 Q 32.703,35.353 32.984,35.135 Q 33.297,34.885 33.844,34.885 Q 35.281,34.885 35.281,36.478 L 35.281,40.416 L 34.312,40.416 L 34.297,36.635 Q 34.297,35.697 33.578,35.697 Q 32.938,35.697 32.266,36.791 L 32.266,40.416 L 31.281,40.416 L 31.281,36.635 Q 31.281,35.697 30.547,35.697 Q 29.922,35.697 29.234,36.791 L 29.234,40.416 L 28.25,40.416"></path></g><g fill="#366AFF" fill-rule="evenodd" stroke="#366AFF" stroke-width="0.5" stroke-linecap="round" stroke-linejoin="round"><path d="M 37,7.742 L 43,7.742 Z"></path></g><g fill="rgba(0,0,0,0)" fill-rule="evenodd"><path d="M 33.141,19.742 L 33.141,19.008 L 34.625,19.008 L 34.625,13.179 L 33.141,13.539 L 33.141,12.789 L 35.609,12.179 L 35.609,19.008 L 37.094,19.008 L 37.094,19.742 L 33.141,19.742 M 40.125,12.179 Q 41.25,12.179 41.906,13.211 Q 42.562,14.242 42.562,16.023 Q 42.562,17.851 41.906,18.883 Q 41.25,19.929 40.094,19.929 Q 39.109,19.929 38.484,19.086 Q 37.688,18.023 37.688,16.039 Q 37.688,14.242 38.344,13.211 Q 39,12.179 40.125,12.179 M 40.125,12.914 Q 39.453,12.914 39.094,13.726 Q 38.734,14.554 38.734,16.039 Q 38.734,17.523 39.094,18.367 Q 39.453,19.195 40.125,19.195 Q 40.734,19.195 41.062,18.586 Q 41.516,17.773 41.516,16.039 Q 41.516,14.523 41.156,13.726 Q 40.781,12.914 40.125,12.914 M 45.812,12.179 Q 46.938,12.179 47.594,13.211 Q 48.25,14.242 48.25,16.023 Q 48.25,17.851 47.594,18.883 Q 46.938,19.929 45.781,19.929 Q 44.797,19.929 44.172,19.086 Q 43.375,18.023 43.375,16.039 Q 43.375,14.242 44.031,13.211 Q 44.688,12.179 45.812,12.179 M 45.812,12.914 Q 45.141,12.914 44.781,13.726 Q 44.422,14.554 44.422,16.039 Q 44.422,17.523 44.781,18.367 Q 45.141,19.195 45.812,19.195 Q 46.422,19.195 46.75,18.586 Q 47.203,17.773 47.203,16.039 Q 47.203,14.523 46.844,13.726 Q 46.469,12.914 45.812,12.914 M 51.5,12.179 Q 52.625,12.179 53.281,13.211 Q 53.938,14.242 53.938,16.023 Q 53.938,17.851 53.281,18.883 Q 52.625,19.929 51.469,19.929 Q 50.484,19.929 49.859,19.086 Q 49.062,18.023 49.062,16.039 Q 49.062,14.242 49.719,13.211 Q 50.375,12.179 51.5,12.179 M 51.5,12.914 Q 50.828,12.914 50.469,13.726 Q 50.109,14.554 50.109,16.039 Q 50.109,17.523 50.469,18.367 Q 50.828,19.195 51.5,19.195 Q 52.109,19.195 52.438,18.586 Q 52.891,17.773 52.891,16.039 Q 52.891,14.523 52.531,13.726 Q 52.156,12.914 51.5,12.914 M 55.109,19.742 L 55.109,14.32 L 56.094,14.32 L 56.094,15.336 Q 56.531,14.695 56.812,14.461 Q 57.141,14.211 57.656,14.211 Q 58.312,14.211 58.719,14.617 Q 58.953,14.867 59.125,15.336 Q 59.562,14.679 59.844,14.461 Q 60.156,14.211 60.703,14.211 Q 62.141,14.211 62.141,15.804 L 62.141,19.742 L 61.172,19.742 L 61.156,15.961 Q 61.156,15.023 60.438,15.023 Q 59.797,15.023 59.125,16.117 L 59.125,19.742 L 58.141,19.742 L 58.141,15.961 Q 58.141,15.023 57.406,15.023 Q 56.781,15.023 56.094,16.117 L 56.094,19.742 L 55.109,19.742"></path></g><g fill="#366AFF" fill-rule="evenodd"><path d="M 6.281,11.742 L 6.281,11.008 L 7.766,11.008 L 7.766,5.179 L 6.281,5.539 L 6.281,4.789 L 8.75,4.179 L 8.75,11.008 L 10.234,11.008 L 10.234,11.742 L 6.281,11.742 M 13.266,4.179 Q 14.391,4.179 15.047,5.211 Q 15.703,6.242 15.703,8.023 Q 15.703,9.851 15.047,10.883 Q 14.391,11.929 13.234,11.929 Q 12.25,11.929 11.625,11.086 Q 10.828,10.023 10.828,8.039 Q 10.828,6.242 11.484,5.211 Q 12.141,4.179 13.266,4.179 M 13.266,4.914 Q 12.594,4.914 12.234,5.726 Q 11.875,6.554 11.875,8.039 Q 11.875,9.523 12.234,10.367 Q 12.594,11.195 13.266,11.195 Q 13.875,11.195 14.203,10.586 Q 14.656,9.773 14.656,8.039 Q 14.656,6.523 14.297,5.726 Q 13.922,4.914 13.266,4.914 M 18.953,4.179 Q 20.078,4.179 20.734,5.211 Q 21.391,6.242 21.391,8.023 Q 21.391,9.851 20.734,10.883 Q 20.078,11.929 18.922,11.929 Q 17.938,11.929 17.312,11.086 Q 16.516,10.023 16.516,8.039 Q 16.516,6.242 17.172,5.211 Q 17.828,4.179 18.953,4.179 M 18.953,4.914 Q 18.281,4.914 17.922,5.726 Q 17.562,6.554 17.562,8.039 Q 17.562,9.523 17.922,10.367 Q 18.281,11.195 18.953,11.195 Q 19.562,11.195 19.891,10.586 Q 20.344,9.773 20.344,8.039 Q 20.344,6.523 19.984,5.726 Q 19.609,4.914 18.953,4.914 M 24.641,4.179 Q 25.766,4.179 26.422,5.211 Q 27.078,6.242 27.078,8.023 Q 27.078,9.851 26.422,10.883 Q 25.766,11.929 24.609,11.929 Q 23.625,11.929 23,11.086 Q 22.203,10.023 22.203,8.039 Q 22.203,6.242 22.859,5.211 Q 23.516,4.179 24.641,4.179 M 24.641,4.914 Q 23.969,4.914 23.609,5.726 Q 23.25,6.554 23.25,8.039 Q 23.25,9.523 23.609,10.367 Q 23.969,11.195 24.641,11.195 Q 25.25,11.195 25.578,10.586 Q 26.031,9.773 26.031,8.039 Q 26.031,6.523 25.672,5.726 Q 25.297,4.914 24.641,4.914 M 28.25,11.742 L 28.25,6.32 L 29.234,6.32 L 29.234,7.336 Q 29.672,6.695 29.953,6.461 Q 30.281,6.211 30.797,6.211 Q 31.453,6.211 31.859,6.617 Q 32.094,6.867 32.266,7.336 Q 32.703,6.679 32.984,6.461 Q 33.297,6.211 33.844,6.211 Q 35.281,6.211 35.281,7.804 L 35.281,11.742 L 34.312,11.742 L 34.297,7.961 Q 34.297,7.023 33.578,7.023 Q 32.938,7.023 32.266,8.117 L 32.266,11.742 L 31.281,11.742 L 31.281,7.961 Q 31.281,7.023 30.547,7.023 Q 29.922,7.023 29.234,8.117 L 29.234,11.742 L 28.25,11.742"></path></g></svg>