<svg xmlns="http://www.w3.org/2000/svg" fill="none" stroke="none"><defs></defs><g fill="#FFFFFF" fill-rule="evenodd" stroke="#FFFFFF" stroke-width="0" stroke-linecap="round" stroke-linejoin="round"><path d="M 0,0 L 900,0 L 900,200 L 0,200 Z"></path></g><g fill="#FFFFFF" fill-rule="evenodd" stroke="#E0E0E0" stroke-width="0.5" stroke-linecap="round" stroke-linejoin="round"><path d="M 42.739,180 L 42.739,0 Z"></path></g><g fill="#FFFFFF" fill-rule="evenodd" stroke="#E0E0E0" stroke-width="0.5" stroke-linecap="round" stroke-linejoin="round"><path d="M 111.212,180 L 111.212,0 Z"></path></g><g fill="#FFFFFF" fill-rule="evenodd" stroke="#E0E0E0" stroke-width="0.5" stroke-linecap="round" stroke-linejoin="round"><path d="M 179.686,180 L 179.686,0 Z"></path></g><g fill="#FFFFFF" fill-rule="evenodd" stroke="#E0E0E0" stroke-width="0.5" stroke-linecap="round" stroke-linejoin="round"><path d="M 248.160,180 L 248.160,0 Z"></path></g><g fill="#FFFFFF" fill-rule="evenodd" stroke="#E0E0E0" stroke-width="0.5" stroke-linecap="round" stroke-linejoin="round"><path d="M 316.633,180 L 316.633,0 Z"></path></g><g fill="#FFFFFF" fill-rule="evenodd" stroke="#E0E0E0" stroke-width="0.5" stroke-linecap="round" stroke-linejoin="round"><path d="M 385.107,180 L 385.107,0 Z"></path></g><g fill="#FFFFFF" fill-rule="evenodd" stroke="#E0E0E0" stroke-width="0.5" stroke-linecap="round" stroke-linejoin="round"><path d="M 453.58,180 L 453.58,0 Z"></path></g><g fill="#FFFFFF" fill-rule="evenodd" stroke="#E0E0E0" stroke-width="0.5" stroke-linecap="round" stroke-linejoin="round"><path d="M 522.054,180 L 522.054,0 Z"></path></g><g fill="#FFFFFF" fill-rule="evenodd" stroke="#E0E0E0" stroke-width="0.5" stroke-linecap="round" stroke-linejoin="round"><path d="M 590.527,180 L 590.527,0 Z"></path></g><g fill="#FFFFFF" fill-rule="evenodd" stroke="#E0E0E0" stroke-width="0.5" stroke-linecap="round" stroke-linejoin="round"><path d="M 659.001,180 L 659.001,0 Z"></path></g><g fill="#FFFFFF" fill-rule="evenodd" stroke="#E0E0E0" stroke-width="0.5" stroke-linecap="round" stroke-linejoin="round"><path d="M 727.474,180 L 727.474,0 Z"></path></g><g fill="#FFFFFF" fill-rule="evenodd" stroke="#E0E0E0" stroke-width="0.5" stroke-linecap="round" stroke-linejoin="round"><path d="M 795.948,180 L 795.948,0 Z"></path></g><g fill="#FFFFFF" fill-rule="evenodd" stroke="#E0E0E0" stroke-width="0.5" stroke-linecap="round" stroke-linejoin="round"><path d="M 864.422,180 L 864.422,0 Z"></path></g><g fill="#FFFFFF" fill-rule="evenodd" stroke="#E0E0E0" stroke-width="0.5" stroke-linecap="round" stroke-linejoin="round"><path d="M 40,152.443 L 900,152.443 Z"></path></g><g fill="#FFFFFF" fill-rule="evenodd" stroke="#E0E0E0" stroke-width="0.5" stroke-linecap="round" stroke-linejoin="round"><path d="M 40,116.185 L 900,116.185 Z"></path></g><g fill="#FFFFFF" fill-rule="evenodd" stroke="#E0E0E0" stroke-width="0.5" stroke-linecap="round" stroke-linejoin="round"><path d="M 40,79.926 L 900,79.926 Z"></path></g><g fill="#FFFFFF" fill-rule="evenodd" stroke="#E0E0E0" stroke-width="0.5" stroke-linecap="round" stroke-linejoin="round"><path d="M 40,43.667 L 900,43.667 Z"></path></g><g fill="#FFFFFF" fill-rule="evenodd" stroke="#E0E0E0" stroke-width="0.5" stroke-linecap="round" stroke-linejoin="round"><path d="M 40,7.409 L 900,7.409 Z"></path></g><g fill="rgba(16,16,16,0.251)" fill-rule="evenodd" stroke="rgba(0,0,0,0.686)" stroke-width="0.5" stroke-linecap="round" stroke-linejoin="round"><path d="M 42.739,180 L 42.739,161.871 L 45.267,162.845 L 46.787,163.901 L 51.378,164.864 L 52.82,165.865 L 54.268,166.635 L 55.802,167.582 L 57.212,168.547 L 58.697,169.922 L 60.257,171.224 L 61.752,172.346 L 63.257,172.68 L 64.586,171.733 L 66.042,169.663 L 69.093,166.241 L 73.846,162.911 L 75.722,159.897 L 77.069,158.477 L 78.511,158.296 L 79.911,159.096 L 81.214,160.011 L 82.679,160.326 L 84.99,159.338 L 86.426,157.222 L 87.983,153.704 L 89.683,150.226 L 90.974,146.787 L 92.395,144.708 L 93.902,143.413 L 95.449,143.157 L 96.883,143.302 L 98.356,144.063 L 99.778,145.164 L 101.226,146.884 L 102.568,148.576 L 103.964,150.296 L 105.383,151.166 L 106.786,151.396 L 108.382,150.134 L 109.985,148.142 L 111.382,144.807 L 114.285,141.826 L 115.676,138.771 L 117.325,137.142 L 118.675,136.065 L 119.879,135.954 L 121.349,136.128 L 123.235,136.591 L 124.663,137.029 L 126.136,137.123 L 127.753,136.151 L 129.397,134.155 L 131.928,130.744 L 133.539,127.349 L 135.142,124.079 L 137.147,122.224 L 138.941,121.348 L 143.061,121.358 L 145.999,121.952 L 147.441,122.156 L 148.689,122.485 L 151.697,121.685 L 154.706,121.220 L 159.490,120.479 L 161.397,120.822 L 163.657,121.449 L 166.002,122.144 L 167.991,121.959 L 169.730,121.029 L 171.397,119.586 L 172.947,118.88 L 174.606,118.904 L 176.244,120.216 L 177.840,121.604 L 179.389,122.97 L 180.891,122.998 L 182.354,122.261 L 183.805,120.305 L 185.586,118.875 L 187.079,117.782 L 191.903,118.443 L 193.541,119.598 L 195.064,121.494 L 196.798,122.884 L 198.416,123.961 L 200.013,124.741 L 201.587,125.006 L 203.043,125.320 L 204.381,124.627 L 205.749,124.007 L 207.150,122.615 L 208.633,121.861 L 210.157,121.23 L 211.711,121.583 L 213.109,122.353 L 214.509,123.808 L 216.008,125.24 L 217.422,126.695 L 218.934,127.570 L 220.361,128.071 L 221.707,127.941 L 223.169,127.521 L 224.503,126.728 L 227.375,125.947 L 230.196,125.242 L 231.752,124.964 L 233.31,125.298 L 234.729,126.189 L 236.273,127.732 L 239.946,129.212 L 241.445,130.595 L 243.017,131.052 L 244.499,130.968 L 246.02,130.237 L 247.469,129.646 L 248.841,129.382 L 250.208,129.568 L 251.620,129.978 L 252.932,130.025 L 254.272,129.692 L 255.636,128.669 L 257.080,127.564 L 259.355,126.307 L 260.758,125.388 L 262.231,124.386 L 263.729,123.467 L 265.145,122.209 L 266.461,121.038 L 268.085,119.847 L 269.451,119.095 L 270.718,118.594 L 272.131,118.412 L 273.489,118.308 L 274.943,118.197 L 276.319,118.030 L 277.644,117.609 L 279.361,116.959 L 280.765,115.525 L 283.792,113.507 L 286.708,110.377 L 288.153,106.882 L 289.717,103.003 L 291.900,99.381 L 296.159,96.147 L 298.180,92.924 L 300.020,90.011 L 301.399,86.642 L 304.155,83.797 L 305.982,80.929 L 307.268,78.942 L 309.295,76.882 L 312.891,75.09 L 314.322,72.693 L 315.858,70.569 L 317.342,68.447 L 318.769,67.454 L 320.234,66.785 L 322.525,66.971 L 324.11,66.687 L 327.580,66.501 L 329.686,65.579 L 331.282,64.549 L 332.76,63.129 L 334.246,61.522 L 335.587,59.993 L 336.986,58.538 L 338.477,57.619 L 339.831,56.992 L 341.166,56.75 L 342.527,56.476 L 346.072,56.104 L 350.804,55.227 L 352.693,54.048 L 353.674,52.328 L 355.045,50.729 L 357.69,49.163 L 359.117,48.088 L 360.531,47.163 L 361.845,46.068 L 363.262,44.650 L 364.693,42.585 L 366.077,40.632 L 367.448,38.854 L 368.892,37.972 L 370.31,37.543 L 371.704,37.387 L 373.01,36.711 L 374.293,35.549 L 375.81,33.69 L 377.172,31.934 L 378.96,30.273 L 380.506,29.308 L 382.227,28.699 L 383.410,28.513 L 384.583,28.439 L 386.163,28.439 L 387.377,28.461 L 388.889,28.517 L 390.385,28.587 L 391.742,28.597 L 393.136,28.269 L 394.479,27.574 L 395.716,26.251 L 397.053,24.810 L 398.323,23.257 L 400.525,22.227 L 401.958,21.525 L 403.245,21.232 L 404.656,21.005 L 406.049,20.556 L 407.439,19.823 L 408.785,18.451 L 410.240,16.872 L 411.574,14.888 L 413.571,13.261 L 414.992,11.813 L 416.323,11.015 L 417.680,10.51 L 419.096,10.343 L 420.464,10.228 L 421.9,10.144 L 423.117,10.012 L 424.422,9.882 L 425.888,9.750 L 427.260,9.636 L 428.513,9.506 L 429.882,9.265 L 432.007,8.923 L 433.364,8.394 L 434.747,7.874 L 436.222,7.397 L 437.587,7.252 L 439.087,7.567 L 440.532,8.523 L 441.933,10.088 L 443.439,12.057 L 444.864,14.025 L 446.254,15.608 L 447.634,16.607 L 449.012,16.960 L 450.495,17.16 L 451.878,17.164 L 453.354,17.710 L 454.792,18.214 L 456.138,19.133 L 457.498,19.764 L 458.926,20.469 L 460.318,21.190 L 461.852,22.114 L 463.281,23.437 L 464.703,24.739 L 466.025,26.128 L 467.321,27.131 L 468.724,28.189 L 470.111,29.126 L 471.530,30.391 L 472.995,31.563 L 474.521,32.783 L 475.943,33.609 L 477.463,34.333 L 478.846,34.834 L 480.348,35.43 L 481.853,35.951 L 483.260,36.48 L 484.578,36.814 L 486,37.037 L 487.306,37.111 L 488.766,37.141 L 490.122,37.141 L 491.53,37.141 L 492.969,37.171 L 494.375,37.245 L 495.844,37.468 L 497.183,37.772 L 498.676,38.227 L 500.104,38.525 L 501.498,38.720 L 502.950,38.525 L 504.468,38.227 L 505.916,37.772 L 507.308,37.490 L 508.683,37.323 L 510.107,37.416 L 511.476,37.637 L 512.906,38.033 L 514.269,38.424 L 515.633,38.821 L 517.112,39.131 L 518.533,39.446 L 519.955,39.948 L 521.360,40.638 L 522.617,41.696 L 524.043,42.738 L 525.43,43.826 L 526.873,44.568 L 528.291,45.237 L 529.756,45.719 L 531.16,46.241 L 532.513,46.595 L 533.955,46.622 L 535.085,46.205 L 536.734,45.237 L 538.158,44.140 L 539.572,42.964 L 540.951,42.175 L 542.394,41.563 L 543.859,41.228 L 545.306,40.897 L 546.746,40.637 L 548.24,40.342 L 549.638,40.101 L 551.176,39.767 L 552.654,39.41 L 554.135,38.904 L 555.559,38.494 L 556.995,38.132 L 558.407,38.063 L 559.901,38.1 L 561.385,38.291 L 562.913,38.428 L 564.354,38.539 L 565.681,38.606 L 567.179,38.695 L 568.837,38.918 L 570.301,39.252 L 571.687,39.781 L 573.021,40.302 L 574.504,40.831 L 576.012,41.239 L 577.393,41.648 L 578.731,42.279 L 580.072,43.144 L 581.449,44.467 L 582.843,45.769 L 584.195,47.091 L 585.591,48.016 L 587.14,48.796 L 588.653,49.650 L 590.059,50.726 L 591.408,52.314 L 592.799,53.876 L 594.113,55.463 L 595.404,56.599 L 596.804,57.698 L 598.225,59.165 L 599.628,61.482 L 601.07,64.949 L 602.445,69.011 L 603.821,73.085 L 605.241,76.308 L 606.611,78.396 L 607.978,79.455 L 609.281,79.904 L 610.494,80.186 L 611.959,80.661 L 613.450,81.292 L 614.932,82.003 L 616.353,82.385 L 617.802,82.253 L 619.136,81.657 L 620.648,80.759 L 621.992,80.025 L 623.612,79.561 L 625.001,79.543 L 626.409,80.018 L 627.835,80.89 L 629.31,82.269 L 630.896,83.756 L 632.323,85.218 L 633.698,86.297 L 635.047,86.844 L 636.29,87.040 L 637.768,86.87 L 639.257,86.731 L 640.735,86.546 L 642.083,86.490 L 643.445,86.557 L 644.843,86.817 L 646.258,87.596 L 647.716,88.766 L 649.310,90.618 L 650.729,92.44 L 652.247,94.292 L 653.621,95.462 L 654.998,96.241 L 656.448,96.501 L 657.886,96.702 L 659.263,96.943 L 660.712,97.667 L 662.069,98.753 L 663.571,100.473 L 665.319,102.165 L 666.73,103.884 L 668.125,105.082 L 669.489,106.084 L 670.588,107.161 L 672.115,108.511 L 673.567,110.495 L 675.004,112.448 L 676.414,114.432 L 677.797,115.588 L 679.157,116.316 L 680.623,116.205 L 681.866,116.232 L 683.337,116.017 L 684.723,116.705 L 686.157,117.329 L 687.674,118.624 L 689.047,119.403 L 690.436,120.165 L 691.79,120.551 L 693.171,121.056 L 694.704,122.11 L 696.140,123.632 L 697.536,125.832 L 698.896,127.768 L 700.454,129.251 L 701.934,129.62 L 703.339,128.896 L 704.822,127.430 L 706.405,125.281 L 707.824,123.310 L 709.21,121.399 L 710.357,120.229 L 711.792,119.553 L 713.252,119.553 L 714.616,120.229 L 716.096,121.399 L 717.605,123.25 L 718.979,125.073 L 720.358,126.925 L 721.829,128.050 L 723.256,128.718 L 724.724,128.644 L 726.162,128.247 L 727.661,127.453 L 729.114,126.672 L 730.502,125.878 L 731.911,125.303 L 733.303,124.783 L 734.805,124.115 L 736.256,123.235 L 737.688,122.187 L 739.118,121.572 L 740.54,122.310 L 742.013,124.565 L 743.386,128.902 L 744.853,133.533 L 746.259,138.242 L 748.016,141.054 L 749.230,142.280 L 750.608,141.713 L 752.059,140.205 L 753.543,138.753 L 754.999,138.273 L 756.489,139.275 L 757.881,142.011 L 759.253,145.248 L 760.710,148.708 L 762.101,150.963 L 763.434,152.467 L 764.927,153.065 L 766.446,153.506 L 767.936,154.23 L 769.314,155.317 L 770.754,157.036 L 772.292,158.728 L 773.741,160.448 L 775.179,161.489 L 776.842,162.102 L 778.402,162.009 L 779.891,161.605 L 781.205,160.811 L 782.618,160.030 L 784.085,159.229 L 785.679,158.709 L 787.157,158.319 L 788.703,158.124 L 790.129,157.947 L 791.544,157.817 L 793.149,157.692 L 794.743,157.627 L 796.336,157.471 L 797.785,157.139 L 800.655,156.291 L 803.543,155.150 L 807.895,154.021 L 817.860,153.639 L 821.194,154.578 L 822.709,156.504 L 828.762,159.241 L 830.735,161.538 L 845.205,163.485 L 848.182,164.373 L 851.691,164.912 L 865.167,164.890 L 871.972,165.232 L 874.003,165.795 L 878.991,167.172 L 889.961,168.792 L 891.775,170.766 L 893.426,172.613 L 895.004,174.521 L 897.261,176.374 L 897.261,180 L 42.739,180 Z"></path></g><g fill="rgba(16,16,16,0.251)" fill-rule="evenodd" stroke="rgba(0,0,0,0.686)" stroke-width="0.5" stroke-linecap="round" stroke-linejoin="round"><path d="M 42.739,180 L 42.739,180 L 45.267,180 L 46.787,180 L 51.378,180 L 52.82,180 L 54.268,180 L 55.802,180 L 57.212,180 L 58.697,180 L 60.257,180 L 61.752,180 L 63.257,180 L 64.586,180 L 66.042,180 L 69.093,180 L 73.846,180 L 75.722,180 L 77.069,180 L 78.511,180 L 79.911,180 L 81.214,180 L 82.679,180 L 84.99,180 L 86.426,180 L 87.983,180 L 89.683,180 L 90.974,180 L 92.395,180 L 93.902,180 L 95.449,180 L 96.883,180 L 98.356,180 L 99.778,180 L 101.226,180 L 102.568,180 L 103.964,180 L 105.383,180 L 106.786,180 L 108.382,180 L 109.985,180 L 111.382,180 L 114.285,180 L 115.676,180 L 117.325,180 L 118.675,180 L 119.879,180 L 121.349,180 L 123.235,180 L 124.663,180 L 126.136,180 L 127.753,180 L 129.397,180 L 131.928,180 L 133.539,180 L 135.142,180 L 137.147,180 L 138.941,180 L 143.061,180 L 145.999,180 L 147.441,180 L 148.689,180 L 151.697,180 L 154.706,180 L 159.490,180 L 161.397,180 L 163.657,180 L 166.002,180 L 167.991,180 L 169.730,180 L 171.397,180 L 172.947,180 L 174.606,180 L 176.244,180 L 177.840,180 L 179.389,180 L 180.891,180 L 182.354,180 L 183.805,180 L 185.586,180 L 187.079,180 L 191.903,180 L 193.541,180 L 195.064,180 L 196.798,180 L 198.416,180 L 200.013,180 L 201.587,180 L 203.043,180 L 204.381,180 L 205.749,180 L 207.150,180 L 208.633,180 L 210.157,180 L 211.711,180 L 213.109,180 L 214.509,180 L 216.008,180 L 217.422,180 L 218.934,180 L 220.361,180 L 221.707,180 L 223.169,180 L 224.503,180 L 227.375,180 L 230.196,180 L 231.752,180 L 233.31,180 L 234.729,180 L 236.273,180 L 239.946,180 L 241.445,180 L 243.017,180 L 244.499,180 L 246.02,180 L 247.469,180 L 248.841,180 L 250.208,180 L 251.620,180 L 252.932,180 L 254.272,180 L 255.636,180 L 257.080,180 L 259.355,180 L 260.758,180 L 262.231,180 L 263.729,180 L 265.145,180 L 266.461,180 L 268.085,180 L 269.451,180 L 270.718,180 L 272.131,180 L 273.489,180 L 274.943,180 L 276.319,180 L 277.644,180 L 279.361,180 L 280.765,180 L 283.792,180 L 286.708,180 L 288.153,180 L 289.717,180 L 291.900,180 L 296.159,180 L 298.180,180 L 300.020,180 L 301.399,180 L 304.155,180 L 305.982,180 L 307.268,180 L 309.295,180 L 312.891,180 L 314.322,180 L 315.858,180 L 317.342,180 L 318.769,180 L 320.234,180 L 322.525,180 L 324.11,180 L 327.580,180 L 329.686,180 L 331.282,180 L 332.76,180 L 334.246,180 L 335.587,180 L 336.986,180 L 338.477,180 L 339.831,180 L 341.166,180 L 342.527,180 L 346.072,180 L 350.804,180 L 352.693,180 L 353.674,180 L 355.045,180 L 357.69,180 L 359.117,180 L 360.531,180 L 361.845,180 L 363.262,180 L 364.693,180 L 366.077,180 L 367.448,180 L 368.892,180 L 370.31,180 L 371.704,180 L 373.01,180 L 374.293,180 L 375.81,180 L 377.172,180 L 378.96,180 L 380.506,180 L 382.227,180 L 383.410,180 L 384.583,180 L 386.163,180 L 387.377,180 L 388.889,180 L 390.385,180 L 391.742,180 L 393.136,180 L 394.479,180 L 395.716,180 L 397.053,180 L 398.323,180 L 400.525,180 L 401.958,180 L 403.245,180 L 404.656,180 L 406.049,180 L 407.439,180 L 408.785,180 L 410.240,180 L 411.574,180 L 413.571,180 L 414.992,180 L 416.323,180 L 417.680,180 L 419.096,180 L 420.464,180 L 421.9,180 L 423.117,180 L 424.422,180 L 425.888,180 L 427.260,180 L 428.513,180 L 429.882,180 L 432.007,180 L 433.364,180 L 434.747,180 L 436.222,180 L 437.587,180 L 439.087,180 L 440.532,180 L 441.933,180 L 443.439,180 L 444.864,180 L 446.254,180 L 447.634,180 L 449.012,180 L 450.495,180 L 451.878,180 L 453.354,180 L 454.792,180 L 456.138,180 L 457.498,180 L 458.926,180 L 460.318,180 L 461.852,180 L 463.281,180 L 464.703,180 L 466.025,180 L 467.321,180 L 468.724,180 L 470.111,180 L 471.530,180 L 472.995,180 L 474.521,180 L 475.943,180 L 477.463,180 L 478.846,180 L 480.348,180 L 481.853,180 L 483.260,180 L 484.578,180 L 486,180 L 487.306,180 L 488.766,180 L 490.122,180 L 491.53,180 L 492.969,180 L 494.375,180 L 495.844,180 L 497.183,180 L 498.676,180 L 500.104,180 L 501.498,180 L 502.950,180 L 504.468,180 L 505.916,180 L 507.308,180 L 508.683,180 L 510.107,180 L 511.476,180 L 512.906,180 L 514.269,180 L 515.633,180 L 517.112,180 L 518.533,180 L 519.955,180 L 521.360,180 L 522.617,180 L 524.043,180 L 525.43,180 L 526.873,180 L 528.291,180 L 529.756,180 L 531.16,180 L 532.513,180 L 533.955,180 L 535.085,180 L 536.734,180 L 538.158,180 L 539.572,180 L 540.951,180 L 542.394,180 L 543.859,180 L 545.306,180 L 546.746,180 L 548.24,180 L 549.638,180 L 551.176,180 L 552.654,180 L 554.135,180 L 555.559,180 L 556.995,180 L 558.407,180 L 559.901,180 L 561.385,180 L 562.913,180 L 564.354,180 L 565.681,180 L 567.179,180 L 568.837,180 L 570.301,180 L 571.687,180 L 573.021,180 L 574.504,180 L 576.012,180 L 577.393,180 L 578.731,180 L 580.072,180 L 581.449,180 L 582.843,180 L 584.195,180 L 585.591,180 L 587.14,180 L 588.653,180 L 590.059,180 L 591.408,180 L 592.799,180 L 594.113,180 L 595.404,180 L 596.804,180 L 598.225,180 L 599.628,180 L 601.07,180 L 602.445,180 L 603.821,180 L 605.241,180 L 606.611,180 L 607.978,180 L 609.281,180 L 610.494,180 L 611.959,180 L 613.450,180 L 614.932,180 L 616.353,180 L 617.802,180 L 619.136,180 L 620.648,180 L 621.992,180 L 623.612,180 L 625.001,180 L 626.409,180 L 627.835,180 L 629.31,180 L 630.896,180 L 632.323,180 L 633.698,180 L 635.047,180 L 636.29,180 L 637.768,180 L 639.257,180 L 640.735,180 L 642.083,180 L 643.445,180 L 644.843,180 L 646.258,180 L 647.716,180 L 649.310,180 L 650.729,180 L 652.247,180 L 653.621,180 L 654.998,180 L 656.448,180 L 657.886,180 L 659.263,180 L 660.712,180 L 662.069,180 L 663.571,180 L 665.319,180 L 666.73,180 L 668.125,180 L 669.489,180 L 670.588,180 L 672.115,180 L 673.567,180 L 675.004,180 L 676.414,180 L 677.797,180 L 679.157,180 L 680.623,180 L 681.866,180 L 683.337,180 L 684.723,180 L 686.157,180 L 687.674,180 L 689.047,180 L 690.436,180 L 691.79,180 L 693.171,180 L 694.704,180 L 696.140,180 L 697.536,180 L 698.896,180 L 700.454,180 L 701.934,180 L 703.339,180 L 704.822,180 L 706.405,180 L 707.824,180 L 709.21,180 L 710.357,180 L 711.792,180 L 713.252,180 L 714.616,180 L 716.096,180 L 717.605,180 L 718.979,180 L 720.358,180 L 721.829,180 L 723.256,180 L 724.724,180 L 726.162,180 L 727.661,180 L 729.114,180 L 730.502,180 L 731.911,180 L 733.303,180 L 734.805,180 L 736.256,180 L 737.688,180 L 739.118,180 L 740.54,180 L 742.013,180 L 743.386,180 L 744.853,180 L 746.259,180 L 748.016,180 L 749.230,180 L 750.608,180 L 752.059,180 L 753.543,180 L 754.999,180 L 756.489,180 L 757.881,180 L 759.253,180 L 760.710,180 L 762.101,180 L 763.434,180 L 764.927,180 L 766.446,180 L 767.936,180 L 769.314,180 L 770.754,180 L 772.292,180 L 773.741,180 L 775.179,180 L 776.842,180 L 778.402,180 L 779.891,180 L 781.205,180 L 782.618,180 L 784.085,180 L 785.679,180 L 787.157,180 L 788.703,180 L 790.129,180 L 791.544,180 L 793.149,180 L 794.743,180 L 796.336,180 L 797.785,180 L 800.655,180 L 803.543,180 L 807.895,180 L 817.860,180 L 821.194,180 L 822.709,180 L 828.762,180 L 830.735,180 L 845.205,180 L 848.182,180 L 851.691,180 L 865.167,180 L 871.972,180 L 874.003,180 L 878.991,180 L 889.961,180 L 891.775,180 L 893.426,180 L 895.004,180 L 897.261,180 L 897.261,180 L 42.739,180 Z"></path></g><g fill="rgba(16,16,16,0.251)" fill-rule="evenodd" stroke="#366AFF" stroke-width="0.5" stroke-linecap="round" stroke-linejoin="round"><path d="M 40,180 L 900,180 Z"></path></g><g fill="rgba(16,16,16,0.251)" fill-rule="evenodd" stroke="#366AFF" stroke-width="0.5" stroke-linecap="round" stroke-linejoin="round"><path d="M 179.686,177 L 179.686,183 Z"></path></g><g fill="rgba(0,0,0,0)" fill-rule="evenodd"><path d="M 173.124,192 L 173.124,191.078 L 174.967,191.078 L 174.967,183.797 L 173.124,184.266 L 173.124,183.312 L 176.202,182.547 L 176.202,191.078 L 178.045,191.078 L 178.045,192 L 173.124,192 M 179.733,192 L 179.733,182.156 L 180.967,182.156 L 180.967,188.516 L 183.233,185.234 L 184.405,185.234 L 182.249,188.422 L 185.045,192 L 183.561,192 L 180.967,188.531 L 180.967,192 L 179.733,192 M 186.124,192 L 186.124,185.234 L 187.358,185.234 L 187.358,186.5 Q 187.905,185.688 188.249,185.406 Q 188.655,185.078 189.311,185.078 Q 190.124,185.078 190.624,185.609 Q 190.92,185.906 191.139,186.5 Q 191.686,185.672 192.030,185.406 Q 192.436,185.078 193.108,185.078 Q 194.92,185.078 194.92,187.078 L 194.92,192 L 193.686,192 L 193.686,187.266 Q 193.686,186.109 192.780,186.109 Q 191.983,186.109 191.139,187.469 L 191.139,192 L 189.905,192 L 189.905,187.266 Q 189.905,186.109 188.999,186.109 Q 188.202,186.109 187.358,187.469 L 187.358,192 L 186.124,192"></path></g><g fill="#366AFF" fill-rule="evenodd"><path d="M 168.764,192 L 168.764,191.266 L 170.249,191.266 L 170.249,185.438 L 168.764,185.797 L 168.764,185.047 L 171.233,184.438 L 171.233,191.266 L 172.717,191.266 L 172.717,192 L 168.764,192 M 174.077,192 L 174.077,184.125 L 175.061,184.125 L 175.061,189.203 L 176.874,186.578 L 177.811,186.578 L 176.092,189.141 L 178.327,192 L 177.139,192 L 175.061,189.219 L 175.061,192 L 174.077,192 M 179.186,192 L 179.186,186.578 L 180.17,186.578 L 180.17,187.594 Q 180.608,186.953 180.889,186.719 Q 181.217,186.469 181.733,186.469 Q 182.389,186.469 182.795,186.875 Q 183.030,187.125 183.202,187.594 Q 183.639,186.938 183.92,186.719 Q 184.233,186.469 184.780,186.469 Q 186.217,186.469 186.217,188.062 L 186.217,192 L 185.249,192 L 185.233,188.219 Q 185.233,187.281 184.514,187.281 Q 183.874,187.281 183.202,188.375 L 183.202,192 L 182.217,192 L 182.217,188.219 Q 182.217,187.281 181.483,187.281 Q 180.858,187.281 180.17,188.375 L 180.17,192 L 179.186,192"></path></g><g fill="#366AFF" fill-rule="evenodd" stroke="#366AFF" stroke-width="0.5" stroke-linecap="round" stroke-linejoin="round"><path d="M 316.633,177 L 316.633,183 Z"></path></g><g fill="rgba(0,0,0,0)" fill-rule="evenodd"><path d="M 309.149,192 L 309.149,191.141 Q 309.477,190.344 310.289,189.5 L 310.836,188.953 L 311.321,188.453 Q 312.274,187.469 312.274,186.469 Q 312.274,185.766 311.914,185.438 Q 311.618,185.172 311.086,185.172 Q 310.399,185.172 309.321,185.766 L 309.321,184.891 Q 310.336,184.438 311.211,184.438 Q 312.18,184.438 312.758,185 Q 313.321,185.547 313.321,186.5 Q 313.321,187.156 313.039,187.656 Q 312.727,188.172 311.914,188.906 L 311.571,189.219 Q 310.539,190.156 310.336,191.141 L 313.289,191.141 L 313.289,192 L 309.149,192 M 315.086,192 L 315.086,184.125 L 316.071,184.125 L 316.071,189.203 L 317.883,186.578 L 318.821,186.578 L 317.102,189.141 L 319.336,192 L 318.149,192 L 316.071,189.219 L 316.071,192 L 315.086,192 M 320.196,192 L 320.196,186.578 L 321.18,186.578 L 321.18,187.594 Q 321.618,186.953 321.899,186.719 Q 322.227,186.469 322.743,186.469 Q 323.399,186.469 323.805,186.875 Q 324.039,187.125 324.211,187.594 Q 324.649,186.938 324.93,186.719 Q 325.243,186.469 325.789,186.469 Q 327.227,186.469 327.227,188.062 L 327.227,192 L 326.258,192 L 326.243,188.219 Q 326.243,187.281 325.524,187.281 Q 324.883,187.281 324.211,188.375 L 324.211,192 L 323.227,192 L 323.227,188.219 Q 323.227,187.281 322.493,187.281 Q 321.868,187.281 321.18,188.375 L 321.18,192 L 320.196,192"></path></g><g fill="#366AFF" fill-rule="evenodd"><path d="M 307.493,192 L 307.493,191.141 Q 307.821,190.344 308.633,189.5 L 309.18,188.953 L 309.664,188.453 Q 310.618,187.469 310.618,186.469 Q 310.618,185.766 310.258,185.438 Q 309.961,185.172 309.43,185.172 Q 308.743,185.172 307.664,185.766 L 307.664,184.891 Q 308.68,184.438 309.555,184.438 Q 310.524,184.438 311.102,185 Q 311.664,185.547 311.664,186.5 Q 311.664,187.156 311.383,187.656 Q 311.071,188.172 310.258,188.906 L 309.914,189.219 Q 308.883,190.156 308.68,191.141 L 311.633,191.141 L 311.633,192 L 307.493,192 M 313.43,192 L 313.43,184.125 L 314.414,184.125 L 314.414,189.203 L 316.227,186.578 L 317.164,186.578 L 315.446,189.141 L 317.68,192 L 316.493,192 L 314.414,189.219 L 314.414,192 L 313.43,192 M 318.539,192 L 318.539,186.578 L 319.524,186.578 L 319.524,187.594 Q 319.961,186.953 320.243,186.719 Q 320.571,186.469 321.086,186.469 Q 321.743,186.469 322.149,186.875 Q 322.383,187.125 322.555,187.594 Q 322.993,186.938 323.274,186.719 Q 323.586,186.469 324.133,186.469 Q 325.571,186.469 325.571,188.062 L 325.571,192 L 324.602,192 L 324.586,188.219 Q 324.586,187.281 323.868,187.281 Q 323.227,187.281 322.555,188.375 L 322.555,192 L 321.571,192 L 321.571,188.219 Q 321.571,187.281 320.836,187.281 Q 320.211,187.281 319.524,188.375 L 319.524,192 L 318.539,192"></path></g><g fill="#366AFF" fill-rule="evenodd" stroke="#366AFF" stroke-width="0.5" stroke-linecap="round" stroke-linejoin="round"><path d="M 453.58,177 L 453.58,183 Z"></path></g><g fill="rgba(0,0,0,0)" fill-rule="evenodd"><path d="M 446.346,191.938 L 446.346,191.031 L 446.377,191.047 Q 446.502,191.094 446.565,191.109 Q 447.111,191.312 447.299,191.359 Q 447.627,191.453 447.893,191.453 Q 448.643,191.453 449.018,191.031 Q 449.346,190.672 449.346,190 Q 449.346,189.234 448.846,188.828 Q 448.346,188.406 447.424,188.406 L 447.033,188.406 L 447.033,187.75 L 447.361,187.75 Q 448.221,187.734 448.690,187.344 Q 449.174,186.953 449.174,186.281 Q 449.174,185.172 447.986,185.172 Q 447.361,185.172 446.440,185.578 L 446.440,184.719 Q 447.346,184.438 448.033,184.438 Q 449.236,184.438 449.768,185 Q 450.158,185.422 450.158,186.125 Q 450.158,186.922 449.596,187.438 Q 449.268,187.75 448.611,188 Q 449.190,188.141 449.471,188.312 Q 450.393,188.844 450.393,189.969 Q 450.393,190.969 449.736,191.578 Q 449.08,192.188 447.986,192.188 Q 447.408,192.188 446.346,191.938 M 452.033,192 L 452.033,184.125 L 453.018,184.125 L 453.018,189.203 L 454.83,186.578 L 455.768,186.578 L 454.049,189.141 L 456.283,192 L 455.096,192 L 453.018,189.219 L 453.018,192 L 452.033,192 M 457.143,192 L 457.143,186.578 L 458.127,186.578 L 458.127,187.594 Q 458.565,186.953 458.846,186.719 Q 459.174,186.469 459.690,186.469 Q 460.346,186.469 460.752,186.875 Q 460.986,187.125 461.158,187.594 Q 461.596,186.938 461.877,186.719 Q 462.190,186.469 462.736,186.469 Q 464.174,186.469 464.174,188.062 L 464.174,192 L 463.205,192 L 463.190,188.219 Q 463.190,187.281 462.471,187.281 Q 461.83,187.281 461.158,188.375 L 461.158,192 L 460.174,192 L 460.174,188.219 Q 460.174,187.281 459.440,187.281 Q 458.815,187.281 458.127,188.375 L 458.127,192 L 457.143,192"></path></g><g fill="#366AFF" fill-rule="evenodd"><path d="M 444.690,191.938 L 444.690,191.031 L 444.721,191.047 Q 444.846,191.094 444.908,191.109 Q 445.455,191.312 445.643,191.359 Q 445.971,191.453 446.236,191.453 Q 446.986,191.453 447.361,191.031 Q 447.690,190.672 447.690,190 Q 447.690,189.234 447.190,188.828 Q 446.690,188.406 445.768,188.406 L 445.377,188.406 L 445.377,187.75 L 445.705,187.75 Q 446.565,187.734 447.033,187.344 Q 447.518,186.953 447.518,186.281 Q 447.518,185.172 446.33,185.172 Q 445.705,185.172 444.783,185.578 L 444.783,184.719 Q 445.690,184.438 446.377,184.438 Q 447.58,184.438 448.111,185 Q 448.502,185.422 448.502,186.125 Q 448.502,186.922 447.940,187.438 Q 447.611,187.75 446.955,188 Q 447.533,188.141 447.815,188.312 Q 448.736,188.844 448.736,189.969 Q 448.736,190.969 448.08,191.578 Q 447.424,192.188 446.33,192.188 Q 445.752,192.188 444.690,191.938 M 450.377,192 L 450.377,184.125 L 451.361,184.125 L 451.361,189.203 L 453.174,186.578 L 454.111,186.578 L 452.393,189.141 L 454.627,192 L 453.440,192 L 451.361,189.219 L 451.361,192 L 450.377,192 M 455.486,192 L 455.486,186.578 L 456.471,186.578 L 456.471,187.594 Q 456.908,186.953 457.190,186.719 Q 457.518,186.469 458.033,186.469 Q 458.690,186.469 459.096,186.875 Q 459.33,187.125 459.502,187.594 Q 459.940,186.938 460.221,186.719 Q 460.533,186.469 461.08,186.469 Q 462.518,186.469 462.518,188.062 L 462.518,192 L 461.549,192 L 461.533,188.219 Q 461.533,187.281 460.815,187.281 Q 460.174,187.281 459.502,188.375 L 459.502,192 L 458.518,192 L 458.518,188.219 Q 458.518,187.281 457.783,187.281 Q 457.158,187.281 456.471,188.375 L 456.471,192 L 455.486,192"></path></g><g fill="#366AFF" fill-rule="evenodd" stroke="#366AFF" stroke-width="0.5" stroke-linecap="round" stroke-linejoin="round"><path d="M 590.527,177 L 590.527,183 Z"></path></g><g fill="rgba(0,0,0,0)" fill-rule="evenodd"><path d="M 585.965,192 L 585.965,189.906 L 582.684,189.906 L 582.684,189.172 L 585.965,184.609 L 586.887,184.609 L 586.887,189.109 L 587.871,189.109 L 587.871,189.906 L 586.887,189.906 L 586.887,192 L 585.965,192 M 583.652,189.109 L 586.027,189.109 L 586.027,185.828 L 583.652,189.109 M 588.98,192 L 588.98,184.125 L 589.965,184.125 L 589.965,189.203 L 591.777,186.578 L 592.715,186.578 L 590.996,189.141 L 593.23,192 L 592.043,192 L 589.965,189.219 L 589.965,192 L 588.98,192 M 594.090,192 L 594.090,186.578 L 595.074,186.578 L 595.074,187.594 Q 595.512,186.953 595.793,186.719 Q 596.121,186.469 596.637,186.469 Q 597.293,186.469 597.699,186.875 Q 597.934,187.125 598.105,187.594 Q 598.543,186.938 598.824,186.719 Q 599.137,186.469 599.684,186.469 Q 601.121,186.469 601.121,188.062 L 601.121,192 L 600.152,192 L 600.137,188.219 Q 600.137,187.281 599.418,187.281 Q 598.777,187.281 598.105,188.375 L 598.105,192 L 597.121,192 L 597.121,188.219 Q 597.121,187.281 596.387,187.281 Q 595.762,187.281 595.074,188.375 L 595.074,192 L 594.090,192"></path></g><g fill="#366AFF" fill-rule="evenodd"><path d="M 584.309,192 L 584.309,189.906 L 581.027,189.906 L 581.027,189.172 L 584.309,184.609 L 585.23,184.609 L 585.23,189.109 L 586.215,189.109 L 586.215,189.906 L 585.23,189.906 L 585.23,192 L 584.309,192 M 581.996,189.109 L 584.371,189.109 L 584.371,185.828 L 581.996,189.109 M 587.324,192 L 587.324,184.125 L 588.309,184.125 L 588.309,189.203 L 590.121,186.578 L 591.059,186.578 L 589.340,189.141 L 591.574,192 L 590.387,192 L 588.309,189.219 L 588.309,192 L 587.324,192 M 592.434,192 L 592.434,186.578 L 593.418,186.578 L 593.418,187.594 Q 593.855,186.953 594.137,186.719 Q 594.465,186.469 594.98,186.469 Q 595.637,186.469 596.043,186.875 Q 596.277,187.125 596.449,187.594 Q 596.887,186.938 597.168,186.719 Q 597.48,186.469 598.027,186.469 Q 599.465,186.469 599.465,188.062 L 599.465,192 L 598.496,192 L 598.48,188.219 Q 598.48,187.281 597.762,187.281 Q 597.121,187.281 596.449,188.375 L 596.449,192 L 595.465,192 L 595.465,188.219 Q 595.465,187.281 594.73,187.281 Q 594.105,187.281 593.418,188.375 L 593.418,192 L 592.434,192"></path></g><g fill="#366AFF" fill-rule="evenodd" stroke="#366AFF" stroke-width="0.5" stroke-linecap="round" stroke-linejoin="round"><path d="M 727.474,177 L 727.474,183 Z"></path></g><g fill="rgba(0,0,0,0)" fill-rule="evenodd"><path d="M 720.287,192.031 L 720.287,191.156 Q 721.053,191.453 721.678,191.453 Q 722.412,191.453 722.834,191.016 Q 723.24,190.578 723.24,189.844 Q 723.24,188.172 720.974,188.172 Q 720.693,188.172 720.412,188.203 L 720.412,184.609 L 724.146,184.609 L 724.146,185.469 L 721.271,185.469 L 721.271,187.422 Q 722.599,187.438 723.334,187.953 Q 724.287,188.609 724.287,189.891 Q 724.287,190.969 723.568,191.578 Q 722.849,192.188 721.568,192.188 Q 721.021,192.188 720.287,192.031 M 725.928,192 L 725.928,184.125 L 726.912,184.125 L 726.912,189.203 L 728.724,186.578 L 729.662,186.578 L 727.943,189.141 L 730.178,192 L 728.99,192 L 726.912,189.219 L 726.912,192 L 725.928,192 M 731.037,192 L 731.037,186.578 L 732.021,186.578 L 732.021,187.594 Q 732.459,186.953 732.74,186.719 Q 733.068,186.469 733.584,186.469 Q 734.24,186.469 734.646,186.875 Q 734.881,187.125 735.053,187.594 Q 735.49,186.938 735.771,186.719 Q 736.084,186.469 736.631,186.469 Q 738.068,186.469 738.068,188.062 L 738.068,192 L 737.099,192 L 737.084,188.219 Q 737.084,187.281 736.365,187.281 Q 735.724,187.281 735.053,188.375 L 735.053,192 L 734.068,192 L 734.068,188.219 Q 734.068,187.281 733.334,187.281 Q 732.709,187.281 732.021,188.375 L 732.021,192 L 731.037,192"></path></g><g fill="#366AFF" fill-rule="evenodd"><path d="M 718.631,192.031 L 718.631,191.156 Q 719.396,191.453 720.021,191.453 Q 720.756,191.453 721.178,191.016 Q 721.584,190.578 721.584,189.844 Q 721.584,188.172 719.318,188.172 Q 719.037,188.172 718.756,188.203 L 718.756,184.609 L 722.49,184.609 L 722.49,185.469 L 719.615,185.469 L 719.615,187.422 Q 720.943,187.438 721.678,187.953 Q 722.631,188.609 722.631,189.891 Q 722.631,190.969 721.912,191.578 Q 721.193,192.188 719.912,192.188 Q 719.365,192.188 718.631,192.031 M 724.271,192 L 724.271,184.125 L 725.256,184.125 L 725.256,189.203 L 727.068,186.578 L 728.006,186.578 L 726.287,189.141 L 728.521,192 L 727.334,192 L 725.256,189.219 L 725.256,192 L 724.271,192 M 729.381,192 L 729.381,186.578 L 730.365,186.578 L 730.365,187.594 Q 730.803,186.953 731.084,186.719 Q 731.412,186.469 731.928,186.469 Q 732.584,186.469 732.99,186.875 Q 733.224,187.125 733.396,187.594 Q 733.834,186.938 734.115,186.719 Q 734.428,186.469 734.974,186.469 Q 736.412,186.469 736.412,188.062 L 736.412,192 L 735.443,192 L 735.428,188.219 Q 735.428,187.281 734.709,187.281 Q 734.068,187.281 733.396,188.375 L 733.396,192 L 732.412,192 L 732.412,188.219 Q 732.412,187.281 731.678,187.281 Q 731.053,187.281 730.365,188.375 L 730.365,192 L 729.381,192"></path></g><g fill="#366AFF" fill-rule="evenodd" stroke="#366AFF" stroke-width="0.5" stroke-linecap="round" stroke-linejoin="round"><path d="M 864.422,177 L 864.422,183 Z"></path></g><g fill="rgba(0,0,0,0)" fill-rule="evenodd"><path d="M 857.906,188.125 Q 858.593,187.266 859.593,187.266 Q 860.500,187.266 861.015,187.875 Q 861.547,188.5 861.547,189.578 Q 861.547,190.781 860.922,191.484 Q 860.312,192.188 859.265,192.188 Q 858.14,192.188 857.484,191.219 Q 856.843,190.25 856.843,188.547 Q 856.843,186.609 857.609,185.516 Q 858.39,184.422 859.750,184.422 Q 860.39,184.422 861.14,184.703 L 861.14,185.562 Q 860.250,185.172 859.734,185.172 Q 858.625,185.172 858.187,186.266 Q 858.015,186.719 857.953,187.25 Q 857.922,187.547 857.906,188.125 M 859.328,187.969 Q 858.703,187.969 858.328,188.391 Q 857.937,188.828 857.937,189.562 Q 857.937,190.375 858.343,190.906 Q 858.734,191.453 859.359,191.453 Q 860.578,191.453 860.578,189.781 Q 860.578,187.969 859.328,187.969 M 862.875,192 L 862.875,184.125 L 863.859,184.125 L 863.859,189.203 L 865.672,186.578 L 866.609,186.578 L 864.89,189.141 L 867.125,192 L 865.937,192 L 863.859,189.219 L 863.859,192 L 862.875,192 M 867.984,192 L 867.984,186.578 L 868.968,186.578 L 868.968,187.594 Q 869.406,186.953 869.687,186.719 Q 870.015,186.469 870.531,186.469 Q 871.187,186.469 871.593,186.875 Q 871.828,187.125 872.000,187.594 Q 872.437,186.938 872.718,186.719 Q 873.031,186.469 873.578,186.469 Q 875.015,186.469 875.015,188.062 L 875.015,192 L 874.047,192 L 874.031,188.219 Q 874.031,187.281 873.312,187.281 Q 872.672,187.281 872.000,188.375 L 872.000,192 L 871.015,192 L 871.015,188.219 Q 871.015,187.281 870.281,187.281 Q 869.656,187.281 868.968,188.375 L 868.968,192 L 867.984,192"></path></g><g fill="#366AFF" fill-rule="evenodd"><path d="M 856.250,188.125 Q 856.937,187.266 857.937,187.266 Q 858.843,187.266 859.359,187.875 Q 859.89,188.5 859.89,189.578 Q 859.89,190.781 859.265,191.484 Q 858.656,192.188 857.609,192.188 Q 856.484,192.188 855.828,191.219 Q 855.187,190.25 855.187,188.547 Q 855.187,186.609 855.953,185.516 Q 856.734,184.422 858.093,184.422 Q 858.734,184.422 859.484,184.703 L 859.484,185.562 Q 858.593,185.172 858.078,185.172 Q 856.968,185.172 856.531,186.266 Q 856.359,186.719 856.297,187.25 Q 856.265,187.547 856.250,188.125 M 857.672,187.969 Q 857.047,187.969 856.672,188.391 Q 856.281,188.828 856.281,189.562 Q 856.281,190.375 856.687,190.906 Q 857.078,191.453 857.703,191.453 Q 858.922,191.453 858.922,189.781 Q 858.922,187.969 857.672,187.969 M 861.218,192 L 861.218,184.125 L 862.203,184.125 L 862.203,189.203 L 864.015,186.578 L 864.953,186.578 L 863.234,189.141 L 865.468,192 L 864.281,192 L 862.203,189.219 L 862.203,192 L 861.218,192 M 866.328,192 L 866.328,186.578 L 867.312,186.578 L 867.312,187.594 Q 867.750,186.953 868.031,186.719 Q 868.359,186.469 868.875,186.469 Q 869.531,186.469 869.937,186.875 Q 870.172,187.125 870.343,187.594 Q 870.781,186.938 871.062,186.719 Q 871.375,186.469 871.922,186.469 Q 873.359,186.469 873.359,188.062 L 873.359,192 L 872.39,192 L 872.375,188.219 Q 872.375,187.281 871.656,187.281 Q 871.015,187.281 870.343,188.375 L 870.343,192 L 869.359,192 L 869.359,188.219 Q 869.359,187.281 868.625,187.281 Q 868.000,187.281 867.312,188.375 L 867.312,192 L 866.328,192"></path></g><g fill="#366AFF" fill-rule="evenodd" stroke="#366AFF" stroke-width="0.5" stroke-linecap="round" stroke-linejoin="round"><path d="M 40,180 L 40,0 Z"></path></g><g fill="#366AFF" fill-rule="evenodd" stroke="#366AFF" stroke-width="0.5" stroke-linecap="round" stroke-linejoin="round"><path d="M 37,152.443 L 43,152.443 Z"></path></g><g fill="rgba(0,0,0,0)" fill-rule="evenodd"><path d="M 33.953,160.428 Q 33.469,160.068 33.234,159.74 Q 32.875,159.272 32.875,158.725 Q 32.875,157.912 33.484,157.397 Q 34.109,156.881 35.094,156.881 Q 36.016,156.881 36.578,157.318 Q 37.141,157.756 37.141,158.475 Q 37.141,159.115 36.641,159.693 Q 36.344,160.037 35.766,160.428 Q 36.516,160.803 36.891,161.209 Q 37.438,161.787 37.438,162.553 Q 37.438,163.459 36.734,164.037 Q 36.031,164.631 34.922,164.631 Q 33.828,164.631 33.156,164.068 Q 32.5,163.522 32.5,162.600 Q 32.5,161.803 33.031,161.178 Q 33.359,160.803 33.953,160.428 M 35.219,160.115 Q 36.25,159.397 36.25,158.631 Q 36.25,158.162 35.906,157.897 Q 35.562,157.615 34.984,157.615 Q 34.438,157.615 34.109,157.881 Q 33.766,158.131 33.766,158.568 Q 33.766,159.100 34.328,159.537 Q 34.625,159.772 35.219,160.115 M 34.5,160.818 Q 33.953,161.256 33.719,161.568 Q 33.484,161.928 33.484,162.459 Q 33.484,163.100 33.891,163.49 Q 34.297,163.897 34.969,163.897 Q 35.609,163.897 36.016,163.553 Q 36.422,163.225 36.422,162.693 Q 36.422,162.209 36.109,161.881 Q 35.844,161.615 35.188,161.24 L 34.5,160.818 M 40.531,156.881 Q 41.656,156.881 42.312,157.912 Q 42.969,158.943 42.969,160.725 Q 42.969,162.553 42.312,163.584 Q 41.656,164.631 40.5,164.631 Q 39.516,164.631 38.891,163.787 Q 38.094,162.725 38.094,160.74 Q 38.094,158.943 38.75,157.912 Q 39.406,156.881 40.531,156.881 M 40.531,157.615 Q 39.859,157.615 39.5,158.428 Q 39.141,159.256 39.141,160.74 Q 39.141,162.225 39.5,163.068 Q 39.859,163.897 40.531,163.897 Q 41.141,163.897 41.469,163.287 Q 41.922,162.475 41.922,160.74 Q 41.922,159.225 41.562,158.428 Q 41.188,157.615 40.531,157.615 M 46.219,156.881 Q 47.344,156.881 48,157.912 Q 48.656,158.943 48.656,160.725 Q 48.656,162.553 48,163.584 Q 47.344,164.631 46.188,164.631 Q 45.203,164.631 44.578,163.787 Q 43.781,162.725 43.781,160.74 Q 43.781,158.943 44.438,157.912 Q 45.094,156.881 46.219,156.881 M 46.219,157.615 Q 45.547,157.615 45.188,158.428 Q 44.828,159.256 44.828,160.74 Q 44.828,162.225 45.188,163.068 Q 45.547,163.897 46.219,163.897 Q 46.828,163.897 47.156,163.287 Q 47.609,162.475 47.609,160.74 Q 47.609,159.225 47.25,158.428 Q 46.875,157.615 46.219,157.615 M 49.828,164.443 L 49.828,159.022 L 50.812,159.022 L 50.812,160.037 Q 51.25,159.397 51.531,159.162 Q 51.859,158.912 52.375,158.912 Q 53.031,158.912 53.438,159.318 Q 53.672,159.568 53.844,160.037 Q 54.281,159.381 54.562,159.162 Q 54.875,158.912 55.422,158.912 Q 56.859,158.912 56.859,160.506 L 56.859,164.443 L 55.891,164.443 L 55.875,160.662 Q 55.875,159.725 55.156,159.725 Q 54.516,159.725 53.844,160.818 L 53.844,164.443 L 52.859,164.443 L 52.859,160.662 Q 52.859,159.725 52.125,159.725 Q 51.5,159.725 50.812,160.818 L 50.812,164.443 L 49.828,164.443"></path></g><g fill="#366AFF" fill-rule="evenodd"><path d="M 12.375,152.428 Q 11.891,152.068 11.656,151.74 Q 11.297,151.272 11.297,150.725 Q 11.297,149.912 11.906,149.397 Q 12.531,148.881 13.516,148.881 Q 14.438,148.881 15,149.318 Q 15.562,149.756 15.562,150.475 Q 15.562,151.115 15.062,151.693 Q 14.766,152.037 14.188,152.428 Q 14.938,152.803 15.312,153.209 Q 15.859,153.787 15.859,154.553 Q 15.859,155.459 15.156,156.037 Q 14.453,156.631 13.344,156.631 Q 12.25,156.631 11.578,156.068 Q 10.922,155.522 10.922,154.600 Q 10.922,153.803 11.453,153.178 Q 11.781,152.803 12.375,152.428 M 13.641,152.115 Q 14.672,151.397 14.672,150.631 Q 14.672,150.162 14.328,149.897 Q 13.984,149.615 13.406,149.615 Q 12.859,149.615 12.531,149.881 Q 12.188,150.131 12.188,150.568 Q 12.188,151.100 12.75,151.537 Q 13.047,151.772 13.641,152.115 M 12.922,152.818 Q 12.375,153.256 12.141,153.568 Q 11.906,153.928 11.906,154.459 Q 11.906,155.100 12.312,155.49 Q 12.719,155.897 13.391,155.897 Q 14.031,155.897 14.438,155.553 Q 14.844,155.225 14.844,154.693 Q 14.844,154.209 14.531,153.881 Q 14.266,153.615 13.609,153.24 L 12.922,152.818 M 18.953,148.881 Q 20.078,148.881 20.734,149.912 Q 21.391,150.943 21.391,152.725 Q 21.391,154.553 20.734,155.584 Q 20.078,156.631 18.922,156.631 Q 17.938,156.631 17.312,155.787 Q 16.516,154.725 16.516,152.74 Q 16.516,150.943 17.172,149.912 Q 17.828,148.881 18.953,148.881 M 18.953,149.615 Q 18.281,149.615 17.922,150.428 Q 17.562,151.256 17.562,152.74 Q 17.562,154.225 17.922,155.068 Q 18.281,155.897 18.953,155.897 Q 19.562,155.897 19.891,155.287 Q 20.344,154.475 20.344,152.74 Q 20.344,151.225 19.984,150.428 Q 19.609,149.615 18.953,149.615 M 24.641,148.881 Q 25.766,148.881 26.422,149.912 Q 27.078,150.943 27.078,152.725 Q 27.078,154.553 26.422,155.584 Q 25.766,156.631 24.609,156.631 Q 23.625,156.631 23,155.787 Q 22.203,154.725 22.203,152.74 Q 22.203,150.943 22.859,149.912 Q 23.516,148.881 24.641,148.881 M 24.641,149.615 Q 23.969,149.615 23.609,150.428 Q 23.25,151.256 23.25,152.74 Q 23.25,154.225 23.609,155.068 Q 23.969,155.897 24.641,155.897 Q 25.25,155.897 25.578,155.287 Q 26.031,154.475 26.031,152.74 Q 26.031,151.225 25.672,150.428 Q 25.297,149.615 24.641,149.615 M 28.25,156.443 L 28.25,151.022 L 29.234,151.022 L 29.234,152.037 Q 29.672,151.397 29.953,151.162 Q 30.281,150.912 30.797,150.912 Q 31.453,150.912 31.859,151.318 Q 32.094,151.568 32.266,152.037 Q 32.703,151.381 32.984,151.162 Q 33.297,150.912 33.844,150.912 Q 35.281,150.912 35.281,152.506 L 35.281,156.443 L 34.312,156.443 L 34.297,152.662 Q 34.297,151.725 33.578,151.725 Q 32.938,151.725 32.266,152.818 L 32.266,156.443 L 31.281,156.443 L 31.281,152.662 Q 31.281,151.725 30.547,151.725 Q 29.922,151.725 29.234,152.818 L 29.234,156.443 L 28.25,156.443"></path></g><g fill="#366AFF" fill-rule="evenodd" stroke="#366AFF" stroke-width="0.5" stroke-linecap="round" stroke-linejoin="round"><path d="M 37,79.926 L 43,79.926 Z"></path></g><g fill="rgba(0,0,0,0)" fill-rule="evenodd"><path d="M 36.062,88.426 Q 35.375,89.286 34.375,89.286 Q 33.469,89.286 32.938,88.661 Q 32.422,88.051 32.422,86.957 Q 32.422,85.770 33.031,85.067 Q 33.656,84.348 34.688,84.348 Q 35.828,84.348 36.469,85.332 Q 37.125,86.301 37.125,87.989 Q 37.125,89.926 36.344,91.020 Q 35.578,92.114 34.203,92.114 Q 33.578,92.114 32.812,91.832 L 32.812,90.973 Q 33.719,91.379 34.234,91.379 Q 35.328,91.379 35.781,90.270 Q 35.953,89.832 36.016,89.286 Q 36.047,89.004 36.062,88.426 M 34.609,85.098 Q 33.391,85.098 33.391,86.754 Q 33.391,88.567 34.641,88.567 Q 35.266,88.567 35.641,88.145 Q 36.016,87.707 36.016,86.973 Q 36.016,86.161 35.625,85.629 Q 35.234,85.098 34.609,85.098 M 40.531,84.364 Q 41.656,84.364 42.312,85.395 Q 42.969,86.426 42.969,88.207 Q 42.969,90.036 42.312,91.067 Q 41.656,92.114 40.5,92.114 Q 39.516,92.114 38.891,91.270 Q 38.094,90.207 38.094,88.223 Q 38.094,86.426 38.75,85.395 Q 39.406,84.364 40.531,84.364 M 40.531,85.098 Q 39.859,85.098 39.5,85.911 Q 39.141,86.739 39.141,88.223 Q 39.141,89.707 39.5,90.551 Q 39.859,91.379 40.531,91.379 Q 41.141,91.379 41.469,90.770 Q 41.922,89.957 41.922,88.223 Q 41.922,86.707 41.562,85.911 Q 41.188,85.098 40.531,85.098 M 46.219,84.364 Q 47.344,84.364 48,85.395 Q 48.656,86.426 48.656,88.207 Q 48.656,90.036 48,91.067 Q 47.344,92.114 46.188,92.114 Q 45.203,92.114 44.578,91.270 Q 43.781,90.207 43.781,88.223 Q 43.781,86.426 44.438,85.395 Q 45.094,84.364 46.219,84.364 M 46.219,85.098 Q 45.547,85.098 45.188,85.911 Q 44.828,86.739 44.828,88.223 Q 44.828,89.707 45.188,90.551 Q 45.547,91.379 46.219,91.379 Q 46.828,91.379 47.156,90.770 Q 47.609,89.957 47.609,88.223 Q 47.609,86.707 47.25,85.911 Q 46.875,85.098 46.219,85.098 M 49.828,91.926 L 49.828,86.504 L 50.812,86.504 L 50.812,87.520 Q 51.25,86.879 51.531,86.645 Q 51.859,86.395 52.375,86.395 Q 53.031,86.395 53.438,86.801 Q 53.672,87.051 53.844,87.520 Q 54.281,86.864 54.562,86.645 Q 54.875,86.395 55.422,86.395 Q 56.859,86.395 56.859,87.989 L 56.859,91.926 L 55.891,91.926 L 55.875,88.145 Q 55.875,87.207 55.156,87.207 Q 54.516,87.207 53.844,88.301 L 53.844,91.926 L 52.859,91.926 L 52.859,88.145 Q 52.859,87.207 52.125,87.207 Q 51.5,87.207 50.812,88.301 L 50.812,91.926 L 49.828,91.926"></path></g><g fill="#366AFF" fill-rule="evenodd"><path d="M 14.484,80.426 Q 13.797,81.286 12.797,81.286 Q 11.891,81.286 11.359,80.661 Q 10.844,80.051 10.844,78.957 Q 10.844,77.770 11.453,77.067 Q 12.078,76.348 13.109,76.348 Q 14.25,76.348 14.891,77.332 Q 15.547,78.301 15.547,79.989 Q 15.547,81.926 14.766,83.020 Q 14,84.114 12.625,84.114 Q 12,84.114 11.234,83.832 L 11.234,82.973 Q 12.141,83.379 12.656,83.379 Q 13.75,83.379 14.203,82.270 Q 14.375,81.832 14.438,81.286 Q 14.469,81.004 14.484,80.426 M 13.031,77.098 Q 11.812,77.098 11.812,78.754 Q 11.812,80.567 13.062,80.567 Q 13.688,80.567 14.062,80.145 Q 14.438,79.707 14.438,78.973 Q 14.438,78.161 14.047,77.629 Q 13.656,77.098 13.031,77.098 M 18.953,76.364 Q 20.078,76.364 20.734,77.395 Q 21.391,78.426 21.391,80.207 Q 21.391,82.036 20.734,83.067 Q 20.078,84.114 18.922,84.114 Q 17.938,84.114 17.312,83.270 Q 16.516,82.207 16.516,80.223 Q 16.516,78.426 17.172,77.395 Q 17.828,76.364 18.953,76.364 M 18.953,77.098 Q 18.281,77.098 17.922,77.911 Q 17.562,78.739 17.562,80.223 Q 17.562,81.707 17.922,82.551 Q 18.281,83.379 18.953,83.379 Q 19.562,83.379 19.891,82.770 Q 20.344,81.957 20.344,80.223 Q 20.344,78.707 19.984,77.911 Q 19.609,77.098 18.953,77.098 M 24.641,76.364 Q 25.766,76.364 26.422,77.395 Q 27.078,78.426 27.078,80.207 Q 27.078,82.036 26.422,83.067 Q 25.766,84.114 24.609,84.114 Q 23.625,84.114 23,83.270 Q 22.203,82.207 22.203,80.223 Q 22.203,78.426 22.859,77.395 Q 23.516,76.364 24.641,76.364 M 24.641,77.098 Q 23.969,77.098 23.609,77.911 Q 23.25,78.739 23.25,80.223 Q 23.25,81.707 23.609,82.551 Q 23.969,83.379 24.641,83.379 Q 25.25,83.379 25.578,82.770 Q 26.031,81.957 26.031,80.223 Q 26.031,78.707 25.672,77.911 Q 25.297,77.098 24.641,77.098 M 28.25,83.926 L 28.25,78.504 L 29.234,78.504 L 29.234,79.520 Q 29.672,78.879 29.953,78.645 Q 30.281,78.395 30.797,78.395 Q 31.453,78.395 31.859,78.801 Q 32.094,79.051 32.266,79.520 Q 32.703,78.864 32.984,78.645 Q 33.297,78.395 33.844,78.395 Q 35.281,78.395 35.281,79.989 L 35.281,83.926 L 34.312,83.926 L 34.297,80.145 Q 34.297,79.207 33.578,79.207 Q 32.938,79.207 32.266,80.301 L 32.266,83.926 L 31.281,83.926 L 31.281,80.145 Q 31.281,79.207 30.547,79.207 Q 29.922,79.207 29.234,80.301 L 29.234,83.926 L 28.25,83.926"></path></g><g fill="#366AFF" fill-rule="evenodd" stroke="#366AFF" stroke-width="0.5" stroke-linecap="round" stroke-linejoin="round"><path d="M 37,7.409 L 43,7.409 Z"></path></g><g fill="rgba(0,0,0,0)" fill-rule="evenodd"><path d="M 33.141,19.409 L 33.141,18.674 L 34.625,18.674 L 34.625,12.846 L 33.141,13.206 L 33.141,12.456 L 35.609,11.846 L 35.609,18.674 L 37.094,18.674 L 37.094,19.409 L 33.141,19.409 M 40.125,11.846 Q 41.25,11.846 41.906,12.878 Q 42.562,13.909 42.562,15.69 Q 42.562,17.518 41.906,18.549 Q 41.25,19.596 40.094,19.596 Q 39.109,19.596 38.484,18.753 Q 37.688,17.69 37.688,15.706 Q 37.688,13.909 38.344,12.878 Q 39,11.846 40.125,11.846 M 40.125,12.581 Q 39.453,12.581 39.094,13.393 Q 38.734,14.221 38.734,15.706 Q 38.734,17.19 39.094,18.034 Q 39.453,18.862 40.125,18.862 Q 40.734,18.862 41.062,18.253 Q 41.516,17.44 41.516,15.706 Q 41.516,14.19 41.156,13.393 Q 40.781,12.581 40.125,12.581 M 45.812,11.846 Q 46.938,11.846 47.594,12.878 Q 48.25,13.909 48.25,15.69 Q 48.25,17.518 47.594,18.549 Q 46.938,19.596 45.781,19.596 Q 44.797,19.596 44.172,18.753 Q 43.375,17.69 43.375,15.706 Q 43.375,13.909 44.031,12.878 Q 44.688,11.846 45.812,11.846 M 45.812,12.581 Q 45.141,12.581 44.781,13.393 Q 44.422,14.221 44.422,15.706 Q 44.422,17.19 44.781,18.034 Q 45.141,18.862 45.812,18.862 Q 46.422,18.862 46.75,18.253 Q 47.203,17.44 47.203,15.706 Q 47.203,14.19 46.844,13.393 Q 46.469,12.581 45.812,12.581 M 51.5,11.846 Q 52.625,11.846 53.281,12.878 Q 53.938,13.909 53.938,15.69 Q 53.938,17.518 53.281,18.549 Q 52.625,19.596 51.469,19.596 Q 50.484,19.596 49.859,18.753 Q 49.062,17.69 49.062,15.706 Q 49.062,13.909 49.719,12.878 Q 50.375,11.846 51.5,11.846 M 51.5,12.581 Q 50.828,12.581 50.469,13.393 Q 50.109,14.221 50.109,15.706 Q 50.109,17.19 50.469,18.034 Q 50.828,18.862 51.5,18.862 Q 52.109,18.862 52.438,18.253 Q 52.891,17.44 52.891,15.706 Q 52.891,14.19 52.531,13.393 Q 52.156,12.581 51.5,12.581 M 55.109,19.409 L 55.109,13.987 L 56.094,13.987 L 56.094,15.003 Q 56.531,14.362 56.812,14.128 Q 57.141,13.878 57.656,13.878 Q 58.312,13.878 58.719,14.284 Q 58.953,14.534 59.125,15.003 Q 59.562,14.346 59.844,14.128 Q 60.156,13.878 60.703,13.878 Q 62.141,13.878 62.141,15.471 L 62.141,19.409 L 61.172,19.409 L 61.156,15.628 Q 61.156,14.69 60.438,14.69 Q 59.797,14.69 59.125,15.784 L 59.125,19.409 L 58.141,19.409 L 58.141,15.628 Q 58.141,14.69 57.406,14.69 Q 56.781,14.69 56.094,15.784 L 56.094,19.409 L 55.109,19.409"></path></g><g fill="#366AFF" fill-rule="evenodd"><path d="M 6.281,11.409 L 6.281,10.674 L 7.766,10.674 L 7.766,4.846 L 6.281,5.206 L 6.281,4.456 L 8.75,3.846 L 8.75,10.674 L 10.234,10.674 L 10.234,11.409 L 6.281,11.409 M 13.266,3.846 Q 14.391,3.846 15.047,4.878 Q 15.703,5.909 15.703,7.69 Q 15.703,9.518 15.047,10.549 Q 14.391,11.596 13.234,11.596 Q 12.25,11.596 11.625,10.753 Q 10.828,9.69 10.828,7.706 Q 10.828,5.909 11.484,4.878 Q 12.141,3.846 13.266,3.846 M 13.266,4.581 Q 12.594,4.581 12.234,5.393 Q 11.875,6.221 11.875,7.706 Q 11.875,9.19 12.234,10.034 Q 12.594,10.862 13.266,10.862 Q 13.875,10.862 14.203,10.253 Q 14.656,9.44 14.656,7.706 Q 14.656,6.19 14.297,5.393 Q 13.922,4.581 13.266,4.581 M 18.953,3.846 Q 20.078,3.846 20.734,4.878 Q 21.391,5.909 21.391,7.69 Q 21.391,9.518 20.734,10.549 Q 20.078,11.596 18.922,11.596 Q 17.938,11.596 17.312,10.753 Q 16.516,9.69 16.516,7.706 Q 16.516,5.909 17.172,4.878 Q 17.828,3.846 18.953,3.846 M 18.953,4.581 Q 18.281,4.581 17.922,5.393 Q 17.562,6.221 17.562,7.706 Q 17.562,9.19 17.922,10.034 Q 18.281,10.862 18.953,10.862 Q 19.562,10.862 19.891,10.253 Q 20.344,9.44 20.344,7.706 Q 20.344,6.19 19.984,5.393 Q 19.609,4.581 18.953,4.581 M 24.641,3.846 Q 25.766,3.846 26.422,4.878 Q 27.078,5.909 27.078,7.69 Q 27.078,9.518 26.422,10.549 Q 25.766,11.596 24.609,11.596 Q 23.625,11.596 23,10.753 Q 22.203,9.69 22.203,7.706 Q 22.203,5.909 22.859,4.878 Q 23.516,3.846 24.641,3.846 M 24.641,4.581 Q 23.969,4.581 23.609,5.393 Q 23.25,6.221 23.25,7.706 Q 23.25,9.19 23.609,10.034 Q 23.969,10.862 24.641,10.862 Q 25.25,10.862 25.578,10.253 Q 26.031,9.44 26.031,7.706 Q 26.031,6.19 25.672,5.393 Q 25.297,4.581 24.641,4.581 M 28.25,11.409 L 28.25,5.987 L 29.234,5.987 L 29.234,7.003 Q 29.672,6.362 29.953,6.128 Q 30.281,5.878 30.797,5.878 Q 31.453,5.878 31.859,6.284 Q 32.094,6.534 32.266,7.003 Q 32.703,6.346 32.984,6.128 Q 33.297,5.878 33.844,5.878 Q 35.281,5.878 35.281,7.471 L 35.281,11.409 L 34.312,11.409 L 34.297,7.628 Q 34.297,6.69 33.578,6.69 Q 32.938,6.69 32.266,7.784 L 32.266,11.409 L 31.281,11.409 L 31.281,7.628 Q 31.281,6.69 30.547,6.69 Q 29.922,6.69 29.234,7.784 L 29.234,11.409 L 28.25,11.409"></path></g></svg>